G04 EAGLE Gerber RS-274X export*
G75*
%MOMM*%
%FSLAX34Y34*%
%LPD*%
%IN*%
%IPPOS*%
%AMOC8*
5,1,8,0,0,1.08239X$1,22.5*%
G01*
%ADD10C,0.254000*%


D10*
X0Y35000D02*
X133Y31950D01*
X532Y28922D01*
X1193Y25941D01*
X2111Y23029D01*
X3279Y20208D01*
X4689Y17500D01*
X6330Y14925D01*
X8188Y12502D01*
X10251Y10251D01*
X12502Y8188D01*
X14925Y6330D01*
X17500Y4689D01*
X20208Y3279D01*
X23029Y2111D01*
X25941Y1193D01*
X28922Y532D01*
X31950Y133D01*
X35000Y0D01*
X765000Y0D01*
X768009Y88D01*
X770998Y437D01*
X773946Y1046D01*
X776830Y1910D01*
X779627Y3021D01*
X782317Y4372D01*
X784879Y5952D01*
X787293Y7750D01*
X789542Y9751D01*
X791607Y11941D01*
X793474Y14302D01*
X795128Y16817D01*
X796556Y19467D01*
X797748Y22230D01*
X798695Y25088D01*
X799389Y28017D01*
X799825Y30995D01*
X800000Y34000D01*
X800000Y1605000D01*
X799867Y1608050D01*
X799468Y1611078D01*
X798807Y1614059D01*
X797889Y1616971D01*
X796721Y1619792D01*
X795311Y1622500D01*
X793670Y1625075D01*
X791812Y1627498D01*
X789749Y1629749D01*
X787498Y1631812D01*
X785075Y1633670D01*
X782500Y1635311D01*
X779792Y1636721D01*
X776971Y1637889D01*
X774059Y1638807D01*
X771078Y1639468D01*
X768050Y1639867D01*
X765000Y1640000D01*
X35000Y1640000D01*
X31950Y1639867D01*
X28922Y1639468D01*
X25941Y1638807D01*
X23029Y1637889D01*
X20208Y1636721D01*
X17500Y1635311D01*
X14925Y1633670D01*
X12502Y1631812D01*
X10251Y1629749D01*
X8188Y1627498D01*
X6330Y1625075D01*
X4689Y1622500D01*
X3279Y1619792D01*
X2111Y1616971D01*
X1193Y1614059D01*
X532Y1611078D01*
X133Y1608050D01*
X0Y1605000D01*
X0Y35000D01*
X678500Y1062000D02*
X706500Y1062000D01*
X706500Y1082000D01*
X678500Y1082000D01*
X678500Y1062000D01*
X678500Y948000D02*
X706500Y948000D01*
X706500Y968000D01*
X678500Y968000D01*
X678500Y948000D01*
X145600Y50000D02*
X145612Y49725D01*
X145648Y49453D01*
X145707Y49185D01*
X145790Y48923D01*
X145895Y48669D01*
X146022Y48425D01*
X146170Y48193D01*
X146337Y47975D01*
X146523Y47773D01*
X146725Y47587D01*
X146943Y47420D01*
X147175Y47272D01*
X147419Y47145D01*
X147673Y47040D01*
X147935Y46957D01*
X148203Y46898D01*
X148475Y46862D01*
X148750Y46850D01*
X151250Y46850D01*
X151525Y46862D01*
X151797Y46898D01*
X152065Y46957D01*
X152327Y47040D01*
X152581Y47145D01*
X152825Y47272D01*
X153057Y47420D01*
X153275Y47587D01*
X153477Y47773D01*
X153663Y47975D01*
X153830Y48193D01*
X153978Y48425D01*
X154105Y48669D01*
X154210Y48923D01*
X154293Y49185D01*
X154352Y49453D01*
X154388Y49725D01*
X154400Y50000D01*
X154388Y50275D01*
X154352Y50547D01*
X154293Y50815D01*
X154210Y51077D01*
X154105Y51331D01*
X153978Y51575D01*
X153830Y51807D01*
X153663Y52025D01*
X153477Y52227D01*
X153275Y52413D01*
X153057Y52580D01*
X152825Y52728D01*
X152581Y52855D01*
X152327Y52960D01*
X152065Y53043D01*
X151797Y53102D01*
X151525Y53138D01*
X151250Y53150D01*
X148750Y53150D01*
X148475Y53138D01*
X148203Y53102D01*
X147935Y53043D01*
X147673Y52960D01*
X147419Y52855D01*
X147175Y52728D01*
X146943Y52580D01*
X146725Y52413D01*
X146523Y52227D01*
X146337Y52025D01*
X146170Y51807D01*
X146022Y51575D01*
X145895Y51331D01*
X145790Y51077D01*
X145707Y50815D01*
X145648Y50547D01*
X145612Y50275D01*
X145600Y50000D01*
X73550Y12500D02*
X73562Y12217D01*
X73599Y11936D01*
X73661Y11659D01*
X73746Y11388D01*
X73855Y11127D01*
X73985Y10875D01*
X74138Y10636D01*
X74310Y10411D01*
X74502Y10202D01*
X74711Y10010D01*
X74936Y9838D01*
X75175Y9685D01*
X75427Y9555D01*
X75688Y9446D01*
X75959Y9361D01*
X76236Y9299D01*
X76517Y9262D01*
X76800Y9250D01*
X77083Y9262D01*
X77364Y9299D01*
X77641Y9361D01*
X77912Y9446D01*
X78174Y9555D01*
X78425Y9685D01*
X78664Y9838D01*
X78889Y10010D01*
X79098Y10202D01*
X79290Y10411D01*
X79462Y10636D01*
X79615Y10875D01*
X79746Y11127D01*
X79854Y11388D01*
X79939Y11659D01*
X80001Y11936D01*
X80038Y12217D01*
X80050Y12500D01*
X80050Y25500D01*
X80038Y25783D01*
X80001Y26064D01*
X79939Y26341D01*
X79854Y26612D01*
X79746Y26874D01*
X79615Y27125D01*
X79462Y27364D01*
X79290Y27589D01*
X79098Y27798D01*
X78889Y27990D01*
X78664Y28162D01*
X78425Y28315D01*
X78174Y28446D01*
X77912Y28554D01*
X77641Y28639D01*
X77364Y28701D01*
X77083Y28738D01*
X76800Y28750D01*
X76517Y28738D01*
X76236Y28701D01*
X75959Y28639D01*
X75688Y28554D01*
X75427Y28446D01*
X75175Y28315D01*
X74936Y28162D01*
X74711Y27990D01*
X74502Y27798D01*
X74310Y27589D01*
X74138Y27364D01*
X73985Y27125D01*
X73855Y26874D01*
X73746Y26612D01*
X73661Y26341D01*
X73599Y26064D01*
X73562Y25783D01*
X73550Y25500D01*
X73550Y12500D01*
X159950Y12500D02*
X159962Y12217D01*
X159999Y11936D01*
X160061Y11659D01*
X160146Y11388D01*
X160255Y11127D01*
X160385Y10875D01*
X160538Y10636D01*
X160710Y10411D01*
X160902Y10202D01*
X161111Y10010D01*
X161336Y9838D01*
X161575Y9685D01*
X161827Y9555D01*
X162088Y9446D01*
X162359Y9361D01*
X162636Y9299D01*
X162917Y9262D01*
X163200Y9250D01*
X163483Y9262D01*
X163764Y9299D01*
X164041Y9361D01*
X164312Y9446D01*
X164574Y9555D01*
X164825Y9685D01*
X165064Y9838D01*
X165289Y10010D01*
X165498Y10202D01*
X165690Y10411D01*
X165862Y10636D01*
X166015Y10875D01*
X166146Y11127D01*
X166254Y11388D01*
X166339Y11659D01*
X166401Y11936D01*
X166438Y12217D01*
X166450Y12500D01*
X166450Y25500D01*
X166438Y25783D01*
X166401Y26064D01*
X166339Y26341D01*
X166254Y26612D01*
X166146Y26874D01*
X166015Y27125D01*
X165862Y27364D01*
X165690Y27589D01*
X165498Y27798D01*
X165289Y27990D01*
X165064Y28162D01*
X164825Y28315D01*
X164574Y28446D01*
X164312Y28554D01*
X164041Y28639D01*
X163764Y28701D01*
X163483Y28738D01*
X163200Y28750D01*
X162917Y28738D01*
X162636Y28701D01*
X162359Y28639D01*
X162088Y28554D01*
X161827Y28446D01*
X161575Y28315D01*
X161336Y28162D01*
X161111Y27990D01*
X160902Y27798D01*
X160710Y27589D01*
X160538Y27364D01*
X160385Y27125D01*
X160255Y26874D01*
X160146Y26612D01*
X160061Y26341D01*
X159999Y26064D01*
X159962Y25783D01*
X159950Y25500D01*
X159950Y12500D01*
X73550Y52250D02*
X73562Y51967D01*
X73599Y51686D01*
X73661Y51409D01*
X73746Y51138D01*
X73855Y50877D01*
X73985Y50625D01*
X74138Y50386D01*
X74310Y50161D01*
X74502Y49952D01*
X74711Y49760D01*
X74936Y49588D01*
X75175Y49435D01*
X75427Y49305D01*
X75688Y49196D01*
X75959Y49111D01*
X76236Y49049D01*
X76517Y49012D01*
X76800Y49000D01*
X77083Y49012D01*
X77364Y49049D01*
X77641Y49111D01*
X77912Y49196D01*
X78174Y49305D01*
X78425Y49435D01*
X78664Y49588D01*
X78889Y49760D01*
X79098Y49952D01*
X79290Y50161D01*
X79462Y50386D01*
X79615Y50625D01*
X79746Y50877D01*
X79854Y51138D01*
X79939Y51409D01*
X80001Y51686D01*
X80038Y51967D01*
X80050Y52250D01*
X80050Y62250D01*
X80038Y62533D01*
X80001Y62814D01*
X79939Y63091D01*
X79854Y63362D01*
X79746Y63624D01*
X79615Y63875D01*
X79462Y64114D01*
X79290Y64339D01*
X79098Y64548D01*
X78889Y64740D01*
X78664Y64912D01*
X78425Y65065D01*
X78174Y65196D01*
X77912Y65304D01*
X77641Y65389D01*
X77364Y65451D01*
X77083Y65488D01*
X76800Y65500D01*
X76517Y65488D01*
X76236Y65451D01*
X75959Y65389D01*
X75688Y65304D01*
X75427Y65196D01*
X75175Y65065D01*
X74936Y64912D01*
X74711Y64740D01*
X74502Y64548D01*
X74310Y64339D01*
X74138Y64114D01*
X73985Y63875D01*
X73855Y63624D01*
X73746Y63362D01*
X73661Y63091D01*
X73599Y62814D01*
X73562Y62533D01*
X73550Y62250D01*
X73550Y52250D01*
X159950Y52250D02*
X159962Y51967D01*
X159999Y51686D01*
X160061Y51409D01*
X160146Y51138D01*
X160255Y50877D01*
X160385Y50625D01*
X160538Y50386D01*
X160710Y50161D01*
X160902Y49952D01*
X161111Y49760D01*
X161336Y49588D01*
X161575Y49435D01*
X161827Y49305D01*
X162088Y49196D01*
X162359Y49111D01*
X162636Y49049D01*
X162917Y49012D01*
X163200Y49000D01*
X163483Y49012D01*
X163764Y49049D01*
X164041Y49111D01*
X164312Y49196D01*
X164574Y49305D01*
X164825Y49435D01*
X165064Y49588D01*
X165289Y49760D01*
X165498Y49952D01*
X165690Y50161D01*
X165862Y50386D01*
X166015Y50625D01*
X166146Y50877D01*
X166254Y51138D01*
X166339Y51409D01*
X166401Y51686D01*
X166438Y51967D01*
X166450Y52250D01*
X166450Y62250D01*
X166438Y62533D01*
X166401Y62814D01*
X166339Y63091D01*
X166254Y63362D01*
X166146Y63624D01*
X166015Y63875D01*
X165862Y64114D01*
X165690Y64339D01*
X165498Y64548D01*
X165289Y64740D01*
X165064Y64912D01*
X164825Y65065D01*
X164574Y65196D01*
X164312Y65304D01*
X164041Y65389D01*
X163764Y65451D01*
X163483Y65488D01*
X163200Y65500D01*
X162917Y65488D01*
X162636Y65451D01*
X162359Y65389D01*
X162088Y65304D01*
X161827Y65196D01*
X161575Y65065D01*
X161336Y64912D01*
X161111Y64740D01*
X160902Y64548D01*
X160710Y64339D01*
X160538Y64114D01*
X160385Y63875D01*
X160255Y63624D01*
X160146Y63362D01*
X160061Y63091D01*
X159999Y62814D01*
X159962Y62533D01*
X159950Y62250D01*
X159950Y52250D01*
X780000Y34464D02*
X779924Y33396D01*
X779771Y32335D01*
X779543Y31288D01*
X779241Y30260D01*
X778867Y29256D01*
X778422Y28281D01*
X777908Y27341D01*
X777329Y26440D01*
X776687Y25582D01*
X775985Y24772D01*
X775228Y24015D01*
X774418Y23313D01*
X773560Y22671D01*
X772659Y22092D01*
X771719Y21578D01*
X770744Y21133D01*
X769740Y20759D01*
X768712Y20457D01*
X767665Y20229D01*
X766604Y20076D01*
X765536Y20000D01*
X764464Y20000D01*
X763396Y20076D01*
X762335Y20229D01*
X761288Y20457D01*
X760260Y20759D01*
X759256Y21133D01*
X758281Y21578D01*
X757341Y22092D01*
X756440Y22671D01*
X755582Y23313D01*
X754772Y24015D01*
X754015Y24772D01*
X753313Y25582D01*
X752671Y26440D01*
X752092Y27341D01*
X751578Y28281D01*
X751133Y29256D01*
X750759Y30260D01*
X750457Y31288D01*
X750229Y32335D01*
X750076Y33396D01*
X750000Y34464D01*
X750000Y35536D01*
X750076Y36604D01*
X750229Y37665D01*
X750457Y38712D01*
X750759Y39740D01*
X751133Y40744D01*
X751578Y41719D01*
X752092Y42659D01*
X752671Y43560D01*
X753313Y44418D01*
X754015Y45228D01*
X754772Y45985D01*
X755582Y46687D01*
X756440Y47329D01*
X757341Y47908D01*
X758281Y48422D01*
X759256Y48867D01*
X760260Y49241D01*
X761288Y49543D01*
X762335Y49771D01*
X763396Y49924D01*
X764464Y50000D01*
X765536Y50000D01*
X766604Y49924D01*
X767665Y49771D01*
X768712Y49543D01*
X769740Y49241D01*
X770744Y48867D01*
X771719Y48422D01*
X772659Y47908D01*
X773560Y47329D01*
X774418Y46687D01*
X775228Y45985D01*
X775985Y45228D01*
X776687Y44418D01*
X777329Y43560D01*
X777908Y42659D01*
X778422Y41719D01*
X778867Y40744D01*
X779241Y39740D01*
X779543Y38712D01*
X779771Y37665D01*
X779924Y36604D01*
X780000Y35536D01*
X780000Y34464D01*
X50000Y34464D02*
X49924Y33396D01*
X49771Y32335D01*
X49543Y31288D01*
X49241Y30260D01*
X48867Y29256D01*
X48422Y28281D01*
X47908Y27341D01*
X47329Y26440D01*
X46687Y25582D01*
X45985Y24772D01*
X45228Y24015D01*
X44418Y23313D01*
X43560Y22671D01*
X42659Y22092D01*
X41719Y21578D01*
X40744Y21133D01*
X39740Y20759D01*
X38712Y20457D01*
X37665Y20229D01*
X36604Y20076D01*
X35536Y20000D01*
X34464Y20000D01*
X33396Y20076D01*
X32335Y20229D01*
X31288Y20457D01*
X30260Y20759D01*
X29256Y21133D01*
X28281Y21578D01*
X27341Y22092D01*
X26440Y22671D01*
X25582Y23313D01*
X24772Y24015D01*
X24015Y24772D01*
X23313Y25582D01*
X22671Y26440D01*
X22092Y27341D01*
X21578Y28281D01*
X21133Y29256D01*
X20759Y30260D01*
X20457Y31288D01*
X20229Y32335D01*
X20076Y33396D01*
X20000Y34464D01*
X20000Y35536D01*
X20076Y36604D01*
X20229Y37665D01*
X20457Y38712D01*
X20759Y39740D01*
X21133Y40744D01*
X21578Y41719D01*
X22092Y42659D01*
X22671Y43560D01*
X23313Y44418D01*
X24015Y45228D01*
X24772Y45985D01*
X25582Y46687D01*
X26440Y47329D01*
X27341Y47908D01*
X28281Y48422D01*
X29256Y48867D01*
X30260Y49241D01*
X31288Y49543D01*
X32335Y49771D01*
X33396Y49924D01*
X34464Y50000D01*
X35536Y50000D01*
X36604Y49924D01*
X37665Y49771D01*
X38712Y49543D01*
X39740Y49241D01*
X40744Y48867D01*
X41719Y48422D01*
X42659Y47908D01*
X43560Y47329D01*
X44418Y46687D01*
X45228Y45985D01*
X45985Y45228D01*
X46687Y44418D01*
X47329Y43560D01*
X47908Y42659D01*
X48422Y41719D01*
X48867Y40744D01*
X49241Y39740D01*
X49543Y38712D01*
X49771Y37665D01*
X49924Y36604D01*
X50000Y35536D01*
X50000Y34464D01*
X50000Y1604464D02*
X49924Y1603396D01*
X49771Y1602335D01*
X49543Y1601288D01*
X49241Y1600260D01*
X48867Y1599256D01*
X48422Y1598281D01*
X47908Y1597341D01*
X47329Y1596440D01*
X46687Y1595582D01*
X45985Y1594772D01*
X45228Y1594015D01*
X44418Y1593313D01*
X43560Y1592671D01*
X42659Y1592092D01*
X41719Y1591578D01*
X40744Y1591133D01*
X39740Y1590759D01*
X38712Y1590457D01*
X37665Y1590229D01*
X36604Y1590076D01*
X35536Y1590000D01*
X34464Y1590000D01*
X33396Y1590076D01*
X32335Y1590229D01*
X31288Y1590457D01*
X30260Y1590759D01*
X29256Y1591133D01*
X28281Y1591578D01*
X27341Y1592092D01*
X26440Y1592671D01*
X25582Y1593313D01*
X24772Y1594015D01*
X24015Y1594772D01*
X23313Y1595582D01*
X22671Y1596440D01*
X22092Y1597341D01*
X21578Y1598281D01*
X21133Y1599256D01*
X20759Y1600260D01*
X20457Y1601288D01*
X20229Y1602335D01*
X20076Y1603396D01*
X20000Y1604464D01*
X20000Y1605536D01*
X20076Y1606604D01*
X20229Y1607665D01*
X20457Y1608712D01*
X20759Y1609740D01*
X21133Y1610744D01*
X21578Y1611719D01*
X22092Y1612659D01*
X22671Y1613560D01*
X23313Y1614418D01*
X24015Y1615228D01*
X24772Y1615985D01*
X25582Y1616687D01*
X26440Y1617329D01*
X27341Y1617908D01*
X28281Y1618422D01*
X29256Y1618867D01*
X30260Y1619241D01*
X31288Y1619543D01*
X32335Y1619771D01*
X33396Y1619924D01*
X34464Y1620000D01*
X35536Y1620000D01*
X36604Y1619924D01*
X37665Y1619771D01*
X38712Y1619543D01*
X39740Y1619241D01*
X40744Y1618867D01*
X41719Y1618422D01*
X42659Y1617908D01*
X43560Y1617329D01*
X44418Y1616687D01*
X45228Y1615985D01*
X45985Y1615228D01*
X46687Y1614418D01*
X47329Y1613560D01*
X47908Y1612659D01*
X48422Y1611719D01*
X48867Y1610744D01*
X49241Y1609740D01*
X49543Y1608712D01*
X49771Y1607665D01*
X49924Y1606604D01*
X50000Y1605536D01*
X50000Y1604464D01*
X780000Y1604464D02*
X779924Y1603396D01*
X779771Y1602335D01*
X779543Y1601288D01*
X779241Y1600260D01*
X778867Y1599256D01*
X778422Y1598281D01*
X777908Y1597341D01*
X777329Y1596440D01*
X776687Y1595582D01*
X775985Y1594772D01*
X775228Y1594015D01*
X774418Y1593313D01*
X773560Y1592671D01*
X772659Y1592092D01*
X771719Y1591578D01*
X770744Y1591133D01*
X769740Y1590759D01*
X768712Y1590457D01*
X767665Y1590229D01*
X766604Y1590076D01*
X765536Y1590000D01*
X764464Y1590000D01*
X763396Y1590076D01*
X762335Y1590229D01*
X761288Y1590457D01*
X760260Y1590759D01*
X759256Y1591133D01*
X758281Y1591578D01*
X757341Y1592092D01*
X756440Y1592671D01*
X755582Y1593313D01*
X754772Y1594015D01*
X754015Y1594772D01*
X753313Y1595582D01*
X752671Y1596440D01*
X752092Y1597341D01*
X751578Y1598281D01*
X751133Y1599256D01*
X750759Y1600260D01*
X750457Y1601288D01*
X750229Y1602335D01*
X750076Y1603396D01*
X750000Y1604464D01*
X750000Y1605536D01*
X750076Y1606604D01*
X750229Y1607665D01*
X750457Y1608712D01*
X750759Y1609740D01*
X751133Y1610744D01*
X751578Y1611719D01*
X752092Y1612659D01*
X752671Y1613560D01*
X753313Y1614418D01*
X754015Y1615228D01*
X754772Y1615985D01*
X755582Y1616687D01*
X756440Y1617329D01*
X757341Y1617908D01*
X758281Y1618422D01*
X759256Y1618867D01*
X760260Y1619241D01*
X761288Y1619543D01*
X762335Y1619771D01*
X763396Y1619924D01*
X764464Y1620000D01*
X765536Y1620000D01*
X766604Y1619924D01*
X767665Y1619771D01*
X768712Y1619543D01*
X769740Y1619241D01*
X770744Y1618867D01*
X771719Y1618422D01*
X772659Y1617908D01*
X773560Y1617329D01*
X774418Y1616687D01*
X775228Y1615985D01*
X775985Y1615228D01*
X776687Y1614418D01*
X777329Y1613560D01*
X777908Y1612659D01*
X778422Y1611719D01*
X778867Y1610744D01*
X779241Y1609740D01*
X779543Y1608712D01*
X779771Y1607665D01*
X779924Y1606604D01*
X780000Y1605536D01*
X780000Y1604464D01*
X510371Y43500D02*
X511111Y43435D01*
X511842Y43306D01*
X512558Y43114D01*
X513256Y42860D01*
X513929Y42547D01*
X514571Y42176D01*
X515179Y41750D01*
X515748Y41273D01*
X516273Y40748D01*
X516750Y40179D01*
X517176Y39571D01*
X517547Y38929D01*
X517860Y38256D01*
X518114Y37558D01*
X518306Y36842D01*
X518435Y36111D01*
X518500Y35371D01*
X518500Y34629D01*
X518435Y33889D01*
X518306Y33159D01*
X518114Y32442D01*
X517860Y31744D01*
X517547Y31071D01*
X517176Y30429D01*
X516750Y29821D01*
X516273Y29252D01*
X515748Y28727D01*
X515179Y28250D01*
X514571Y27824D01*
X513929Y27453D01*
X513256Y27140D01*
X512558Y26886D01*
X511842Y26694D01*
X511111Y26565D01*
X510371Y26500D01*
X509629Y26500D01*
X508889Y26565D01*
X508159Y26694D01*
X507442Y26886D01*
X506744Y27140D01*
X506071Y27453D01*
X505429Y27824D01*
X504821Y28250D01*
X504252Y28727D01*
X503727Y29252D01*
X503250Y29821D01*
X502824Y30429D01*
X502453Y31071D01*
X502140Y31744D01*
X501886Y32442D01*
X501694Y33159D01*
X501565Y33889D01*
X501500Y34629D01*
X501500Y35371D01*
X501565Y36111D01*
X501694Y36842D01*
X501886Y37558D01*
X502140Y38256D01*
X502453Y38929D01*
X502824Y39571D01*
X503250Y40179D01*
X503727Y40748D01*
X504252Y41273D01*
X504821Y41750D01*
X505429Y42176D01*
X506071Y42547D01*
X506744Y42860D01*
X507442Y43114D01*
X508159Y43306D01*
X508889Y43435D01*
X509629Y43500D01*
X510371Y43500D01*
X510371Y113500D02*
X511111Y113435D01*
X511842Y113306D01*
X512558Y113114D01*
X513256Y112860D01*
X513929Y112547D01*
X514571Y112176D01*
X515179Y111750D01*
X515748Y111273D01*
X516273Y110748D01*
X516750Y110179D01*
X517176Y109571D01*
X517547Y108929D01*
X517860Y108256D01*
X518114Y107558D01*
X518306Y106842D01*
X518435Y106111D01*
X518500Y105371D01*
X518500Y104629D01*
X518435Y103889D01*
X518306Y103159D01*
X518114Y102442D01*
X517860Y101744D01*
X517547Y101071D01*
X517176Y100429D01*
X516750Y99821D01*
X516273Y99252D01*
X515748Y98727D01*
X515179Y98250D01*
X514571Y97824D01*
X513929Y97453D01*
X513256Y97140D01*
X512558Y96886D01*
X511842Y96694D01*
X511111Y96565D01*
X510371Y96500D01*
X509629Y96500D01*
X508889Y96565D01*
X508159Y96694D01*
X507442Y96886D01*
X506744Y97140D01*
X506071Y97453D01*
X505429Y97824D01*
X504821Y98250D01*
X504252Y98727D01*
X503727Y99252D01*
X503250Y99821D01*
X502824Y100429D01*
X502453Y101071D01*
X502140Y101744D01*
X501886Y102442D01*
X501694Y103159D01*
X501565Y103889D01*
X501500Y104629D01*
X501500Y105371D01*
X501565Y106111D01*
X501694Y106842D01*
X501886Y107558D01*
X502140Y108256D01*
X502453Y108929D01*
X502824Y109571D01*
X503250Y110179D01*
X503727Y110748D01*
X504252Y111273D01*
X504821Y111750D01*
X505429Y112176D01*
X506071Y112547D01*
X506744Y112860D01*
X507442Y113114D01*
X508159Y113306D01*
X508889Y113435D01*
X509629Y113500D01*
X510371Y113500D01*
X153000Y49764D02*
X152926Y49298D01*
X152780Y48848D01*
X152566Y48428D01*
X152288Y48046D01*
X151954Y47712D01*
X151572Y47434D01*
X151152Y47220D01*
X150703Y47074D01*
X150236Y47000D01*
X149764Y47000D01*
X149298Y47074D01*
X148848Y47220D01*
X148428Y47434D01*
X148046Y47712D01*
X147712Y48046D01*
X147434Y48428D01*
X147220Y48848D01*
X147074Y49298D01*
X147000Y49764D01*
X147000Y50236D01*
X147074Y50703D01*
X147220Y51152D01*
X147434Y51572D01*
X147712Y51954D01*
X148046Y52288D01*
X148428Y52566D01*
X148848Y52780D01*
X149298Y52926D01*
X149764Y53000D01*
X150236Y53000D01*
X150703Y52926D01*
X151152Y52780D01*
X151572Y52566D01*
X151954Y52288D01*
X152288Y51954D01*
X152566Y51572D01*
X152780Y51152D01*
X152926Y50703D01*
X153000Y50236D01*
X153000Y49764D01*
X153150Y49752D02*
X153072Y49262D01*
X152919Y48791D01*
X152694Y48349D01*
X152403Y47948D01*
X152052Y47597D01*
X151651Y47306D01*
X151209Y47081D01*
X150738Y46928D01*
X150248Y46850D01*
X149752Y46850D01*
X149262Y46928D01*
X148791Y47081D01*
X148349Y47306D01*
X147948Y47597D01*
X147597Y47948D01*
X147306Y48349D01*
X147081Y48791D01*
X146928Y49262D01*
X146850Y49752D01*
X146850Y50248D01*
X146928Y50738D01*
X147081Y51209D01*
X147306Y51651D01*
X147597Y52052D01*
X147948Y52403D01*
X148349Y52694D01*
X148791Y52919D01*
X149262Y53072D01*
X149752Y53150D01*
X150248Y53150D01*
X150738Y53072D01*
X151209Y52919D01*
X151651Y52694D01*
X152052Y52403D01*
X152403Y52052D01*
X152694Y51651D01*
X152919Y51209D01*
X153072Y50738D01*
X153150Y50248D01*
X153150Y49752D01*
X93150Y49752D02*
X93072Y49262D01*
X92919Y48791D01*
X92694Y48349D01*
X92403Y47948D01*
X92052Y47597D01*
X91651Y47306D01*
X91209Y47081D01*
X90738Y46928D01*
X90248Y46850D01*
X89752Y46850D01*
X89262Y46928D01*
X88791Y47081D01*
X88349Y47306D01*
X87948Y47597D01*
X87597Y47948D01*
X87306Y48349D01*
X87081Y48791D01*
X86928Y49262D01*
X86850Y49752D01*
X86850Y50248D01*
X86928Y50738D01*
X87081Y51209D01*
X87306Y51651D01*
X87597Y52052D01*
X87948Y52403D01*
X88349Y52694D01*
X88791Y52919D01*
X89262Y53072D01*
X89752Y53150D01*
X90248Y53150D01*
X90738Y53072D01*
X91209Y52919D01*
X91651Y52694D01*
X92052Y52403D01*
X92403Y52052D01*
X92694Y51651D01*
X92919Y51209D01*
X93072Y50738D01*
X93150Y50248D01*
X93150Y49752D01*
X290371Y43500D02*
X291111Y43435D01*
X291842Y43306D01*
X292558Y43114D01*
X293256Y42860D01*
X293929Y42547D01*
X294571Y42176D01*
X295179Y41750D01*
X295748Y41273D01*
X296273Y40748D01*
X296750Y40179D01*
X297176Y39571D01*
X297547Y38929D01*
X297860Y38256D01*
X298114Y37558D01*
X298306Y36842D01*
X298435Y36111D01*
X298500Y35371D01*
X298500Y34629D01*
X298435Y33889D01*
X298306Y33159D01*
X298114Y32442D01*
X297860Y31744D01*
X297547Y31071D01*
X297176Y30429D01*
X296750Y29821D01*
X296273Y29252D01*
X295748Y28727D01*
X295179Y28250D01*
X294571Y27824D01*
X293929Y27453D01*
X293256Y27140D01*
X292558Y26886D01*
X291842Y26694D01*
X291111Y26565D01*
X290371Y26500D01*
X289629Y26500D01*
X288889Y26565D01*
X288159Y26694D01*
X287442Y26886D01*
X286744Y27140D01*
X286071Y27453D01*
X285429Y27824D01*
X284821Y28250D01*
X284252Y28727D01*
X283727Y29252D01*
X283250Y29821D01*
X282824Y30429D01*
X282453Y31071D01*
X282140Y31744D01*
X281886Y32442D01*
X281694Y33159D01*
X281565Y33889D01*
X281500Y34629D01*
X281500Y35371D01*
X281565Y36111D01*
X281694Y36842D01*
X281886Y37558D01*
X282140Y38256D01*
X282453Y38929D01*
X282824Y39571D01*
X283250Y40179D01*
X283727Y40748D01*
X284252Y41273D01*
X284821Y41750D01*
X285429Y42176D01*
X286071Y42547D01*
X286744Y42860D01*
X287442Y43114D01*
X288159Y43306D01*
X288889Y43435D01*
X289629Y43500D01*
X290371Y43500D01*
X290371Y113500D02*
X291111Y113435D01*
X291842Y113306D01*
X292558Y113114D01*
X293256Y112860D01*
X293929Y112547D01*
X294571Y112176D01*
X295179Y111750D01*
X295748Y111273D01*
X296273Y110748D01*
X296750Y110179D01*
X297176Y109571D01*
X297547Y108929D01*
X297860Y108256D01*
X298114Y107558D01*
X298306Y106842D01*
X298435Y106111D01*
X298500Y105371D01*
X298500Y104629D01*
X298435Y103889D01*
X298306Y103159D01*
X298114Y102442D01*
X297860Y101744D01*
X297547Y101071D01*
X297176Y100429D01*
X296750Y99821D01*
X296273Y99252D01*
X295748Y98727D01*
X295179Y98250D01*
X294571Y97824D01*
X293929Y97453D01*
X293256Y97140D01*
X292558Y96886D01*
X291842Y96694D01*
X291111Y96565D01*
X290371Y96500D01*
X289629Y96500D01*
X288889Y96565D01*
X288159Y96694D01*
X287442Y96886D01*
X286744Y97140D01*
X286071Y97453D01*
X285429Y97824D01*
X284821Y98250D01*
X284252Y98727D01*
X283727Y99252D01*
X283250Y99821D01*
X282824Y100429D01*
X282453Y101071D01*
X282140Y101744D01*
X281886Y102442D01*
X281694Y103159D01*
X281565Y103889D01*
X281500Y104629D01*
X281500Y105371D01*
X281565Y106111D01*
X281694Y106842D01*
X281886Y107558D01*
X282140Y108256D01*
X282453Y108929D01*
X282824Y109571D01*
X283250Y110179D01*
X283727Y110748D01*
X284252Y111273D01*
X284821Y111750D01*
X285429Y112176D01*
X286071Y112547D01*
X286744Y112860D01*
X287442Y113114D01*
X288159Y113306D01*
X288889Y113435D01*
X289629Y113500D01*
X290371Y113500D01*
X400371Y43500D02*
X401111Y43435D01*
X401842Y43306D01*
X402558Y43114D01*
X403256Y42860D01*
X403929Y42547D01*
X404571Y42176D01*
X405179Y41750D01*
X405748Y41273D01*
X406273Y40748D01*
X406750Y40179D01*
X407176Y39571D01*
X407547Y38929D01*
X407860Y38256D01*
X408114Y37558D01*
X408306Y36842D01*
X408435Y36111D01*
X408500Y35371D01*
X408500Y34629D01*
X408435Y33889D01*
X408306Y33159D01*
X408114Y32442D01*
X407860Y31744D01*
X407547Y31071D01*
X407176Y30429D01*
X406750Y29821D01*
X406273Y29252D01*
X405748Y28727D01*
X405179Y28250D01*
X404571Y27824D01*
X403929Y27453D01*
X403256Y27140D01*
X402558Y26886D01*
X401842Y26694D01*
X401111Y26565D01*
X400371Y26500D01*
X399629Y26500D01*
X398889Y26565D01*
X398159Y26694D01*
X397442Y26886D01*
X396744Y27140D01*
X396071Y27453D01*
X395429Y27824D01*
X394821Y28250D01*
X394252Y28727D01*
X393727Y29252D01*
X393250Y29821D01*
X392824Y30429D01*
X392453Y31071D01*
X392140Y31744D01*
X391886Y32442D01*
X391694Y33159D01*
X391565Y33889D01*
X391500Y34629D01*
X391500Y35371D01*
X391565Y36111D01*
X391694Y36842D01*
X391886Y37558D01*
X392140Y38256D01*
X392453Y38929D01*
X392824Y39571D01*
X393250Y40179D01*
X393727Y40748D01*
X394252Y41273D01*
X394821Y41750D01*
X395429Y42176D01*
X396071Y42547D01*
X396744Y42860D01*
X397442Y43114D01*
X398159Y43306D01*
X398889Y43435D01*
X399629Y43500D01*
X400371Y43500D01*
X400371Y113500D02*
X401111Y113435D01*
X401842Y113306D01*
X402558Y113114D01*
X403256Y112860D01*
X403929Y112547D01*
X404571Y112176D01*
X405179Y111750D01*
X405748Y111273D01*
X406273Y110748D01*
X406750Y110179D01*
X407176Y109571D01*
X407547Y108929D01*
X407860Y108256D01*
X408114Y107558D01*
X408306Y106842D01*
X408435Y106111D01*
X408500Y105371D01*
X408500Y104629D01*
X408435Y103889D01*
X408306Y103159D01*
X408114Y102442D01*
X407860Y101744D01*
X407547Y101071D01*
X407176Y100429D01*
X406750Y99821D01*
X406273Y99252D01*
X405748Y98727D01*
X405179Y98250D01*
X404571Y97824D01*
X403929Y97453D01*
X403256Y97140D01*
X402558Y96886D01*
X401842Y96694D01*
X401111Y96565D01*
X400371Y96500D01*
X399629Y96500D01*
X398889Y96565D01*
X398159Y96694D01*
X397442Y96886D01*
X396744Y97140D01*
X396071Y97453D01*
X395429Y97824D01*
X394821Y98250D01*
X394252Y98727D01*
X393727Y99252D01*
X393250Y99821D01*
X392824Y100429D01*
X392453Y101071D01*
X392140Y101744D01*
X391886Y102442D01*
X391694Y103159D01*
X391565Y103889D01*
X391500Y104629D01*
X391500Y105371D01*
X391565Y106111D01*
X391694Y106842D01*
X391886Y107558D01*
X392140Y108256D01*
X392453Y108929D01*
X392824Y109571D01*
X393250Y110179D01*
X393727Y110748D01*
X394252Y111273D01*
X394821Y111750D01*
X395429Y112176D01*
X396071Y112547D01*
X396744Y112860D01*
X397442Y113114D01*
X398159Y113306D01*
X398889Y113435D01*
X399629Y113500D01*
X400371Y113500D01*
M02*
