G04 EAGLE Gerber RS-274X export*
G75*
%MOMM*%
%FSLAX34Y34*%
%LPD*%
%INSoldermask Bottom*%
%IPPOS*%
%AMOC8*
5,1,8,0,0,1.08239X$1,22.5*%
G01*
%ADD10C,3.203200*%
%ADD11R,0.803200X0.903200*%
%ADD12R,0.903200X0.803200*%
%ADD13R,0.863600X2.235200*%
%ADD14R,1.103200X0.903200*%
%ADD15R,0.903200X1.103200*%
%ADD16R,1.603200X1.203200*%
%ADD17R,1.853200X1.853200*%
%ADD18P,2.005885X8X112.500000*%
%ADD19C,3.319200*%
%ADD20P,2.005885X8X292.500000*%
%ADD21R,0.750300X2.171700*%
%ADD22R,1.703200X1.803200*%
%ADD23R,1.403200X1.403200*%
%ADD24R,0.473200X1.163200*%
%ADD25R,2.203200X1.403200*%
%ADD26R,0.903200X1.203200*%
%ADD27R,1.163200X0.473200*%
%ADD28R,1.403200X2.203200*%
%ADD29C,1.903200*%
%ADD30C,0.803200*%
%ADD31C,0.833200*%
%ADD32C,1.361200*%
%ADD33C,1.403200*%
%ADD34C,1.511200*%
%ADD35C,0.306600*%
%ADD36R,1.153200X1.053200*%
%ADD37C,0.269722*%
%ADD38R,2.803200X2.803200*%
%ADD39R,1.193800X0.508000*%
%ADD40R,0.508000X1.016000*%
%ADD41R,1.016000X0.508000*%
%ADD42R,3.454400X3.454400*%
%ADD43C,0.721750*%
%ADD44R,0.450000X1.350000*%
%ADD45R,1.703200X1.503200*%
%ADD46C,0.423200*%
%ADD47R,2.903200X2.903200*%
%ADD48R,1.303200X1.203200*%
%ADD49R,1.203200X1.303200*%
%ADD50R,1.503200X1.503200*%
%ADD51R,1.803200X1.103200*%
%ADD52R,1.103200X1.803200*%
%ADD53R,0.553200X1.403200*%
%ADD54C,0.222334*%
%ADD55R,0.653200X1.803200*%
%ADD56R,1.611200X1.611200*%
%ADD57R,2.171700X0.750300*%
%ADD58R,1.803200X1.703200*%
%ADD59P,1.869504X8X202.500000*%
%ADD60P,1.869504X8X292.500000*%
%ADD61R,2.590800X1.752600*%
%ADD62R,4.015000X1.515000*%
%ADD63R,1.503200X1.703200*%
%ADD64R,2.873200X2.743200*%
%ADD65R,0.965200X1.473200*%
%ADD66R,2.743200X2.873200*%
%ADD67R,1.473200X0.965200*%
%ADD68R,2.003200X1.803200*%
%ADD69C,1.853200*%
%ADD70C,2.453200*%
%ADD71R,1.511200X1.511200*%
%ADD72R,2.803200X2.803200*%
%ADD73C,1.611200*%
%ADD74R,1.803200X0.653200*%
%ADD75R,0.700300X1.674100*%
%ADD76R,1.674100X0.684700*%
%ADD77R,1.003200X1.103200*%
%ADD78R,1.103200X1.003200*%
%ADD79R,1.388900X0.600300*%
%ADD80R,2.171700X0.805100*%
%ADD81R,2.603200X3.303200*%
%ADD82C,0.653200*%
%ADD83C,1.453200*%
%ADD84C,0.953200*%


D10*
X765000Y35000D03*
X35000Y35000D03*
X35000Y1605000D03*
X765000Y1605000D03*
D11*
X217500Y1450000D03*
X227500Y1450000D03*
D12*
X197500Y1437500D03*
X197500Y1427500D03*
X247500Y1445000D03*
X247500Y1435000D03*
D11*
X475000Y1450000D03*
X485000Y1450000D03*
X435000Y1450000D03*
X445000Y1450000D03*
D12*
X505000Y1445000D03*
X505000Y1435000D03*
D11*
X732500Y1450000D03*
X742500Y1450000D03*
X692500Y1450000D03*
X702500Y1450000D03*
D12*
X762500Y1445000D03*
X762500Y1435000D03*
D13*
X399450Y734266D03*
X399450Y795734D03*
X386750Y734266D03*
X374050Y734266D03*
X386750Y795734D03*
X374050Y795734D03*
X361350Y734266D03*
X361350Y795734D03*
X348650Y734266D03*
X348650Y795734D03*
X335950Y734266D03*
X323250Y734266D03*
X335950Y795734D03*
X323250Y795734D03*
X310550Y734266D03*
X310550Y795734D03*
D11*
X260000Y620000D03*
X250000Y620000D03*
X385350Y815000D03*
X375350Y815000D03*
D12*
X361350Y825000D03*
X361350Y815000D03*
X348650Y825000D03*
X348650Y815000D03*
D11*
X715000Y620000D03*
X725000Y620000D03*
D12*
X335950Y815000D03*
X335950Y825000D03*
D11*
X321900Y815000D03*
X311900Y815000D03*
D14*
X399450Y716500D03*
X399450Y703500D03*
D15*
X348500Y715000D03*
X361500Y715000D03*
D14*
X310550Y716500D03*
X310550Y703500D03*
D11*
X350000Y702500D03*
X360000Y702500D03*
D12*
X335950Y705000D03*
X335950Y715000D03*
X295000Y600000D03*
X295000Y610000D03*
D11*
X460000Y605000D03*
X450000Y605000D03*
X585000Y590000D03*
X595000Y590000D03*
D12*
X760000Y600000D03*
X760000Y610000D03*
X67500Y1060000D03*
X67500Y1050000D03*
X77500Y1050000D03*
X77500Y1040000D03*
D14*
X102500Y1004000D03*
X102500Y991000D03*
D12*
X85000Y980000D03*
X85000Y990000D03*
X65000Y980000D03*
X65000Y990000D03*
X75000Y980000D03*
X75000Y990000D03*
D11*
X45000Y1035000D03*
X55000Y1035000D03*
D16*
X29000Y1057500D03*
X51000Y1048000D03*
X51000Y1067000D03*
D12*
X87500Y1050000D03*
X87500Y1040000D03*
X97500Y1040000D03*
X97500Y1050000D03*
X115000Y990000D03*
X115000Y980000D03*
X107500Y1050000D03*
X107500Y1040000D03*
D17*
X105000Y1470000D03*
D18*
X80000Y1470000D03*
X55000Y1470000D03*
D19*
X35000Y1400000D03*
X125000Y1400000D03*
D17*
X230000Y605000D03*
D20*
X255000Y605000D03*
X280000Y605000D03*
D19*
X300000Y675000D03*
X210000Y675000D03*
D17*
X385000Y605000D03*
D20*
X410000Y605000D03*
X435000Y605000D03*
D19*
X455000Y675000D03*
X365000Y675000D03*
D17*
X540000Y605000D03*
D20*
X565000Y605000D03*
X590000Y605000D03*
D19*
X610000Y675000D03*
X520000Y675000D03*
D17*
X695000Y605000D03*
D20*
X720000Y605000D03*
X745000Y605000D03*
D19*
X765000Y675000D03*
X675000Y675000D03*
D17*
X55000Y945000D03*
D20*
X80000Y945000D03*
X105000Y945000D03*
D19*
X125000Y1015000D03*
X35000Y1015000D03*
D12*
X257500Y1445000D03*
X257500Y1435000D03*
X515000Y1445000D03*
X515000Y1435000D03*
X772500Y1445000D03*
X772500Y1435000D03*
D11*
X762500Y1425000D03*
X772500Y1425000D03*
X505000Y1425000D03*
X515000Y1425000D03*
X247000Y1425000D03*
X257000Y1425000D03*
X140000Y1075000D03*
X150000Y1075000D03*
X140000Y1085000D03*
X150000Y1085000D03*
X140000Y1095000D03*
X150000Y1095000D03*
D12*
X130000Y1092500D03*
X130000Y1082500D03*
D11*
X95000Y1110000D03*
X105000Y1110000D03*
D12*
X75000Y1092500D03*
X75000Y1082500D03*
D21*
X422500Y789734D03*
X432500Y789734D03*
X442500Y789734D03*
X452500Y789734D03*
X462500Y789734D03*
X462500Y740266D03*
X452500Y740266D03*
X442500Y740266D03*
X432500Y740266D03*
X422500Y740266D03*
D12*
X442500Y820000D03*
X442500Y810000D03*
D14*
X455000Y824000D03*
X455000Y811000D03*
D12*
X432500Y810000D03*
X432500Y820000D03*
X522500Y820000D03*
X522500Y810000D03*
D22*
X475500Y820000D03*
D23*
X508000Y830000D03*
X508000Y810000D03*
D11*
X497500Y782500D03*
X487500Y782500D03*
D15*
X499000Y795000D03*
X486000Y795000D03*
D11*
X490000Y767500D03*
X480000Y767500D03*
D12*
X442500Y710000D03*
X442500Y720000D03*
D14*
X455000Y721500D03*
X455000Y708500D03*
D12*
X432500Y720000D03*
X432500Y710000D03*
D15*
X523500Y787500D03*
X536500Y787500D03*
D11*
X550000Y137500D03*
X540000Y137500D03*
X535000Y775000D03*
X525000Y775000D03*
X535000Y720000D03*
X525000Y720000D03*
X525000Y800000D03*
X535000Y800000D03*
D15*
X523500Y707500D03*
X536500Y707500D03*
D24*
X537500Y736154D03*
X532500Y736154D03*
X527500Y736154D03*
X522500Y736154D03*
X522500Y763846D03*
X527500Y763846D03*
X532500Y763846D03*
X537500Y763846D03*
D25*
X530000Y750000D03*
D24*
X485000Y751346D03*
X490000Y751346D03*
X495000Y751346D03*
X500000Y751346D03*
X500000Y723654D03*
X495000Y723654D03*
X490000Y723654D03*
X485000Y723654D03*
D25*
X492500Y737500D03*
D26*
X410000Y876000D03*
X400500Y854000D03*
X419500Y854000D03*
D14*
X397500Y828500D03*
X397500Y841500D03*
X410000Y828500D03*
X410000Y841500D03*
D12*
X422500Y830000D03*
X422500Y840000D03*
D27*
X113846Y1095000D03*
X113846Y1090000D03*
X113846Y1085000D03*
X113846Y1080000D03*
X86154Y1080000D03*
X86154Y1085000D03*
X86154Y1090000D03*
X86154Y1095000D03*
D28*
X100000Y1087500D03*
D29*
X510000Y35000D03*
X510000Y105000D03*
D30*
X150000Y50000D03*
D31*
X150000Y50000D03*
X90000Y50000D03*
D32*
X76800Y51460D02*
X76800Y63040D01*
X163200Y63040D02*
X163200Y51460D01*
D33*
X76800Y25000D02*
X76800Y13000D01*
X163200Y13000D02*
X163200Y25000D01*
D22*
X219500Y1395000D03*
D23*
X187000Y1385000D03*
X187000Y1405000D03*
D22*
X477000Y1392500D03*
D23*
X444500Y1382500D03*
X444500Y1402500D03*
D22*
X734500Y1392500D03*
D23*
X702000Y1382500D03*
X702000Y1402500D03*
D34*
X43000Y270000D03*
X43000Y245000D03*
X43000Y220000D03*
X97000Y270000D03*
X97000Y245000D03*
X97000Y220000D03*
X98000Y365000D03*
X98000Y340000D03*
X98000Y315000D03*
X152000Y365000D03*
X152000Y340000D03*
X152000Y315000D03*
X153000Y270000D03*
X153000Y245000D03*
X153000Y220000D03*
X207000Y270000D03*
X207000Y245000D03*
X207000Y220000D03*
X208000Y365000D03*
X208000Y340000D03*
X208000Y315000D03*
X262000Y365000D03*
X262000Y340000D03*
X262000Y315000D03*
X263000Y270000D03*
X263000Y245000D03*
X263000Y220000D03*
X317000Y270000D03*
X317000Y245000D03*
X317000Y220000D03*
X373000Y270000D03*
X373000Y245000D03*
X373000Y220000D03*
X427000Y270000D03*
X427000Y245000D03*
X427000Y220000D03*
X428000Y365000D03*
X428000Y340000D03*
X428000Y315000D03*
X482000Y365000D03*
X482000Y340000D03*
X482000Y315000D03*
X483000Y270000D03*
X483000Y245000D03*
X483000Y220000D03*
X537000Y270000D03*
X537000Y245000D03*
X537000Y220000D03*
X538000Y365000D03*
X538000Y340000D03*
X538000Y315000D03*
X592000Y365000D03*
X592000Y340000D03*
X592000Y315000D03*
X593000Y270000D03*
X593000Y245000D03*
X593000Y220000D03*
X647000Y270000D03*
X647000Y245000D03*
X647000Y220000D03*
X648000Y365000D03*
X648000Y340000D03*
X648000Y315000D03*
X702000Y365000D03*
X702000Y340000D03*
X702000Y315000D03*
X703000Y270000D03*
X703000Y245000D03*
X703000Y220000D03*
X757000Y270000D03*
X757000Y245000D03*
X757000Y220000D03*
X43000Y460000D03*
X43000Y435000D03*
X43000Y410000D03*
X97000Y460000D03*
X97000Y435000D03*
X97000Y410000D03*
X98000Y555000D03*
X98000Y530000D03*
X98000Y505000D03*
X152000Y555000D03*
X152000Y530000D03*
X152000Y505000D03*
X153000Y460000D03*
X153000Y435000D03*
X153000Y410000D03*
X207000Y460000D03*
X207000Y435000D03*
X207000Y410000D03*
X208000Y555000D03*
X208000Y530000D03*
X208000Y505000D03*
X262000Y555000D03*
X262000Y530000D03*
X262000Y505000D03*
X263000Y460000D03*
X263000Y435000D03*
X263000Y410000D03*
X317000Y460000D03*
X317000Y435000D03*
X317000Y410000D03*
X373000Y460000D03*
X373000Y435000D03*
X373000Y410000D03*
X427000Y460000D03*
X427000Y435000D03*
X427000Y410000D03*
X428000Y555000D03*
X428000Y530000D03*
X428000Y505000D03*
X482000Y555000D03*
X482000Y530000D03*
X482000Y505000D03*
X483000Y460000D03*
X483000Y435000D03*
X483000Y410000D03*
X537000Y460000D03*
X537000Y435000D03*
X537000Y410000D03*
X538000Y555000D03*
X538000Y530000D03*
X538000Y505000D03*
X592000Y555000D03*
X592000Y530000D03*
X592000Y505000D03*
X593000Y460000D03*
X593000Y435000D03*
X593000Y410000D03*
X647000Y460000D03*
X647000Y435000D03*
X647000Y410000D03*
X648000Y555000D03*
X648000Y530000D03*
X648000Y505000D03*
X702000Y555000D03*
X702000Y530000D03*
X702000Y505000D03*
X703000Y460000D03*
X703000Y435000D03*
X703000Y410000D03*
X757000Y460000D03*
X757000Y435000D03*
X757000Y410000D03*
X167500Y1072500D03*
X167500Y1052500D03*
X167500Y1032500D03*
X212500Y1072500D03*
X212500Y1052500D03*
X212500Y1032500D03*
X167500Y997500D03*
X167500Y977500D03*
X167500Y957500D03*
X212500Y997500D03*
X212500Y977500D03*
X212500Y957500D03*
X242500Y1072500D03*
X242500Y1052500D03*
X242500Y1032500D03*
X287500Y1072500D03*
X287500Y1052500D03*
X287500Y1032500D03*
X242500Y997500D03*
X242500Y977500D03*
X242500Y957500D03*
X287500Y997500D03*
X287500Y977500D03*
X287500Y957500D03*
D35*
X741367Y749283D02*
X756033Y749283D01*
X756033Y746217D01*
X741367Y746217D01*
X741367Y749283D01*
X741367Y749130D02*
X756033Y749130D01*
X756033Y742783D02*
X741367Y742783D01*
X756033Y742783D02*
X756033Y739717D01*
X741367Y739717D01*
X741367Y742783D01*
X741367Y742630D02*
X756033Y742630D01*
X756033Y736283D02*
X741367Y736283D01*
X756033Y736283D02*
X756033Y733217D01*
X741367Y733217D01*
X741367Y736283D01*
X741367Y736130D02*
X756033Y736130D01*
X756033Y729783D02*
X741367Y729783D01*
X756033Y729783D02*
X756033Y726717D01*
X741367Y726717D01*
X741367Y729783D01*
X741367Y729630D02*
X756033Y729630D01*
X756033Y723283D02*
X741367Y723283D01*
X756033Y723283D02*
X756033Y720217D01*
X741367Y720217D01*
X741367Y723283D01*
X741367Y723130D02*
X756033Y723130D01*
X756033Y716783D02*
X741367Y716783D01*
X756033Y716783D02*
X756033Y713717D01*
X741367Y713717D01*
X741367Y716783D01*
X741367Y716630D02*
X756033Y716630D01*
X756033Y710283D02*
X741367Y710283D01*
X756033Y710283D02*
X756033Y707217D01*
X741367Y707217D01*
X741367Y710283D01*
X741367Y710130D02*
X756033Y710130D01*
X756033Y703783D02*
X741367Y703783D01*
X756033Y703783D02*
X756033Y700717D01*
X741367Y700717D01*
X741367Y703783D01*
X741367Y703630D02*
X756033Y703630D01*
X698633Y703783D02*
X683967Y703783D01*
X698633Y703783D02*
X698633Y700717D01*
X683967Y700717D01*
X683967Y703783D01*
X683967Y703630D02*
X698633Y703630D01*
X698633Y710283D02*
X683967Y710283D01*
X698633Y710283D02*
X698633Y707217D01*
X683967Y707217D01*
X683967Y710283D01*
X683967Y710130D02*
X698633Y710130D01*
X698633Y716783D02*
X683967Y716783D01*
X698633Y716783D02*
X698633Y713717D01*
X683967Y713717D01*
X683967Y716783D01*
X683967Y716630D02*
X698633Y716630D01*
X698633Y723283D02*
X683967Y723283D01*
X698633Y723283D02*
X698633Y720217D01*
X683967Y720217D01*
X683967Y723283D01*
X683967Y723130D02*
X698633Y723130D01*
X698633Y729783D02*
X683967Y729783D01*
X698633Y729783D02*
X698633Y726717D01*
X683967Y726717D01*
X683967Y729783D01*
X683967Y729630D02*
X698633Y729630D01*
X698633Y736283D02*
X683967Y736283D01*
X698633Y736283D02*
X698633Y733217D01*
X683967Y733217D01*
X683967Y736283D01*
X683967Y736130D02*
X698633Y736130D01*
X698633Y742783D02*
X683967Y742783D01*
X698633Y742783D02*
X698633Y739717D01*
X683967Y739717D01*
X683967Y742783D01*
X683967Y742630D02*
X698633Y742630D01*
X698633Y749283D02*
X683967Y749283D01*
X698633Y749283D02*
X698633Y746217D01*
X683967Y746217D01*
X683967Y749283D01*
X683967Y749130D02*
X698633Y749130D01*
D29*
X290000Y35000D03*
X290000Y105000D03*
D36*
X327000Y56000D03*
X327000Y71000D03*
D11*
X312500Y57500D03*
X302500Y57500D03*
D37*
X358518Y316682D02*
X358518Y324618D01*
X358518Y316682D02*
X356482Y316682D01*
X356482Y324618D01*
X358518Y324618D01*
X358518Y319244D02*
X356482Y319244D01*
X356482Y321806D02*
X358518Y321806D01*
X358518Y324368D02*
X356482Y324368D01*
X353518Y324618D02*
X353518Y316682D01*
X351482Y316682D01*
X351482Y324618D01*
X353518Y324618D01*
X353518Y319244D02*
X351482Y319244D01*
X351482Y321806D02*
X353518Y321806D01*
X353518Y324368D02*
X351482Y324368D01*
X348518Y324618D02*
X348518Y316682D01*
X346482Y316682D01*
X346482Y324618D01*
X348518Y324618D01*
X348518Y319244D02*
X346482Y319244D01*
X346482Y321806D02*
X348518Y321806D01*
X348518Y324368D02*
X346482Y324368D01*
X343518Y324618D02*
X343518Y316682D01*
X341482Y316682D01*
X341482Y324618D01*
X343518Y324618D01*
X343518Y319244D02*
X341482Y319244D01*
X341482Y321806D02*
X343518Y321806D01*
X343518Y324368D02*
X341482Y324368D01*
X338518Y324618D02*
X338518Y316682D01*
X336482Y316682D01*
X336482Y324618D01*
X338518Y324618D01*
X338518Y319244D02*
X336482Y319244D01*
X336482Y321806D02*
X338518Y321806D01*
X338518Y324368D02*
X336482Y324368D01*
X333518Y324618D02*
X333518Y316682D01*
X331482Y316682D01*
X331482Y324618D01*
X333518Y324618D01*
X333518Y319244D02*
X331482Y319244D01*
X331482Y321806D02*
X333518Y321806D01*
X333518Y324368D02*
X331482Y324368D01*
X333518Y355382D02*
X333518Y363318D01*
X333518Y355382D02*
X331482Y355382D01*
X331482Y363318D01*
X333518Y363318D01*
X333518Y357944D02*
X331482Y357944D01*
X331482Y360506D02*
X333518Y360506D01*
X333518Y363068D02*
X331482Y363068D01*
X338518Y363318D02*
X338518Y355382D01*
X336482Y355382D01*
X336482Y363318D01*
X338518Y363318D01*
X338518Y357944D02*
X336482Y357944D01*
X336482Y360506D02*
X338518Y360506D01*
X338518Y363068D02*
X336482Y363068D01*
X343518Y363318D02*
X343518Y355382D01*
X341482Y355382D01*
X341482Y363318D01*
X343518Y363318D01*
X343518Y357944D02*
X341482Y357944D01*
X341482Y360506D02*
X343518Y360506D01*
X343518Y363068D02*
X341482Y363068D01*
X348518Y363318D02*
X348518Y355382D01*
X346482Y355382D01*
X346482Y363318D01*
X348518Y363318D01*
X348518Y357944D02*
X346482Y357944D01*
X346482Y360506D02*
X348518Y360506D01*
X348518Y363068D02*
X346482Y363068D01*
X353518Y363318D02*
X353518Y355382D01*
X351482Y355382D01*
X351482Y363318D01*
X353518Y363318D01*
X353518Y357944D02*
X351482Y357944D01*
X351482Y360506D02*
X353518Y360506D01*
X353518Y363068D02*
X351482Y363068D01*
X358518Y363318D02*
X358518Y355382D01*
X356482Y355382D01*
X356482Y363318D01*
X358518Y363318D01*
X358518Y357944D02*
X356482Y357944D01*
X356482Y360506D02*
X358518Y360506D01*
X358518Y363068D02*
X356482Y363068D01*
X360382Y353518D02*
X368318Y353518D01*
X368318Y351482D01*
X360382Y351482D01*
X360382Y353518D01*
X360382Y348518D02*
X368318Y348518D01*
X368318Y346482D01*
X360382Y346482D01*
X360382Y348518D01*
X360382Y343518D02*
X368318Y343518D01*
X368318Y341482D01*
X360382Y341482D01*
X360382Y343518D01*
X360382Y338518D02*
X368318Y338518D01*
X368318Y336482D01*
X360382Y336482D01*
X360382Y338518D01*
X360382Y333518D02*
X368318Y333518D01*
X368318Y331482D01*
X360382Y331482D01*
X360382Y333518D01*
X360382Y328518D02*
X368318Y328518D01*
X368318Y326482D01*
X360382Y326482D01*
X360382Y328518D01*
X329618Y328518D02*
X321682Y328518D01*
X329618Y328518D02*
X329618Y326482D01*
X321682Y326482D01*
X321682Y328518D01*
X321682Y333518D02*
X329618Y333518D01*
X329618Y331482D01*
X321682Y331482D01*
X321682Y333518D01*
X321682Y338518D02*
X329618Y338518D01*
X329618Y336482D01*
X321682Y336482D01*
X321682Y338518D01*
X321682Y343518D02*
X329618Y343518D01*
X329618Y341482D01*
X321682Y341482D01*
X321682Y343518D01*
X321682Y348518D02*
X329618Y348518D01*
X329618Y346482D01*
X321682Y346482D01*
X321682Y348518D01*
X321682Y353518D02*
X329618Y353518D01*
X329618Y351482D01*
X321682Y351482D01*
X321682Y353518D01*
D38*
X345000Y340000D03*
D37*
X358518Y506682D02*
X358518Y514618D01*
X358518Y506682D02*
X356482Y506682D01*
X356482Y514618D01*
X358518Y514618D01*
X358518Y509244D02*
X356482Y509244D01*
X356482Y511806D02*
X358518Y511806D01*
X358518Y514368D02*
X356482Y514368D01*
X353518Y514618D02*
X353518Y506682D01*
X351482Y506682D01*
X351482Y514618D01*
X353518Y514618D01*
X353518Y509244D02*
X351482Y509244D01*
X351482Y511806D02*
X353518Y511806D01*
X353518Y514368D02*
X351482Y514368D01*
X348518Y514618D02*
X348518Y506682D01*
X346482Y506682D01*
X346482Y514618D01*
X348518Y514618D01*
X348518Y509244D02*
X346482Y509244D01*
X346482Y511806D02*
X348518Y511806D01*
X348518Y514368D02*
X346482Y514368D01*
X343518Y514618D02*
X343518Y506682D01*
X341482Y506682D01*
X341482Y514618D01*
X343518Y514618D01*
X343518Y509244D02*
X341482Y509244D01*
X341482Y511806D02*
X343518Y511806D01*
X343518Y514368D02*
X341482Y514368D01*
X338518Y514618D02*
X338518Y506682D01*
X336482Y506682D01*
X336482Y514618D01*
X338518Y514618D01*
X338518Y509244D02*
X336482Y509244D01*
X336482Y511806D02*
X338518Y511806D01*
X338518Y514368D02*
X336482Y514368D01*
X333518Y514618D02*
X333518Y506682D01*
X331482Y506682D01*
X331482Y514618D01*
X333518Y514618D01*
X333518Y509244D02*
X331482Y509244D01*
X331482Y511806D02*
X333518Y511806D01*
X333518Y514368D02*
X331482Y514368D01*
X333518Y545382D02*
X333518Y553318D01*
X333518Y545382D02*
X331482Y545382D01*
X331482Y553318D01*
X333518Y553318D01*
X333518Y547944D02*
X331482Y547944D01*
X331482Y550506D02*
X333518Y550506D01*
X333518Y553068D02*
X331482Y553068D01*
X338518Y553318D02*
X338518Y545382D01*
X336482Y545382D01*
X336482Y553318D01*
X338518Y553318D01*
X338518Y547944D02*
X336482Y547944D01*
X336482Y550506D02*
X338518Y550506D01*
X338518Y553068D02*
X336482Y553068D01*
X343518Y553318D02*
X343518Y545382D01*
X341482Y545382D01*
X341482Y553318D01*
X343518Y553318D01*
X343518Y547944D02*
X341482Y547944D01*
X341482Y550506D02*
X343518Y550506D01*
X343518Y553068D02*
X341482Y553068D01*
X348518Y553318D02*
X348518Y545382D01*
X346482Y545382D01*
X346482Y553318D01*
X348518Y553318D01*
X348518Y547944D02*
X346482Y547944D01*
X346482Y550506D02*
X348518Y550506D01*
X348518Y553068D02*
X346482Y553068D01*
X353518Y553318D02*
X353518Y545382D01*
X351482Y545382D01*
X351482Y553318D01*
X353518Y553318D01*
X353518Y547944D02*
X351482Y547944D01*
X351482Y550506D02*
X353518Y550506D01*
X353518Y553068D02*
X351482Y553068D01*
X358518Y553318D02*
X358518Y545382D01*
X356482Y545382D01*
X356482Y553318D01*
X358518Y553318D01*
X358518Y547944D02*
X356482Y547944D01*
X356482Y550506D02*
X358518Y550506D01*
X358518Y553068D02*
X356482Y553068D01*
X360382Y543518D02*
X368318Y543518D01*
X368318Y541482D01*
X360382Y541482D01*
X360382Y543518D01*
X360382Y538518D02*
X368318Y538518D01*
X368318Y536482D01*
X360382Y536482D01*
X360382Y538518D01*
X360382Y533518D02*
X368318Y533518D01*
X368318Y531482D01*
X360382Y531482D01*
X360382Y533518D01*
X360382Y528518D02*
X368318Y528518D01*
X368318Y526482D01*
X360382Y526482D01*
X360382Y528518D01*
X360382Y523518D02*
X368318Y523518D01*
X368318Y521482D01*
X360382Y521482D01*
X360382Y523518D01*
X360382Y518518D02*
X368318Y518518D01*
X368318Y516482D01*
X360382Y516482D01*
X360382Y518518D01*
X329618Y518518D02*
X321682Y518518D01*
X329618Y518518D02*
X329618Y516482D01*
X321682Y516482D01*
X321682Y518518D01*
X321682Y523518D02*
X329618Y523518D01*
X329618Y521482D01*
X321682Y521482D01*
X321682Y523518D01*
X321682Y528518D02*
X329618Y528518D01*
X329618Y526482D01*
X321682Y526482D01*
X321682Y528518D01*
X321682Y533518D02*
X329618Y533518D01*
X329618Y531482D01*
X321682Y531482D01*
X321682Y533518D01*
X321682Y538518D02*
X329618Y538518D01*
X329618Y536482D01*
X321682Y536482D01*
X321682Y538518D01*
X321682Y543518D02*
X329618Y543518D01*
X329618Y541482D01*
X321682Y541482D01*
X321682Y543518D01*
D38*
X345000Y530000D03*
D11*
X612500Y62500D03*
X622500Y62500D03*
D29*
X400000Y35000D03*
X400000Y105000D03*
D34*
X703000Y172500D03*
X703000Y147500D03*
X703000Y122500D03*
X757000Y172500D03*
X757000Y147500D03*
X757000Y122500D03*
X593000Y172500D03*
X593000Y147500D03*
X593000Y122500D03*
X647000Y172500D03*
X647000Y147500D03*
X647000Y122500D03*
D11*
X375000Y27500D03*
X365000Y27500D03*
X457500Y60000D03*
X447500Y60000D03*
D39*
X747178Y814050D03*
X747178Y807700D03*
X747178Y801350D03*
X747178Y795000D03*
X747178Y788650D03*
X747178Y782300D03*
X747178Y775950D03*
X692822Y814050D03*
X692822Y807700D03*
X692822Y801350D03*
X692822Y795000D03*
X692822Y788650D03*
X692822Y782300D03*
X692822Y775950D03*
D12*
X782500Y790000D03*
X782500Y780000D03*
X782500Y810000D03*
X782500Y800000D03*
X772500Y782500D03*
X772500Y772500D03*
X772500Y805000D03*
X772500Y815000D03*
X667500Y785000D03*
X667500Y775000D03*
X667500Y805000D03*
X667500Y815000D03*
D14*
X760000Y784000D03*
X760000Y771000D03*
X760000Y803500D03*
X760000Y816500D03*
X680000Y786500D03*
X680000Y773500D03*
X680000Y803500D03*
X680000Y816500D03*
D11*
X680000Y827500D03*
X670000Y827500D03*
X680000Y762500D03*
X670000Y762500D03*
X760000Y760000D03*
X770000Y760000D03*
X760000Y827500D03*
X770000Y827500D03*
D40*
X577474Y759638D03*
X582554Y759638D03*
X587380Y759638D03*
X592460Y759638D03*
X597540Y759638D03*
X602620Y759638D03*
X607446Y759638D03*
X612526Y759638D03*
D41*
X619638Y752526D03*
X619638Y747446D03*
X619638Y742620D03*
X619638Y737540D03*
X619638Y732460D03*
X619638Y727380D03*
X619638Y722554D03*
X619638Y717474D03*
D40*
X612526Y710362D03*
X607446Y710362D03*
X602620Y710362D03*
X597540Y710362D03*
X592460Y710362D03*
X587380Y710362D03*
X582554Y710362D03*
X577474Y710362D03*
D41*
X570362Y717474D03*
X570362Y722554D03*
X570362Y727380D03*
X570362Y732460D03*
X570362Y737540D03*
X570362Y742620D03*
X570362Y747446D03*
X570362Y752526D03*
D42*
X595000Y735000D03*
D17*
X745000Y925000D03*
D18*
X720000Y925000D03*
X695000Y925000D03*
D19*
X675000Y855000D03*
X765000Y855000D03*
D43*
X636307Y774407D02*
X636307Y768593D01*
X631693Y768593D01*
X631693Y774407D01*
X636307Y774407D01*
X636307Y790593D02*
X636307Y796407D01*
X636307Y790593D02*
X631693Y790593D01*
X631693Y796407D01*
X636307Y796407D01*
X653307Y796407D02*
X653307Y790593D01*
X648693Y790593D01*
X648693Y796407D01*
X653307Y796407D01*
X653307Y774407D02*
X653307Y768593D01*
X648693Y768593D01*
X648693Y774407D01*
X653307Y774407D01*
D15*
X636000Y757500D03*
X649000Y757500D03*
X649000Y807500D03*
X636000Y807500D03*
D44*
X280250Y735750D03*
X273750Y735750D03*
X267250Y735750D03*
X260750Y735750D03*
X254250Y735750D03*
X247750Y735750D03*
X241250Y735750D03*
X234750Y735750D03*
X234750Y794250D03*
X241250Y794250D03*
X247750Y794250D03*
X254250Y794250D03*
X260750Y794250D03*
X267250Y794250D03*
X273750Y794250D03*
X280250Y794250D03*
D12*
X280000Y710000D03*
X280000Y720000D03*
D11*
X280000Y822500D03*
X290000Y822500D03*
X280000Y812500D03*
X290000Y812500D03*
D15*
X291500Y832500D03*
X278500Y832500D03*
D45*
X237500Y839500D03*
X237500Y820500D03*
X265000Y820500D03*
X265000Y839500D03*
X265000Y717000D03*
X265000Y698000D03*
X237500Y698000D03*
X237500Y717000D03*
D17*
X590000Y925000D03*
D18*
X565000Y925000D03*
X540000Y925000D03*
D19*
X520000Y855000D03*
X610000Y855000D03*
D17*
X280000Y925000D03*
D18*
X255000Y925000D03*
X230000Y925000D03*
D19*
X210000Y855000D03*
X300000Y855000D03*
D17*
X435000Y925000D03*
D18*
X410000Y925000D03*
X385000Y925000D03*
D19*
X365000Y855000D03*
X455000Y855000D03*
D24*
X212500Y751154D03*
X207500Y751154D03*
X202500Y751154D03*
X197500Y751154D03*
X197500Y778846D03*
X202500Y778846D03*
X207500Y778846D03*
X212500Y778846D03*
D25*
X205000Y765000D03*
D11*
X200000Y815000D03*
X210000Y815000D03*
X210000Y795000D03*
X200000Y795000D03*
D12*
X220000Y797500D03*
X220000Y787500D03*
D11*
X290000Y800000D03*
X300000Y800000D03*
D15*
X211500Y735000D03*
X198500Y735000D03*
D11*
X200000Y722500D03*
X210000Y722500D03*
X200000Y805000D03*
X210000Y805000D03*
D46*
X207046Y1334000D02*
X199734Y1334000D01*
X198734Y1330000D02*
X207046Y1330000D01*
X207046Y1326000D02*
X198734Y1326000D01*
X198734Y1322000D02*
X207046Y1322000D01*
X207046Y1318000D02*
X198734Y1318000D01*
X198734Y1314000D02*
X207046Y1314000D01*
X207046Y1310000D02*
X198734Y1310000D01*
X199734Y1306000D02*
X207046Y1306000D01*
X196500Y1302766D02*
X196500Y1295454D01*
X192500Y1295454D02*
X192500Y1303766D01*
X188500Y1303766D02*
X188500Y1295454D01*
X184500Y1295454D02*
X184500Y1303766D01*
X180500Y1303766D02*
X180500Y1295454D01*
X176500Y1295454D02*
X176500Y1303766D01*
X172500Y1303766D02*
X172500Y1295454D01*
X168500Y1295454D02*
X168500Y1302766D01*
X166266Y1306000D02*
X157954Y1306000D01*
X157954Y1310000D02*
X166266Y1310000D01*
X166266Y1314000D02*
X157954Y1314000D01*
X157954Y1318000D02*
X166266Y1318000D01*
X166266Y1322000D02*
X157954Y1322000D01*
X157954Y1326000D02*
X166266Y1326000D01*
X166266Y1330000D02*
X157954Y1330000D01*
X157954Y1334000D02*
X165266Y1334000D01*
X168500Y1337234D02*
X168500Y1344546D01*
X172500Y1344546D02*
X172500Y1336234D01*
X176500Y1336234D02*
X176500Y1344546D01*
X180500Y1344546D02*
X180500Y1336234D01*
X184500Y1336234D02*
X184500Y1344546D01*
X188500Y1344546D02*
X188500Y1336234D01*
X192500Y1336234D02*
X192500Y1344546D01*
X196500Y1344546D02*
X196500Y1337234D01*
D47*
X182500Y1320000D03*
D12*
X197500Y1355000D03*
X197500Y1365000D03*
D11*
X185000Y1355000D03*
X175000Y1355000D03*
D15*
X164000Y1375000D03*
X151000Y1375000D03*
D12*
X152500Y1342500D03*
X152500Y1352500D03*
D15*
X173500Y1367500D03*
X186500Y1367500D03*
D11*
X227500Y1342500D03*
X217500Y1342500D03*
X227500Y1332500D03*
X217500Y1332500D03*
X227500Y1352500D03*
X217500Y1352500D03*
D48*
X211500Y1365000D03*
X228500Y1365000D03*
D12*
X262500Y1292500D03*
X262500Y1302500D03*
X227500Y1272500D03*
X227500Y1282500D03*
X237500Y1272500D03*
X237500Y1282500D03*
D14*
X215000Y1284000D03*
X215000Y1271000D03*
D12*
X202500Y1272500D03*
X202500Y1282500D03*
X192500Y1272500D03*
X192500Y1282500D03*
X182500Y1272500D03*
X182500Y1282500D03*
D49*
X160000Y1283500D03*
X160000Y1266500D03*
D12*
X145000Y1332500D03*
X145000Y1322500D03*
X135000Y1332500D03*
X135000Y1322500D03*
D50*
X114600Y1295000D03*
D51*
X138900Y1309000D03*
X138900Y1281000D03*
D17*
X230000Y1470000D03*
D18*
X205000Y1470000D03*
X180000Y1470000D03*
D19*
X160000Y1400000D03*
X250000Y1400000D03*
D17*
X180000Y1170000D03*
D20*
X205000Y1170000D03*
X230000Y1170000D03*
D19*
X250000Y1240000D03*
X160000Y1240000D03*
D17*
X55000Y1170000D03*
D20*
X80000Y1170000D03*
X105000Y1170000D03*
D19*
X125000Y1240000D03*
X35000Y1240000D03*
D50*
X235000Y1294600D03*
D52*
X221000Y1318900D03*
X249000Y1318900D03*
D17*
X362500Y1470000D03*
D18*
X337500Y1470000D03*
X312500Y1470000D03*
D19*
X292500Y1400000D03*
X382500Y1400000D03*
D46*
X454734Y1334000D02*
X462046Y1334000D01*
X462046Y1330000D02*
X453734Y1330000D01*
X453734Y1326000D02*
X462046Y1326000D01*
X462046Y1322000D02*
X453734Y1322000D01*
X453734Y1318000D02*
X462046Y1318000D01*
X462046Y1314000D02*
X453734Y1314000D01*
X453734Y1310000D02*
X462046Y1310000D01*
X462046Y1306000D02*
X454734Y1306000D01*
X451500Y1302766D02*
X451500Y1295454D01*
X447500Y1295454D02*
X447500Y1303766D01*
X443500Y1303766D02*
X443500Y1295454D01*
X439500Y1295454D02*
X439500Y1303766D01*
X435500Y1303766D02*
X435500Y1295454D01*
X431500Y1295454D02*
X431500Y1303766D01*
X427500Y1303766D02*
X427500Y1295454D01*
X423500Y1295454D02*
X423500Y1302766D01*
X421266Y1306000D02*
X412954Y1306000D01*
X412954Y1310000D02*
X421266Y1310000D01*
X421266Y1314000D02*
X412954Y1314000D01*
X412954Y1318000D02*
X421266Y1318000D01*
X421266Y1322000D02*
X412954Y1322000D01*
X412954Y1326000D02*
X421266Y1326000D01*
X421266Y1330000D02*
X412954Y1330000D01*
X412954Y1334000D02*
X420266Y1334000D01*
X423500Y1337234D02*
X423500Y1344546D01*
X427500Y1344546D02*
X427500Y1336234D01*
X431500Y1336234D02*
X431500Y1344546D01*
X435500Y1344546D02*
X435500Y1336234D01*
X439500Y1336234D02*
X439500Y1344546D01*
X443500Y1344546D02*
X443500Y1336234D01*
X447500Y1336234D02*
X447500Y1344546D01*
X451500Y1344546D02*
X451500Y1337234D01*
D47*
X437500Y1320000D03*
D12*
X452500Y1355000D03*
X452500Y1365000D03*
D11*
X440000Y1355000D03*
X430000Y1355000D03*
D15*
X419000Y1372500D03*
X406000Y1372500D03*
D12*
X407500Y1340000D03*
X407500Y1350000D03*
D15*
X428500Y1367500D03*
X441500Y1367500D03*
D11*
X482500Y1345000D03*
X472500Y1345000D03*
X482500Y1335000D03*
X472500Y1335000D03*
X482500Y1355000D03*
X472500Y1355000D03*
D48*
X466500Y1367500D03*
X483500Y1367500D03*
D12*
X517500Y1302500D03*
X517500Y1292500D03*
X487500Y1272500D03*
X487500Y1282500D03*
X497500Y1272500D03*
X497500Y1282500D03*
D14*
X475000Y1284000D03*
X475000Y1271000D03*
D12*
X462500Y1275000D03*
X462500Y1285000D03*
X452500Y1275000D03*
X452500Y1285000D03*
X442500Y1275000D03*
X442500Y1285000D03*
D49*
X430000Y1286000D03*
X430000Y1269000D03*
D12*
X390000Y1330000D03*
X390000Y1320000D03*
X375000Y1330000D03*
X375000Y1320000D03*
D50*
X367100Y1357500D03*
D51*
X391400Y1371500D03*
X391400Y1343500D03*
D17*
X487500Y1470000D03*
D18*
X462500Y1470000D03*
X437500Y1470000D03*
D19*
X417500Y1400000D03*
X507500Y1400000D03*
D17*
X437500Y1170000D03*
D20*
X462500Y1170000D03*
X487500Y1170000D03*
D19*
X507500Y1240000D03*
X417500Y1240000D03*
D17*
X312500Y1170000D03*
D20*
X337500Y1170000D03*
X362500Y1170000D03*
D19*
X382500Y1240000D03*
X292500Y1240000D03*
D50*
X490000Y1294600D03*
D52*
X476000Y1318900D03*
X504000Y1318900D03*
D17*
X620000Y1470000D03*
D18*
X595000Y1470000D03*
X570000Y1470000D03*
D19*
X550000Y1400000D03*
X640000Y1400000D03*
D46*
X714734Y1334000D02*
X722046Y1334000D01*
X722046Y1330000D02*
X713734Y1330000D01*
X713734Y1326000D02*
X722046Y1326000D01*
X722046Y1322000D02*
X713734Y1322000D01*
X713734Y1318000D02*
X722046Y1318000D01*
X722046Y1314000D02*
X713734Y1314000D01*
X713734Y1310000D02*
X722046Y1310000D01*
X722046Y1306000D02*
X714734Y1306000D01*
X711500Y1302766D02*
X711500Y1295454D01*
X707500Y1295454D02*
X707500Y1303766D01*
X703500Y1303766D02*
X703500Y1295454D01*
X699500Y1295454D02*
X699500Y1303766D01*
X695500Y1303766D02*
X695500Y1295454D01*
X691500Y1295454D02*
X691500Y1303766D01*
X687500Y1303766D02*
X687500Y1295454D01*
X683500Y1295454D02*
X683500Y1302766D01*
X681266Y1306000D02*
X672954Y1306000D01*
X672954Y1310000D02*
X681266Y1310000D01*
X681266Y1314000D02*
X672954Y1314000D01*
X672954Y1318000D02*
X681266Y1318000D01*
X681266Y1322000D02*
X672954Y1322000D01*
X672954Y1326000D02*
X681266Y1326000D01*
X681266Y1330000D02*
X672954Y1330000D01*
X672954Y1334000D02*
X680266Y1334000D01*
X683500Y1337234D02*
X683500Y1344546D01*
X687500Y1344546D02*
X687500Y1336234D01*
X691500Y1336234D02*
X691500Y1344546D01*
X695500Y1344546D02*
X695500Y1336234D01*
X699500Y1336234D02*
X699500Y1344546D01*
X703500Y1344546D02*
X703500Y1336234D01*
X707500Y1336234D02*
X707500Y1344546D01*
X711500Y1344546D02*
X711500Y1337234D01*
D47*
X697500Y1320000D03*
D12*
X712500Y1355000D03*
X712500Y1365000D03*
D11*
X700000Y1355000D03*
X690000Y1355000D03*
D15*
X679000Y1372500D03*
X666000Y1372500D03*
D12*
X667500Y1340000D03*
X667500Y1350000D03*
D15*
X688500Y1367500D03*
X701500Y1367500D03*
D11*
X742500Y1345000D03*
X732500Y1345000D03*
X742500Y1335000D03*
X732500Y1335000D03*
X742500Y1355000D03*
X732500Y1355000D03*
D48*
X726500Y1367500D03*
X743500Y1367500D03*
D12*
X777500Y1302500D03*
X777500Y1292500D03*
X747500Y1272500D03*
X747500Y1282500D03*
X757500Y1272500D03*
X757500Y1282500D03*
D14*
X735000Y1284000D03*
X735000Y1271000D03*
D12*
X722500Y1275000D03*
X722500Y1285000D03*
X712500Y1275000D03*
X712500Y1285000D03*
X702500Y1275000D03*
X702500Y1285000D03*
D49*
X690000Y1286000D03*
X690000Y1269000D03*
D12*
X650000Y1330000D03*
X650000Y1320000D03*
X635000Y1330000D03*
X635000Y1320000D03*
D50*
X627100Y1357500D03*
D51*
X651400Y1371500D03*
X651400Y1343500D03*
D17*
X745000Y1470000D03*
D18*
X720000Y1470000D03*
X695000Y1470000D03*
D19*
X675000Y1400000D03*
X765000Y1400000D03*
D17*
X695000Y1170000D03*
D20*
X720000Y1170000D03*
X745000Y1170000D03*
D19*
X765000Y1240000D03*
X675000Y1240000D03*
D17*
X570000Y1170000D03*
D20*
X595000Y1170000D03*
X620000Y1170000D03*
D19*
X640000Y1240000D03*
X550000Y1240000D03*
D50*
X750000Y1294600D03*
D52*
X736000Y1318900D03*
X764000Y1318900D03*
D11*
X312500Y1285000D03*
X302500Y1285000D03*
D12*
X290000Y1295000D03*
X290000Y1285000D03*
D15*
X314000Y1297500D03*
X301000Y1297500D03*
X309000Y1372500D03*
X296000Y1372500D03*
D12*
X275000Y1370000D03*
X275000Y1360000D03*
X285000Y1360000D03*
X285000Y1370000D03*
X320000Y1360000D03*
X320000Y1370000D03*
D16*
X388500Y1287000D03*
X366500Y1277500D03*
X388500Y1268000D03*
D12*
X365000Y1307500D03*
X365000Y1297500D03*
X347500Y1272500D03*
X347500Y1282500D03*
X337500Y1282500D03*
X337500Y1272500D03*
D15*
X336000Y1367500D03*
X349000Y1367500D03*
D48*
X311000Y1272500D03*
X294000Y1272500D03*
D53*
X352250Y1295750D03*
X345750Y1295750D03*
X339250Y1295750D03*
X332750Y1295750D03*
X332750Y1354250D03*
X339250Y1354250D03*
X345750Y1354250D03*
X352250Y1354250D03*
D24*
X310000Y1321154D03*
X305000Y1321154D03*
X300000Y1321154D03*
X295000Y1321154D03*
X295000Y1348846D03*
X300000Y1348846D03*
X305000Y1348846D03*
X310000Y1348846D03*
D25*
X302500Y1335000D03*
D11*
X572500Y1285000D03*
X562500Y1285000D03*
D12*
X550000Y1295000D03*
X550000Y1285000D03*
D15*
X574000Y1297500D03*
X561000Y1297500D03*
X569000Y1372500D03*
X556000Y1372500D03*
D12*
X535000Y1370000D03*
X535000Y1360000D03*
X545000Y1360000D03*
X545000Y1370000D03*
X580000Y1360000D03*
X580000Y1370000D03*
D16*
X648500Y1287000D03*
X626500Y1277500D03*
X648500Y1268000D03*
D12*
X625000Y1307500D03*
X625000Y1297500D03*
X607500Y1272500D03*
X607500Y1282500D03*
X597500Y1282500D03*
X597500Y1272500D03*
D15*
X596000Y1367500D03*
X609000Y1367500D03*
D48*
X571000Y1272500D03*
X554000Y1272500D03*
D53*
X612250Y1295750D03*
X605750Y1295750D03*
X599250Y1295750D03*
X592750Y1295750D03*
X592750Y1354250D03*
X599250Y1354250D03*
X605750Y1354250D03*
X612250Y1354250D03*
D24*
X570000Y1321154D03*
X565000Y1321154D03*
X560000Y1321154D03*
X555000Y1321154D03*
X555000Y1348846D03*
X560000Y1348846D03*
X565000Y1348846D03*
X570000Y1348846D03*
D25*
X562500Y1335000D03*
D34*
X212500Y1147500D03*
X212500Y1127500D03*
X212500Y1107500D03*
X257500Y1147500D03*
X257500Y1127500D03*
X257500Y1107500D03*
X287500Y1147500D03*
X287500Y1127500D03*
X287500Y1107500D03*
X332500Y1147500D03*
X332500Y1127500D03*
X332500Y1107500D03*
X512500Y1147500D03*
X512500Y1127500D03*
X512500Y1107500D03*
X557500Y1147500D03*
X557500Y1127500D03*
X557500Y1107500D03*
X587500Y1147500D03*
X587500Y1127500D03*
X587500Y1107500D03*
X632500Y1147500D03*
X632500Y1127500D03*
X632500Y1107500D03*
X362500Y1147500D03*
X362500Y1127500D03*
X362500Y1107500D03*
X407500Y1147500D03*
X407500Y1127500D03*
X407500Y1107500D03*
X662500Y1147500D03*
X662500Y1127500D03*
X662500Y1107500D03*
X707500Y1147500D03*
X707500Y1127500D03*
X707500Y1107500D03*
X437500Y1147500D03*
X437500Y1127500D03*
X437500Y1107500D03*
X482500Y1147500D03*
X482500Y1127500D03*
X482500Y1107500D03*
X737500Y1147500D03*
X737500Y1127500D03*
X737500Y1107500D03*
X782500Y1147500D03*
X782500Y1127500D03*
X782500Y1107500D03*
X137500Y1147500D03*
X137500Y1127500D03*
X137500Y1107500D03*
X182500Y1147500D03*
X182500Y1127500D03*
X182500Y1107500D03*
D15*
X394000Y1302500D03*
X381000Y1302500D03*
D14*
X405000Y1286500D03*
X405000Y1273500D03*
D12*
X417500Y1275000D03*
X417500Y1285000D03*
X677500Y1275000D03*
X677500Y1285000D03*
D15*
X654000Y1302500D03*
X641000Y1302500D03*
D14*
X665000Y1286500D03*
X665000Y1273500D03*
D54*
X664095Y1438705D02*
X671305Y1438705D01*
X671305Y1436295D01*
X664095Y1436295D01*
X664095Y1438705D01*
X664095Y1438407D02*
X671305Y1438407D01*
X671305Y1433705D02*
X664095Y1433705D01*
X671305Y1433705D02*
X671305Y1431295D01*
X664095Y1431295D01*
X664095Y1433705D01*
X664095Y1433407D02*
X671305Y1433407D01*
X671305Y1428705D02*
X664095Y1428705D01*
X671305Y1428705D02*
X671305Y1426295D01*
X664095Y1426295D01*
X664095Y1428705D01*
X664095Y1428407D02*
X671305Y1428407D01*
X671305Y1423705D02*
X664095Y1423705D01*
X671305Y1423705D02*
X671305Y1421295D01*
X664095Y1421295D01*
X664095Y1423705D01*
X664095Y1423407D02*
X671305Y1423407D01*
X650905Y1421295D02*
X643695Y1421295D01*
X643695Y1423705D01*
X650905Y1423705D01*
X650905Y1421295D01*
X650905Y1423407D02*
X643695Y1423407D01*
X643695Y1426295D02*
X650905Y1426295D01*
X643695Y1426295D02*
X643695Y1428705D01*
X650905Y1428705D01*
X650905Y1426295D01*
X650905Y1428407D02*
X643695Y1428407D01*
X643695Y1431295D02*
X650905Y1431295D01*
X643695Y1431295D02*
X643695Y1433705D01*
X650905Y1433705D01*
X650905Y1431295D01*
X650905Y1433407D02*
X643695Y1433407D01*
X643695Y1436295D02*
X650905Y1436295D01*
X643695Y1436295D02*
X643695Y1438705D01*
X650905Y1438705D01*
X650905Y1436295D01*
X650905Y1438407D02*
X643695Y1438407D01*
D55*
X657500Y1430000D03*
D54*
X664095Y1198705D02*
X671305Y1198705D01*
X671305Y1196295D01*
X664095Y1196295D01*
X664095Y1198705D01*
X664095Y1198407D02*
X671305Y1198407D01*
X671305Y1193705D02*
X664095Y1193705D01*
X671305Y1193705D02*
X671305Y1191295D01*
X664095Y1191295D01*
X664095Y1193705D01*
X664095Y1193407D02*
X671305Y1193407D01*
X671305Y1188705D02*
X664095Y1188705D01*
X671305Y1188705D02*
X671305Y1186295D01*
X664095Y1186295D01*
X664095Y1188705D01*
X664095Y1188407D02*
X671305Y1188407D01*
X671305Y1183705D02*
X664095Y1183705D01*
X671305Y1183705D02*
X671305Y1181295D01*
X664095Y1181295D01*
X664095Y1183705D01*
X664095Y1183407D02*
X671305Y1183407D01*
X650905Y1181295D02*
X643695Y1181295D01*
X643695Y1183705D01*
X650905Y1183705D01*
X650905Y1181295D01*
X650905Y1183407D02*
X643695Y1183407D01*
X643695Y1186295D02*
X650905Y1186295D01*
X643695Y1186295D02*
X643695Y1188705D01*
X650905Y1188705D01*
X650905Y1186295D01*
X650905Y1188407D02*
X643695Y1188407D01*
X643695Y1191295D02*
X650905Y1191295D01*
X643695Y1191295D02*
X643695Y1193705D01*
X650905Y1193705D01*
X650905Y1191295D01*
X650905Y1193407D02*
X643695Y1193407D01*
X643695Y1196295D02*
X650905Y1196295D01*
X643695Y1196295D02*
X643695Y1198705D01*
X650905Y1198705D01*
X650905Y1196295D01*
X650905Y1198407D02*
X643695Y1198407D01*
D55*
X657500Y1190000D03*
D54*
X542555Y1198705D02*
X535345Y1198705D01*
X542555Y1198705D02*
X542555Y1196295D01*
X535345Y1196295D01*
X535345Y1198705D01*
X535345Y1198407D02*
X542555Y1198407D01*
X542555Y1193705D02*
X535345Y1193705D01*
X542555Y1193705D02*
X542555Y1191295D01*
X535345Y1191295D01*
X535345Y1193705D01*
X535345Y1193407D02*
X542555Y1193407D01*
X542555Y1188705D02*
X535345Y1188705D01*
X542555Y1188705D02*
X542555Y1186295D01*
X535345Y1186295D01*
X535345Y1188705D01*
X535345Y1188407D02*
X542555Y1188407D01*
X542555Y1183705D02*
X535345Y1183705D01*
X542555Y1183705D02*
X542555Y1181295D01*
X535345Y1181295D01*
X535345Y1183705D01*
X535345Y1183407D02*
X542555Y1183407D01*
X522155Y1181295D02*
X514945Y1181295D01*
X514945Y1183705D01*
X522155Y1183705D01*
X522155Y1181295D01*
X522155Y1183407D02*
X514945Y1183407D01*
X514945Y1186295D02*
X522155Y1186295D01*
X514945Y1186295D02*
X514945Y1188705D01*
X522155Y1188705D01*
X522155Y1186295D01*
X522155Y1188407D02*
X514945Y1188407D01*
X514945Y1191295D02*
X522155Y1191295D01*
X514945Y1191295D02*
X514945Y1193705D01*
X522155Y1193705D01*
X522155Y1191295D01*
X522155Y1193407D02*
X514945Y1193407D01*
X514945Y1196295D02*
X522155Y1196295D01*
X514945Y1196295D02*
X514945Y1198705D01*
X522155Y1198705D01*
X522155Y1196295D01*
X522155Y1198407D02*
X514945Y1198407D01*
D55*
X528750Y1190000D03*
D54*
X413805Y1438705D02*
X406595Y1438705D01*
X413805Y1438705D02*
X413805Y1436295D01*
X406595Y1436295D01*
X406595Y1438705D01*
X406595Y1438407D02*
X413805Y1438407D01*
X413805Y1433705D02*
X406595Y1433705D01*
X413805Y1433705D02*
X413805Y1431295D01*
X406595Y1431295D01*
X406595Y1433705D01*
X406595Y1433407D02*
X413805Y1433407D01*
X413805Y1428705D02*
X406595Y1428705D01*
X413805Y1428705D02*
X413805Y1426295D01*
X406595Y1426295D01*
X406595Y1428705D01*
X406595Y1428407D02*
X413805Y1428407D01*
X413805Y1423705D02*
X406595Y1423705D01*
X413805Y1423705D02*
X413805Y1421295D01*
X406595Y1421295D01*
X406595Y1423705D01*
X406595Y1423407D02*
X413805Y1423407D01*
X393405Y1421295D02*
X386195Y1421295D01*
X386195Y1423705D01*
X393405Y1423705D01*
X393405Y1421295D01*
X393405Y1423407D02*
X386195Y1423407D01*
X386195Y1426295D02*
X393405Y1426295D01*
X386195Y1426295D02*
X386195Y1428705D01*
X393405Y1428705D01*
X393405Y1426295D01*
X393405Y1428407D02*
X386195Y1428407D01*
X386195Y1431295D02*
X393405Y1431295D01*
X386195Y1431295D02*
X386195Y1433705D01*
X393405Y1433705D01*
X393405Y1431295D01*
X393405Y1433407D02*
X386195Y1433407D01*
X386195Y1436295D02*
X393405Y1436295D01*
X386195Y1436295D02*
X386195Y1438705D01*
X393405Y1438705D01*
X393405Y1436295D01*
X393405Y1438407D02*
X386195Y1438407D01*
D55*
X400000Y1430000D03*
D54*
X406595Y1198705D02*
X413805Y1198705D01*
X413805Y1196295D01*
X406595Y1196295D01*
X406595Y1198705D01*
X406595Y1198407D02*
X413805Y1198407D01*
X413805Y1193705D02*
X406595Y1193705D01*
X413805Y1193705D02*
X413805Y1191295D01*
X406595Y1191295D01*
X406595Y1193705D01*
X406595Y1193407D02*
X413805Y1193407D01*
X413805Y1188705D02*
X406595Y1188705D01*
X413805Y1188705D02*
X413805Y1186295D01*
X406595Y1186295D01*
X406595Y1188705D01*
X406595Y1188407D02*
X413805Y1188407D01*
X413805Y1183705D02*
X406595Y1183705D01*
X413805Y1183705D02*
X413805Y1181295D01*
X406595Y1181295D01*
X406595Y1183705D01*
X406595Y1183407D02*
X413805Y1183407D01*
X393405Y1181295D02*
X386195Y1181295D01*
X386195Y1183705D01*
X393405Y1183705D01*
X393405Y1181295D01*
X393405Y1183407D02*
X386195Y1183407D01*
X386195Y1186295D02*
X393405Y1186295D01*
X386195Y1186295D02*
X386195Y1188705D01*
X393405Y1188705D01*
X393405Y1186295D01*
X393405Y1188407D02*
X386195Y1188407D01*
X386195Y1191295D02*
X393405Y1191295D01*
X386195Y1191295D02*
X386195Y1193705D01*
X393405Y1193705D01*
X393405Y1191295D01*
X393405Y1193407D02*
X386195Y1193407D01*
X386195Y1196295D02*
X393405Y1196295D01*
X386195Y1196295D02*
X386195Y1198705D01*
X393405Y1198705D01*
X393405Y1196295D01*
X393405Y1198407D02*
X386195Y1198407D01*
D55*
X400000Y1190000D03*
D54*
X285055Y1198705D02*
X277845Y1198705D01*
X285055Y1198705D02*
X285055Y1196295D01*
X277845Y1196295D01*
X277845Y1198705D01*
X277845Y1198407D02*
X285055Y1198407D01*
X285055Y1193705D02*
X277845Y1193705D01*
X285055Y1193705D02*
X285055Y1191295D01*
X277845Y1191295D01*
X277845Y1193705D01*
X277845Y1193407D02*
X285055Y1193407D01*
X285055Y1188705D02*
X277845Y1188705D01*
X285055Y1188705D02*
X285055Y1186295D01*
X277845Y1186295D01*
X277845Y1188705D01*
X277845Y1188407D02*
X285055Y1188407D01*
X285055Y1183705D02*
X277845Y1183705D01*
X285055Y1183705D02*
X285055Y1181295D01*
X277845Y1181295D01*
X277845Y1183705D01*
X277845Y1183407D02*
X285055Y1183407D01*
X264655Y1181295D02*
X257445Y1181295D01*
X257445Y1183705D01*
X264655Y1183705D01*
X264655Y1181295D01*
X264655Y1183407D02*
X257445Y1183407D01*
X257445Y1186295D02*
X264655Y1186295D01*
X257445Y1186295D02*
X257445Y1188705D01*
X264655Y1188705D01*
X264655Y1186295D01*
X264655Y1188407D02*
X257445Y1188407D01*
X257445Y1191295D02*
X264655Y1191295D01*
X257445Y1191295D02*
X257445Y1193705D01*
X264655Y1193705D01*
X264655Y1191295D01*
X264655Y1193407D02*
X257445Y1193407D01*
X257445Y1196295D02*
X264655Y1196295D01*
X257445Y1196295D02*
X257445Y1198705D01*
X264655Y1198705D01*
X264655Y1196295D01*
X264655Y1198407D02*
X257445Y1198407D01*
D55*
X271250Y1190000D03*
D54*
X135905Y1461295D02*
X128695Y1461295D01*
X128695Y1463705D01*
X135905Y1463705D01*
X135905Y1461295D01*
X135905Y1463407D02*
X128695Y1463407D01*
X128695Y1466295D02*
X135905Y1466295D01*
X128695Y1466295D02*
X128695Y1468705D01*
X135905Y1468705D01*
X135905Y1466295D01*
X135905Y1468407D02*
X128695Y1468407D01*
X128695Y1471295D02*
X135905Y1471295D01*
X128695Y1471295D02*
X128695Y1473705D01*
X135905Y1473705D01*
X135905Y1471295D01*
X135905Y1473407D02*
X128695Y1473407D01*
X128695Y1476295D02*
X135905Y1476295D01*
X128695Y1476295D02*
X128695Y1478705D01*
X135905Y1478705D01*
X135905Y1476295D01*
X135905Y1478407D02*
X128695Y1478407D01*
X149095Y1478705D02*
X156305Y1478705D01*
X156305Y1476295D01*
X149095Y1476295D01*
X149095Y1478705D01*
X149095Y1478407D02*
X156305Y1478407D01*
X156305Y1473705D02*
X149095Y1473705D01*
X156305Y1473705D02*
X156305Y1471295D01*
X149095Y1471295D01*
X149095Y1473705D01*
X149095Y1473407D02*
X156305Y1473407D01*
X156305Y1468705D02*
X149095Y1468705D01*
X156305Y1468705D02*
X156305Y1466295D01*
X149095Y1466295D01*
X149095Y1468705D01*
X149095Y1468407D02*
X156305Y1468407D01*
X156305Y1463705D02*
X149095Y1463705D01*
X156305Y1463705D02*
X156305Y1461295D01*
X149095Y1461295D01*
X149095Y1463705D01*
X149095Y1463407D02*
X156305Y1463407D01*
D55*
X142500Y1470000D03*
D54*
X149095Y1198705D02*
X156305Y1198705D01*
X156305Y1196295D01*
X149095Y1196295D01*
X149095Y1198705D01*
X149095Y1198407D02*
X156305Y1198407D01*
X156305Y1193705D02*
X149095Y1193705D01*
X156305Y1193705D02*
X156305Y1191295D01*
X149095Y1191295D01*
X149095Y1193705D01*
X149095Y1193407D02*
X156305Y1193407D01*
X156305Y1188705D02*
X149095Y1188705D01*
X156305Y1188705D02*
X156305Y1186295D01*
X149095Y1186295D01*
X149095Y1188705D01*
X149095Y1188407D02*
X156305Y1188407D01*
X156305Y1183705D02*
X149095Y1183705D01*
X156305Y1183705D02*
X156305Y1181295D01*
X149095Y1181295D01*
X149095Y1183705D01*
X149095Y1183407D02*
X156305Y1183407D01*
X135905Y1181295D02*
X128695Y1181295D01*
X128695Y1183705D01*
X135905Y1183705D01*
X135905Y1181295D01*
X135905Y1183407D02*
X128695Y1183407D01*
X128695Y1186295D02*
X135905Y1186295D01*
X128695Y1186295D02*
X128695Y1188705D01*
X135905Y1188705D01*
X135905Y1186295D01*
X135905Y1188407D02*
X128695Y1188407D01*
X128695Y1191295D02*
X135905Y1191295D01*
X128695Y1191295D02*
X128695Y1193705D01*
X135905Y1193705D01*
X135905Y1191295D01*
X135905Y1193407D02*
X128695Y1193407D01*
X128695Y1196295D02*
X135905Y1196295D01*
X128695Y1196295D02*
X128695Y1198705D01*
X135905Y1198705D01*
X135905Y1196295D01*
X135905Y1198407D02*
X128695Y1198407D01*
D55*
X142500Y1190000D03*
D54*
X86305Y1211205D02*
X79095Y1211205D01*
X86305Y1211205D02*
X86305Y1208795D01*
X79095Y1208795D01*
X79095Y1211205D01*
X79095Y1210907D02*
X86305Y1210907D01*
X86305Y1206205D02*
X79095Y1206205D01*
X86305Y1206205D02*
X86305Y1203795D01*
X79095Y1203795D01*
X79095Y1206205D01*
X79095Y1205907D02*
X86305Y1205907D01*
X86305Y1201205D02*
X79095Y1201205D01*
X86305Y1201205D02*
X86305Y1198795D01*
X79095Y1198795D01*
X79095Y1201205D01*
X79095Y1200907D02*
X86305Y1200907D01*
X86305Y1196205D02*
X79095Y1196205D01*
X86305Y1196205D02*
X86305Y1193795D01*
X79095Y1193795D01*
X79095Y1196205D01*
X79095Y1195907D02*
X86305Y1195907D01*
X65905Y1193795D02*
X58695Y1193795D01*
X58695Y1196205D01*
X65905Y1196205D01*
X65905Y1193795D01*
X65905Y1195907D02*
X58695Y1195907D01*
X58695Y1198795D02*
X65905Y1198795D01*
X58695Y1198795D02*
X58695Y1201205D01*
X65905Y1201205D01*
X65905Y1198795D01*
X65905Y1200907D02*
X58695Y1200907D01*
X58695Y1203795D02*
X65905Y1203795D01*
X58695Y1203795D02*
X58695Y1206205D01*
X65905Y1206205D01*
X65905Y1203795D01*
X65905Y1205907D02*
X58695Y1205907D01*
X58695Y1208795D02*
X65905Y1208795D01*
X58695Y1208795D02*
X58695Y1211205D01*
X65905Y1211205D01*
X65905Y1208795D01*
X65905Y1210907D02*
X58695Y1210907D01*
D55*
X72500Y1202500D03*
D56*
X12500Y715000D03*
X12500Y695000D03*
X12500Y675000D03*
X100000Y608500D03*
X120000Y608500D03*
X80000Y608500D03*
D57*
X92234Y815000D03*
X92234Y805000D03*
X92234Y795000D03*
X92234Y785000D03*
X92234Y775000D03*
X42766Y775000D03*
X42766Y785000D03*
X42766Y795000D03*
X42766Y805000D03*
X42766Y815000D03*
D11*
X120000Y815000D03*
X110000Y815000D03*
D15*
X121500Y827500D03*
X108500Y827500D03*
D11*
X110000Y805000D03*
X120000Y805000D03*
X135000Y745000D03*
X125000Y745000D03*
D58*
X125000Y789500D03*
D23*
X135000Y757000D03*
X115000Y757000D03*
D11*
X92500Y740000D03*
X102500Y740000D03*
D15*
X81500Y750000D03*
X68500Y750000D03*
D11*
X92500Y750000D03*
X102500Y750000D03*
X15000Y815000D03*
X25000Y815000D03*
D15*
X13500Y827500D03*
X26500Y827500D03*
D11*
X25000Y805000D03*
X15000Y805000D03*
D26*
X155000Y826000D03*
X145500Y804000D03*
X164500Y804000D03*
D15*
X148500Y777500D03*
X161500Y777500D03*
X148500Y790000D03*
X161500Y790000D03*
D11*
X150000Y765000D03*
X160000Y765000D03*
X102500Y730000D03*
X92500Y730000D03*
D17*
X105000Y925000D03*
D18*
X80000Y925000D03*
X55000Y925000D03*
D19*
X35000Y855000D03*
X125000Y855000D03*
D14*
X420000Y721500D03*
X420000Y708500D03*
X467500Y721500D03*
X467500Y708500D03*
D11*
X27500Y682500D03*
X37500Y682500D03*
X101000Y622500D03*
X111000Y622500D03*
X37500Y672500D03*
X27500Y672500D03*
X119000Y622500D03*
X129000Y622500D03*
X35000Y612500D03*
X45000Y612500D03*
X45000Y622500D03*
X35000Y622500D03*
X120000Y682500D03*
X110000Y682500D03*
X110000Y672500D03*
X120000Y672500D03*
D15*
X25000Y775000D03*
X12000Y775000D03*
X91500Y829000D03*
X78500Y829000D03*
D34*
X45000Y1542500D03*
X45000Y1522500D03*
X45000Y1502500D03*
X90000Y1542500D03*
X90000Y1522500D03*
X90000Y1502500D03*
X120000Y1542500D03*
X120000Y1522500D03*
X120000Y1502500D03*
X165000Y1542500D03*
X165000Y1522500D03*
X165000Y1502500D03*
X195000Y1542500D03*
X195000Y1522500D03*
X195000Y1502500D03*
X240000Y1542500D03*
X240000Y1522500D03*
X240000Y1502500D03*
D15*
X221500Y707500D03*
X208500Y707500D03*
D14*
X295000Y789000D03*
X295000Y776000D03*
D12*
X75000Y1512500D03*
X75000Y1522500D03*
X60000Y1522500D03*
X60000Y1512500D03*
X135000Y1530000D03*
X135000Y1520000D03*
X135000Y1510000D03*
X135000Y1500000D03*
X210000Y1510000D03*
X210000Y1520000D03*
X225000Y1520000D03*
X225000Y1510000D03*
X150000Y1510000D03*
X150000Y1500000D03*
X150000Y1530000D03*
X150000Y1520000D03*
D34*
X302500Y1542500D03*
X302500Y1522500D03*
X302500Y1502500D03*
X347500Y1542500D03*
X347500Y1522500D03*
X347500Y1502500D03*
X377500Y1542500D03*
X377500Y1522500D03*
X377500Y1502500D03*
X422500Y1542500D03*
X422500Y1522500D03*
X422500Y1502500D03*
X452500Y1542500D03*
X452500Y1522500D03*
X452500Y1502500D03*
X497500Y1542500D03*
X497500Y1522500D03*
X497500Y1502500D03*
D12*
X332500Y1512500D03*
X332500Y1522500D03*
X317500Y1522500D03*
X317500Y1512500D03*
X392500Y1530000D03*
X392500Y1520000D03*
X392500Y1510000D03*
X392500Y1500000D03*
X467500Y1510000D03*
X467500Y1520000D03*
X482500Y1520000D03*
X482500Y1510000D03*
X407500Y1510000D03*
X407500Y1500000D03*
X407500Y1530000D03*
X407500Y1520000D03*
D34*
X560000Y1542500D03*
X560000Y1522500D03*
X560000Y1502500D03*
X605000Y1542500D03*
X605000Y1522500D03*
X605000Y1502500D03*
X635000Y1542500D03*
X635000Y1522500D03*
X635000Y1502500D03*
X680000Y1542500D03*
X680000Y1522500D03*
X680000Y1502500D03*
X710000Y1542500D03*
X710000Y1522500D03*
X710000Y1502500D03*
X755000Y1542500D03*
X755000Y1522500D03*
X755000Y1502500D03*
D12*
X590000Y1510000D03*
X590000Y1520000D03*
X575000Y1520000D03*
X575000Y1510000D03*
X650000Y1530000D03*
X650000Y1520000D03*
X650000Y1510000D03*
X650000Y1500000D03*
X725000Y1510000D03*
X725000Y1520000D03*
X740000Y1520000D03*
X740000Y1510000D03*
X665000Y1510000D03*
X665000Y1500000D03*
X665000Y1530000D03*
X665000Y1520000D03*
X575000Y1532500D03*
X575000Y1542500D03*
X590000Y1532500D03*
X590000Y1542500D03*
X725000Y1532500D03*
X725000Y1542500D03*
X740000Y1532500D03*
X740000Y1542500D03*
X317500Y1532500D03*
X317500Y1542500D03*
X332500Y1532500D03*
X332500Y1542500D03*
X467500Y1532500D03*
X467500Y1542500D03*
X482500Y1532500D03*
X482500Y1542500D03*
X60000Y1532500D03*
X60000Y1542500D03*
X75000Y1532500D03*
X75000Y1542500D03*
X210000Y1532500D03*
X210000Y1542500D03*
X225000Y1532500D03*
X225000Y1542500D03*
D59*
X107600Y1590200D03*
X133000Y1590200D03*
X158400Y1590200D03*
X183800Y1590200D03*
X209200Y1590200D03*
X234600Y1590200D03*
X260000Y1590200D03*
X285400Y1590200D03*
X310800Y1590200D03*
X336200Y1590200D03*
X361600Y1590200D03*
X387000Y1590200D03*
X412400Y1590200D03*
X412400Y1564800D03*
X387000Y1564800D03*
X361600Y1564800D03*
X336200Y1564800D03*
X310800Y1564800D03*
X285400Y1564800D03*
X260000Y1564800D03*
X234600Y1564800D03*
X209200Y1564800D03*
X183800Y1564800D03*
X158400Y1564800D03*
X133000Y1564800D03*
X107600Y1564800D03*
D12*
X257500Y1272500D03*
X257500Y1282500D03*
X517500Y1272500D03*
X517500Y1282500D03*
X777500Y1272500D03*
X777500Y1282500D03*
X172500Y1272500D03*
X172500Y1282500D03*
X267500Y1435000D03*
X267500Y1445000D03*
X525000Y1445000D03*
X525000Y1435000D03*
X782500Y1445000D03*
X782500Y1435000D03*
D11*
X200000Y825000D03*
X210000Y825000D03*
D12*
X550000Y1590000D03*
X550000Y1580000D03*
X500000Y1585000D03*
X500000Y1575000D03*
X485000Y1590000D03*
X485000Y1580000D03*
D60*
X757300Y555400D03*
X782700Y555400D03*
X757300Y530000D03*
X782700Y530000D03*
X757300Y504600D03*
X782700Y504600D03*
D40*
X134906Y100522D03*
X130080Y100522D03*
X125000Y100522D03*
X119920Y100522D03*
X115094Y100522D03*
X115094Y129478D03*
X119920Y129478D03*
X125000Y129478D03*
X130080Y129478D03*
X134906Y129478D03*
D61*
X125000Y115000D03*
D11*
X117500Y90000D03*
X127500Y90000D03*
D62*
X180000Y179000D03*
X180000Y151000D03*
X125000Y151000D03*
X125000Y179000D03*
X55000Y151000D03*
X55000Y179000D03*
D63*
X99500Y132500D03*
X80500Y132500D03*
D12*
X90000Y100000D03*
X90000Y90000D03*
D14*
X102500Y88500D03*
X102500Y101500D03*
D12*
X147500Y90000D03*
X147500Y100000D03*
D11*
X160000Y87500D03*
X170000Y87500D03*
D15*
X171500Y100000D03*
X158500Y100000D03*
D64*
X171985Y120000D03*
D65*
X148475Y120000D03*
D66*
X55000Y110515D03*
D67*
X55000Y134025D03*
D68*
X17500Y179000D03*
X17500Y151000D03*
X200000Y124000D03*
X200000Y96000D03*
D11*
X152500Y192500D03*
X142500Y192500D03*
X97500Y192500D03*
X107500Y192500D03*
D15*
X141000Y205000D03*
X154000Y205000D03*
X109000Y205000D03*
X96000Y205000D03*
D17*
X622500Y990000D03*
D69*
X622500Y1040000D03*
X767500Y990000D03*
X767500Y1015000D03*
X767500Y1040000D03*
D70*
X703750Y958000D02*
X681250Y958000D01*
X681250Y1072000D02*
X703750Y1072000D01*
D34*
X540000Y1077700D03*
D71*
X540000Y1052300D03*
D34*
X510000Y1077700D03*
D71*
X510000Y1052300D03*
D34*
X480000Y1077700D03*
D71*
X480000Y1052300D03*
D34*
X450000Y1077700D03*
D71*
X450000Y1052300D03*
D34*
X420000Y1077700D03*
D71*
X420000Y1052300D03*
D34*
X390000Y1077700D03*
D71*
X390000Y1052300D03*
D34*
X360000Y1077700D03*
D71*
X360000Y1052300D03*
D34*
X330000Y1077700D03*
D71*
X330000Y1052300D03*
D34*
X570000Y1077700D03*
D71*
X570000Y1052300D03*
D34*
X455000Y1017000D03*
X430000Y1017000D03*
X405000Y1017000D03*
X455000Y963000D03*
X430000Y963000D03*
X405000Y963000D03*
D11*
X102500Y720000D03*
X92500Y720000D03*
D14*
X92500Y709000D03*
X92500Y696000D03*
D12*
X105000Y697500D03*
X105000Y707500D03*
X27500Y695000D03*
X27500Y705000D03*
D11*
X72500Y682500D03*
X62500Y682500D03*
D14*
X40000Y706500D03*
X40000Y693500D03*
D34*
X515000Y963000D03*
X540000Y963000D03*
X565000Y963000D03*
X515000Y1017000D03*
X540000Y1017000D03*
X565000Y1017000D03*
D37*
X491929Y1013546D02*
X486319Y1007936D01*
X491929Y1013546D02*
X493369Y1012106D01*
X487759Y1006496D01*
X486319Y1007936D01*
X487441Y1009058D02*
X490321Y1009058D01*
X490003Y1011620D02*
X492883Y1011620D01*
X495464Y1010011D02*
X489854Y1004401D01*
X495464Y1010011D02*
X496904Y1008571D01*
X491294Y1002961D01*
X489854Y1004401D01*
X490976Y1005523D02*
X493856Y1005523D01*
X493538Y1008085D02*
X496418Y1008085D01*
X499000Y1006475D02*
X493390Y1000865D01*
X499000Y1006475D02*
X500440Y1005035D01*
X494830Y999425D01*
X493390Y1000865D01*
X494512Y1001987D02*
X497392Y1001987D01*
X497074Y1004549D02*
X499954Y1004549D01*
X502535Y1002940D02*
X496925Y997330D01*
X502535Y1002940D02*
X503975Y1001500D01*
X498365Y995890D01*
X496925Y997330D01*
X498047Y998452D02*
X500927Y998452D01*
X500609Y1001014D02*
X503489Y1001014D01*
X506071Y999404D02*
X500461Y993794D01*
X506071Y999404D02*
X507511Y997964D01*
X501901Y992354D01*
X500461Y993794D01*
X501583Y994916D02*
X504463Y994916D01*
X504145Y997478D02*
X507025Y997478D01*
X509606Y995869D02*
X503996Y990259D01*
X509606Y995869D02*
X511046Y994429D01*
X505436Y988819D01*
X503996Y990259D01*
X505118Y991381D02*
X507998Y991381D01*
X507680Y993943D02*
X510560Y993943D01*
X482241Y968504D02*
X476631Y962894D01*
X482241Y968504D02*
X483681Y967064D01*
X478071Y961454D01*
X476631Y962894D01*
X477753Y964016D02*
X480633Y964016D01*
X480315Y966578D02*
X483195Y966578D01*
X478706Y972039D02*
X473096Y966429D01*
X478706Y972039D02*
X480146Y970599D01*
X474536Y964989D01*
X473096Y966429D01*
X474218Y967551D02*
X477098Y967551D01*
X476780Y970113D02*
X479660Y970113D01*
X475170Y975575D02*
X469560Y969965D01*
X475170Y975575D02*
X476610Y974135D01*
X471000Y968525D01*
X469560Y969965D01*
X470682Y971087D02*
X473562Y971087D01*
X473244Y973649D02*
X476124Y973649D01*
X471635Y979110D02*
X466025Y973500D01*
X471635Y979110D02*
X473075Y977670D01*
X467465Y972060D01*
X466025Y973500D01*
X467147Y974622D02*
X470027Y974622D01*
X469709Y977184D02*
X472589Y977184D01*
X468099Y982646D02*
X462489Y977036D01*
X468099Y982646D02*
X469539Y981206D01*
X463929Y975596D01*
X462489Y977036D01*
X463611Y978158D02*
X466491Y978158D01*
X466173Y980720D02*
X469053Y980720D01*
X464564Y986181D02*
X458954Y980571D01*
X464564Y986181D02*
X466004Y984741D01*
X460394Y979131D01*
X458954Y980571D01*
X460076Y981693D02*
X462956Y981693D01*
X462638Y984255D02*
X465518Y984255D01*
X464564Y988819D02*
X458954Y994429D01*
X460394Y995869D01*
X466004Y990259D01*
X464564Y988819D01*
X464882Y991381D02*
X462002Y991381D01*
X462320Y993943D02*
X459440Y993943D01*
X462489Y997964D02*
X468099Y992354D01*
X462489Y997964D02*
X463929Y999404D01*
X469539Y993794D01*
X468099Y992354D01*
X468417Y994916D02*
X465537Y994916D01*
X465855Y997478D02*
X462975Y997478D01*
X466025Y1001500D02*
X471635Y995890D01*
X466025Y1001500D02*
X467465Y1002940D01*
X473075Y997330D01*
X471635Y995890D01*
X471953Y998452D02*
X469073Y998452D01*
X469391Y1001014D02*
X466511Y1001014D01*
X469560Y1005035D02*
X475170Y999425D01*
X469560Y1005035D02*
X471000Y1006475D01*
X476610Y1000865D01*
X475170Y999425D01*
X475488Y1001987D02*
X472608Y1001987D01*
X472926Y1004549D02*
X470046Y1004549D01*
X473096Y1008571D02*
X478706Y1002961D01*
X473096Y1008571D02*
X474536Y1010011D01*
X480146Y1004401D01*
X478706Y1002961D01*
X479024Y1005523D02*
X476144Y1005523D01*
X476462Y1008085D02*
X473582Y1008085D01*
X476631Y1012106D02*
X482241Y1006496D01*
X476631Y1012106D02*
X478071Y1013546D01*
X483681Y1007936D01*
X482241Y1006496D01*
X482559Y1009058D02*
X479679Y1009058D01*
X479997Y1011620D02*
X477117Y1011620D01*
X503996Y984741D02*
X509606Y979131D01*
X503996Y984741D02*
X505436Y986181D01*
X511046Y980571D01*
X509606Y979131D01*
X509924Y981693D02*
X507044Y981693D01*
X507362Y984255D02*
X504482Y984255D01*
X500461Y981206D02*
X506071Y975596D01*
X500461Y981206D02*
X501901Y982646D01*
X507511Y977036D01*
X506071Y975596D01*
X506389Y978158D02*
X503509Y978158D01*
X503827Y980720D02*
X500947Y980720D01*
X496925Y977670D02*
X502535Y972060D01*
X496925Y977670D02*
X498365Y979110D01*
X503975Y973500D01*
X502535Y972060D01*
X502853Y974622D02*
X499973Y974622D01*
X500291Y977184D02*
X497411Y977184D01*
X493390Y974135D02*
X499000Y968525D01*
X493390Y974135D02*
X494830Y975575D01*
X500440Y969965D01*
X499000Y968525D01*
X499318Y971087D02*
X496438Y971087D01*
X496756Y973649D02*
X493876Y973649D01*
X489854Y970599D02*
X495464Y964989D01*
X489854Y970599D02*
X491294Y972039D01*
X496904Y966429D01*
X495464Y964989D01*
X495782Y967551D02*
X492902Y967551D01*
X493220Y970113D02*
X490340Y970113D01*
X486319Y967064D02*
X491929Y961454D01*
X486319Y967064D02*
X487759Y968504D01*
X493369Y962894D01*
X491929Y961454D01*
X492247Y964016D02*
X489367Y964016D01*
X489685Y966578D02*
X486805Y966578D01*
D72*
G36*
X485000Y967679D02*
X465179Y987500D01*
X485000Y1007321D01*
X504821Y987500D01*
X485000Y967679D01*
G37*
D58*
X152500Y662000D03*
D23*
X162500Y629500D03*
X142500Y629500D03*
D22*
X54500Y590000D03*
D23*
X22000Y580000D03*
X22000Y600000D03*
D48*
X52500Y1111500D03*
X52500Y1128500D03*
D11*
X22500Y1085000D03*
X32500Y1085000D03*
D12*
X52500Y1087500D03*
X52500Y1097500D03*
D73*
X67300Y1127500D03*
D56*
X92700Y1127500D03*
D54*
X88705Y1008405D02*
X88705Y1001195D01*
X86295Y1001195D01*
X86295Y1008405D01*
X88705Y1008405D01*
X88705Y1003307D02*
X86295Y1003307D01*
X86295Y1005419D02*
X88705Y1005419D01*
X88705Y1007531D02*
X86295Y1007531D01*
X83705Y1008405D02*
X83705Y1001195D01*
X81295Y1001195D01*
X81295Y1008405D01*
X83705Y1008405D01*
X83705Y1003307D02*
X81295Y1003307D01*
X81295Y1005419D02*
X83705Y1005419D01*
X83705Y1007531D02*
X81295Y1007531D01*
X78705Y1008405D02*
X78705Y1001195D01*
X76295Y1001195D01*
X76295Y1008405D01*
X78705Y1008405D01*
X78705Y1003307D02*
X76295Y1003307D01*
X76295Y1005419D02*
X78705Y1005419D01*
X78705Y1007531D02*
X76295Y1007531D01*
X73705Y1008405D02*
X73705Y1001195D01*
X71295Y1001195D01*
X71295Y1008405D01*
X73705Y1008405D01*
X73705Y1003307D02*
X71295Y1003307D01*
X71295Y1005419D02*
X73705Y1005419D01*
X73705Y1007531D02*
X71295Y1007531D01*
X71295Y1021595D02*
X71295Y1028805D01*
X73705Y1028805D01*
X73705Y1021595D01*
X71295Y1021595D01*
X71295Y1023707D02*
X73705Y1023707D01*
X73705Y1025819D02*
X71295Y1025819D01*
X71295Y1027931D02*
X73705Y1027931D01*
X76295Y1028805D02*
X76295Y1021595D01*
X76295Y1028805D02*
X78705Y1028805D01*
X78705Y1021595D01*
X76295Y1021595D01*
X76295Y1023707D02*
X78705Y1023707D01*
X78705Y1025819D02*
X76295Y1025819D01*
X76295Y1027931D02*
X78705Y1027931D01*
X81295Y1028805D02*
X81295Y1021595D01*
X81295Y1028805D02*
X83705Y1028805D01*
X83705Y1021595D01*
X81295Y1021595D01*
X81295Y1023707D02*
X83705Y1023707D01*
X83705Y1025819D02*
X81295Y1025819D01*
X81295Y1027931D02*
X83705Y1027931D01*
X86295Y1028805D02*
X86295Y1021595D01*
X86295Y1028805D02*
X88705Y1028805D01*
X88705Y1021595D01*
X86295Y1021595D01*
X86295Y1023707D02*
X88705Y1023707D01*
X88705Y1025819D02*
X86295Y1025819D01*
X86295Y1027931D02*
X88705Y1027931D01*
D74*
X80000Y1015000D03*
D54*
X81305Y738705D02*
X74095Y738705D01*
X81305Y738705D02*
X81305Y736295D01*
X74095Y736295D01*
X74095Y738705D01*
X74095Y738407D02*
X81305Y738407D01*
X81305Y733705D02*
X74095Y733705D01*
X81305Y733705D02*
X81305Y731295D01*
X74095Y731295D01*
X74095Y733705D01*
X74095Y733407D02*
X81305Y733407D01*
X81305Y728705D02*
X74095Y728705D01*
X81305Y728705D02*
X81305Y726295D01*
X74095Y726295D01*
X74095Y728705D01*
X74095Y728407D02*
X81305Y728407D01*
X81305Y723705D02*
X74095Y723705D01*
X81305Y723705D02*
X81305Y721295D01*
X74095Y721295D01*
X74095Y723705D01*
X74095Y723407D02*
X81305Y723407D01*
X60905Y721295D02*
X53695Y721295D01*
X53695Y723705D01*
X60905Y723705D01*
X60905Y721295D01*
X60905Y723407D02*
X53695Y723407D01*
X53695Y726295D02*
X60905Y726295D01*
X53695Y726295D02*
X53695Y728705D01*
X60905Y728705D01*
X60905Y726295D01*
X60905Y728407D02*
X53695Y728407D01*
X53695Y731295D02*
X60905Y731295D01*
X53695Y731295D02*
X53695Y733705D01*
X60905Y733705D01*
X60905Y731295D01*
X60905Y733407D02*
X53695Y733407D01*
X53695Y736295D02*
X60905Y736295D01*
X53695Y736295D02*
X53695Y738705D01*
X60905Y738705D01*
X60905Y736295D01*
X60905Y738407D02*
X53695Y738407D01*
D55*
X67500Y730000D03*
D54*
X60905Y691295D02*
X53695Y691295D01*
X53695Y693705D01*
X60905Y693705D01*
X60905Y691295D01*
X60905Y693407D02*
X53695Y693407D01*
X53695Y696295D02*
X60905Y696295D01*
X53695Y696295D02*
X53695Y698705D01*
X60905Y698705D01*
X60905Y696295D01*
X60905Y698407D02*
X53695Y698407D01*
X53695Y701295D02*
X60905Y701295D01*
X53695Y701295D02*
X53695Y703705D01*
X60905Y703705D01*
X60905Y701295D01*
X60905Y703407D02*
X53695Y703407D01*
X53695Y706295D02*
X60905Y706295D01*
X53695Y706295D02*
X53695Y708705D01*
X60905Y708705D01*
X60905Y706295D01*
X60905Y708407D02*
X53695Y708407D01*
X74095Y708705D02*
X81305Y708705D01*
X81305Y706295D01*
X74095Y706295D01*
X74095Y708705D01*
X74095Y708407D02*
X81305Y708407D01*
X81305Y703705D02*
X74095Y703705D01*
X81305Y703705D02*
X81305Y701295D01*
X74095Y701295D01*
X74095Y703705D01*
X74095Y703407D02*
X81305Y703407D01*
X81305Y698705D02*
X74095Y698705D01*
X81305Y698705D02*
X81305Y696295D01*
X74095Y696295D01*
X74095Y698705D01*
X74095Y698407D02*
X81305Y698407D01*
X81305Y693705D02*
X74095Y693705D01*
X81305Y693705D02*
X81305Y691295D01*
X74095Y691295D01*
X74095Y693705D01*
X74095Y693407D02*
X81305Y693407D01*
D55*
X67500Y700000D03*
D54*
X123705Y640905D02*
X123705Y633695D01*
X121295Y633695D01*
X121295Y640905D01*
X123705Y640905D01*
X123705Y635807D02*
X121295Y635807D01*
X121295Y637919D02*
X123705Y637919D01*
X123705Y640031D02*
X121295Y640031D01*
X118705Y640905D02*
X118705Y633695D01*
X116295Y633695D01*
X116295Y640905D01*
X118705Y640905D01*
X118705Y635807D02*
X116295Y635807D01*
X116295Y637919D02*
X118705Y637919D01*
X118705Y640031D02*
X116295Y640031D01*
X113705Y640905D02*
X113705Y633695D01*
X111295Y633695D01*
X111295Y640905D01*
X113705Y640905D01*
X113705Y635807D02*
X111295Y635807D01*
X111295Y637919D02*
X113705Y637919D01*
X113705Y640031D02*
X111295Y640031D01*
X108705Y640905D02*
X108705Y633695D01*
X106295Y633695D01*
X106295Y640905D01*
X108705Y640905D01*
X108705Y635807D02*
X106295Y635807D01*
X106295Y637919D02*
X108705Y637919D01*
X108705Y640031D02*
X106295Y640031D01*
X106295Y654095D02*
X106295Y661305D01*
X108705Y661305D01*
X108705Y654095D01*
X106295Y654095D01*
X106295Y656207D02*
X108705Y656207D01*
X108705Y658319D02*
X106295Y658319D01*
X106295Y660431D02*
X108705Y660431D01*
X111295Y661305D02*
X111295Y654095D01*
X111295Y661305D02*
X113705Y661305D01*
X113705Y654095D01*
X111295Y654095D01*
X111295Y656207D02*
X113705Y656207D01*
X113705Y658319D02*
X111295Y658319D01*
X111295Y660431D02*
X113705Y660431D01*
X116295Y661305D02*
X116295Y654095D01*
X116295Y661305D02*
X118705Y661305D01*
X118705Y654095D01*
X116295Y654095D01*
X116295Y656207D02*
X118705Y656207D01*
X118705Y658319D02*
X116295Y658319D01*
X116295Y660431D02*
X118705Y660431D01*
X121295Y661305D02*
X121295Y654095D01*
X121295Y661305D02*
X123705Y661305D01*
X123705Y654095D01*
X121295Y654095D01*
X121295Y656207D02*
X123705Y656207D01*
X123705Y658319D02*
X121295Y658319D01*
X121295Y660431D02*
X123705Y660431D01*
D74*
X115000Y647500D03*
D54*
X31295Y654095D02*
X31295Y661305D01*
X33705Y661305D01*
X33705Y654095D01*
X31295Y654095D01*
X31295Y656207D02*
X33705Y656207D01*
X33705Y658319D02*
X31295Y658319D01*
X31295Y660431D02*
X33705Y660431D01*
X36295Y661305D02*
X36295Y654095D01*
X36295Y661305D02*
X38705Y661305D01*
X38705Y654095D01*
X36295Y654095D01*
X36295Y656207D02*
X38705Y656207D01*
X38705Y658319D02*
X36295Y658319D01*
X36295Y660431D02*
X38705Y660431D01*
X41295Y661305D02*
X41295Y654095D01*
X41295Y661305D02*
X43705Y661305D01*
X43705Y654095D01*
X41295Y654095D01*
X41295Y656207D02*
X43705Y656207D01*
X43705Y658319D02*
X41295Y658319D01*
X41295Y660431D02*
X43705Y660431D01*
X46295Y661305D02*
X46295Y654095D01*
X46295Y661305D02*
X48705Y661305D01*
X48705Y654095D01*
X46295Y654095D01*
X46295Y656207D02*
X48705Y656207D01*
X48705Y658319D02*
X46295Y658319D01*
X46295Y660431D02*
X48705Y660431D01*
X48705Y640905D02*
X48705Y633695D01*
X46295Y633695D01*
X46295Y640905D01*
X48705Y640905D01*
X48705Y635807D02*
X46295Y635807D01*
X46295Y637919D02*
X48705Y637919D01*
X48705Y640031D02*
X46295Y640031D01*
X43705Y640905D02*
X43705Y633695D01*
X41295Y633695D01*
X41295Y640905D01*
X43705Y640905D01*
X43705Y635807D02*
X41295Y635807D01*
X41295Y637919D02*
X43705Y637919D01*
X43705Y640031D02*
X41295Y640031D01*
X38705Y640905D02*
X38705Y633695D01*
X36295Y633695D01*
X36295Y640905D01*
X38705Y640905D01*
X38705Y635807D02*
X36295Y635807D01*
X36295Y637919D02*
X38705Y637919D01*
X38705Y640031D02*
X36295Y640031D01*
X33705Y640905D02*
X33705Y633695D01*
X31295Y633695D01*
X31295Y640905D01*
X33705Y640905D01*
X33705Y635807D02*
X31295Y635807D01*
X31295Y637919D02*
X33705Y637919D01*
X33705Y640031D02*
X31295Y640031D01*
D74*
X40000Y647500D03*
D54*
X711295Y861595D02*
X711295Y868805D01*
X713705Y868805D01*
X713705Y861595D01*
X711295Y861595D01*
X711295Y863707D02*
X713705Y863707D01*
X713705Y865819D02*
X711295Y865819D01*
X711295Y867931D02*
X713705Y867931D01*
X716295Y868805D02*
X716295Y861595D01*
X716295Y868805D02*
X718705Y868805D01*
X718705Y861595D01*
X716295Y861595D01*
X716295Y863707D02*
X718705Y863707D01*
X718705Y865819D02*
X716295Y865819D01*
X716295Y867931D02*
X718705Y867931D01*
X721295Y868805D02*
X721295Y861595D01*
X721295Y868805D02*
X723705Y868805D01*
X723705Y861595D01*
X721295Y861595D01*
X721295Y863707D02*
X723705Y863707D01*
X723705Y865819D02*
X721295Y865819D01*
X721295Y867931D02*
X723705Y867931D01*
X726295Y868805D02*
X726295Y861595D01*
X726295Y868805D02*
X728705Y868805D01*
X728705Y861595D01*
X726295Y861595D01*
X726295Y863707D02*
X728705Y863707D01*
X728705Y865819D02*
X726295Y865819D01*
X726295Y867931D02*
X728705Y867931D01*
X728705Y848405D02*
X728705Y841195D01*
X726295Y841195D01*
X726295Y848405D01*
X728705Y848405D01*
X728705Y843307D02*
X726295Y843307D01*
X726295Y845419D02*
X728705Y845419D01*
X728705Y847531D02*
X726295Y847531D01*
X723705Y848405D02*
X723705Y841195D01*
X721295Y841195D01*
X721295Y848405D01*
X723705Y848405D01*
X723705Y843307D02*
X721295Y843307D01*
X721295Y845419D02*
X723705Y845419D01*
X723705Y847531D02*
X721295Y847531D01*
X718705Y848405D02*
X718705Y841195D01*
X716295Y841195D01*
X716295Y848405D01*
X718705Y848405D01*
X718705Y843307D02*
X716295Y843307D01*
X716295Y845419D02*
X718705Y845419D01*
X718705Y847531D02*
X716295Y847531D01*
X713705Y848405D02*
X713705Y841195D01*
X711295Y841195D01*
X711295Y848405D01*
X713705Y848405D01*
X713705Y843307D02*
X711295Y843307D01*
X711295Y845419D02*
X713705Y845419D01*
X713705Y847531D02*
X711295Y847531D01*
D74*
X720000Y855000D03*
D54*
X236305Y1441205D02*
X229095Y1441205D01*
X236305Y1441205D02*
X236305Y1438795D01*
X229095Y1438795D01*
X229095Y1441205D01*
X229095Y1440907D02*
X236305Y1440907D01*
X236305Y1436205D02*
X229095Y1436205D01*
X236305Y1436205D02*
X236305Y1433795D01*
X229095Y1433795D01*
X229095Y1436205D01*
X229095Y1435907D02*
X236305Y1435907D01*
X236305Y1431205D02*
X229095Y1431205D01*
X236305Y1431205D02*
X236305Y1428795D01*
X229095Y1428795D01*
X229095Y1431205D01*
X229095Y1430907D02*
X236305Y1430907D01*
X236305Y1426205D02*
X229095Y1426205D01*
X236305Y1426205D02*
X236305Y1423795D01*
X229095Y1423795D01*
X229095Y1426205D01*
X229095Y1425907D02*
X236305Y1425907D01*
X215905Y1423795D02*
X208695Y1423795D01*
X208695Y1426205D01*
X215905Y1426205D01*
X215905Y1423795D01*
X215905Y1425907D02*
X208695Y1425907D01*
X208695Y1428795D02*
X215905Y1428795D01*
X208695Y1428795D02*
X208695Y1431205D01*
X215905Y1431205D01*
X215905Y1428795D01*
X215905Y1430907D02*
X208695Y1430907D01*
X208695Y1433795D02*
X215905Y1433795D01*
X208695Y1433795D02*
X208695Y1436205D01*
X215905Y1436205D01*
X215905Y1433795D01*
X215905Y1435907D02*
X208695Y1435907D01*
X208695Y1438795D02*
X215905Y1438795D01*
X208695Y1438795D02*
X208695Y1441205D01*
X215905Y1441205D01*
X215905Y1438795D01*
X215905Y1440907D02*
X208695Y1440907D01*
D55*
X222500Y1432500D03*
D54*
X486595Y1441205D02*
X493805Y1441205D01*
X493805Y1438795D01*
X486595Y1438795D01*
X486595Y1441205D01*
X486595Y1440907D02*
X493805Y1440907D01*
X493805Y1436205D02*
X486595Y1436205D01*
X493805Y1436205D02*
X493805Y1433795D01*
X486595Y1433795D01*
X486595Y1436205D01*
X486595Y1435907D02*
X493805Y1435907D01*
X493805Y1431205D02*
X486595Y1431205D01*
X493805Y1431205D02*
X493805Y1428795D01*
X486595Y1428795D01*
X486595Y1431205D01*
X486595Y1430907D02*
X493805Y1430907D01*
X493805Y1426205D02*
X486595Y1426205D01*
X493805Y1426205D02*
X493805Y1423795D01*
X486595Y1423795D01*
X486595Y1426205D01*
X486595Y1425907D02*
X493805Y1425907D01*
X473405Y1423795D02*
X466195Y1423795D01*
X466195Y1426205D01*
X473405Y1426205D01*
X473405Y1423795D01*
X473405Y1425907D02*
X466195Y1425907D01*
X466195Y1428795D02*
X473405Y1428795D01*
X466195Y1428795D02*
X466195Y1431205D01*
X473405Y1431205D01*
X473405Y1428795D01*
X473405Y1430907D02*
X466195Y1430907D01*
X466195Y1433795D02*
X473405Y1433795D01*
X466195Y1433795D02*
X466195Y1436205D01*
X473405Y1436205D01*
X473405Y1433795D01*
X473405Y1435907D02*
X466195Y1435907D01*
X466195Y1438795D02*
X473405Y1438795D01*
X466195Y1438795D02*
X466195Y1441205D01*
X473405Y1441205D01*
X473405Y1438795D01*
X473405Y1440907D02*
X466195Y1440907D01*
D55*
X480000Y1432500D03*
D54*
X744095Y1441205D02*
X751305Y1441205D01*
X751305Y1438795D01*
X744095Y1438795D01*
X744095Y1441205D01*
X744095Y1440907D02*
X751305Y1440907D01*
X751305Y1436205D02*
X744095Y1436205D01*
X751305Y1436205D02*
X751305Y1433795D01*
X744095Y1433795D01*
X744095Y1436205D01*
X744095Y1435907D02*
X751305Y1435907D01*
X751305Y1431205D02*
X744095Y1431205D01*
X751305Y1431205D02*
X751305Y1428795D01*
X744095Y1428795D01*
X744095Y1431205D01*
X744095Y1430907D02*
X751305Y1430907D01*
X751305Y1426205D02*
X744095Y1426205D01*
X751305Y1426205D02*
X751305Y1423795D01*
X744095Y1423795D01*
X744095Y1426205D01*
X744095Y1425907D02*
X751305Y1425907D01*
X730905Y1423795D02*
X723695Y1423795D01*
X723695Y1426205D01*
X730905Y1426205D01*
X730905Y1423795D01*
X730905Y1425907D02*
X723695Y1425907D01*
X723695Y1428795D02*
X730905Y1428795D01*
X723695Y1428795D02*
X723695Y1431205D01*
X730905Y1431205D01*
X730905Y1428795D01*
X730905Y1430907D02*
X723695Y1430907D01*
X723695Y1433795D02*
X730905Y1433795D01*
X723695Y1433795D02*
X723695Y1436205D01*
X730905Y1436205D01*
X730905Y1433795D01*
X730905Y1435907D02*
X723695Y1435907D01*
X723695Y1438795D02*
X730905Y1438795D01*
X723695Y1438795D02*
X723695Y1441205D01*
X730905Y1441205D01*
X730905Y1438795D01*
X730905Y1440907D02*
X723695Y1440907D01*
D55*
X737500Y1432500D03*
D54*
X538805Y1581205D02*
X531595Y1581205D01*
X538805Y1581205D02*
X538805Y1578795D01*
X531595Y1578795D01*
X531595Y1581205D01*
X531595Y1580907D02*
X538805Y1580907D01*
X538805Y1576205D02*
X531595Y1576205D01*
X538805Y1576205D02*
X538805Y1573795D01*
X531595Y1573795D01*
X531595Y1576205D01*
X531595Y1575907D02*
X538805Y1575907D01*
X538805Y1571205D02*
X531595Y1571205D01*
X538805Y1571205D02*
X538805Y1568795D01*
X531595Y1568795D01*
X531595Y1571205D01*
X531595Y1570907D02*
X538805Y1570907D01*
X538805Y1566205D02*
X531595Y1566205D01*
X538805Y1566205D02*
X538805Y1563795D01*
X531595Y1563795D01*
X531595Y1566205D01*
X531595Y1565907D02*
X538805Y1565907D01*
X518405Y1563795D02*
X511195Y1563795D01*
X511195Y1566205D01*
X518405Y1566205D01*
X518405Y1563795D01*
X518405Y1565907D02*
X511195Y1565907D01*
X511195Y1568795D02*
X518405Y1568795D01*
X511195Y1568795D02*
X511195Y1571205D01*
X518405Y1571205D01*
X518405Y1568795D01*
X518405Y1570907D02*
X511195Y1570907D01*
X511195Y1573795D02*
X518405Y1573795D01*
X511195Y1573795D02*
X511195Y1576205D01*
X518405Y1576205D01*
X518405Y1573795D01*
X518405Y1575907D02*
X511195Y1575907D01*
X511195Y1578795D02*
X518405Y1578795D01*
X511195Y1578795D02*
X511195Y1581205D01*
X518405Y1581205D01*
X518405Y1578795D01*
X518405Y1580907D02*
X511195Y1580907D01*
D55*
X525000Y1572500D03*
D54*
X476305Y1581205D02*
X469095Y1581205D01*
X476305Y1581205D02*
X476305Y1578795D01*
X469095Y1578795D01*
X469095Y1581205D01*
X469095Y1580907D02*
X476305Y1580907D01*
X476305Y1576205D02*
X469095Y1576205D01*
X476305Y1576205D02*
X476305Y1573795D01*
X469095Y1573795D01*
X469095Y1576205D01*
X469095Y1575907D02*
X476305Y1575907D01*
X476305Y1571205D02*
X469095Y1571205D01*
X476305Y1571205D02*
X476305Y1568795D01*
X469095Y1568795D01*
X469095Y1571205D01*
X469095Y1570907D02*
X476305Y1570907D01*
X476305Y1566205D02*
X469095Y1566205D01*
X476305Y1566205D02*
X476305Y1563795D01*
X469095Y1563795D01*
X469095Y1566205D01*
X469095Y1565907D02*
X476305Y1565907D01*
X455905Y1563795D02*
X448695Y1563795D01*
X448695Y1566205D01*
X455905Y1566205D01*
X455905Y1563795D01*
X455905Y1565907D02*
X448695Y1565907D01*
X448695Y1568795D02*
X455905Y1568795D01*
X448695Y1568795D02*
X448695Y1571205D01*
X455905Y1571205D01*
X455905Y1568795D01*
X455905Y1570907D02*
X448695Y1570907D01*
X448695Y1573795D02*
X455905Y1573795D01*
X448695Y1573795D02*
X448695Y1576205D01*
X455905Y1576205D01*
X455905Y1573795D01*
X455905Y1575907D02*
X448695Y1575907D01*
X448695Y1578795D02*
X455905Y1578795D01*
X448695Y1578795D02*
X448695Y1581205D01*
X455905Y1581205D01*
X455905Y1578795D01*
X455905Y1580907D02*
X448695Y1580907D01*
D55*
X462500Y1572500D03*
D11*
X577500Y1310000D03*
X567500Y1310000D03*
X567500Y1360000D03*
X557500Y1360000D03*
X317500Y1310000D03*
X307500Y1310000D03*
X307500Y1360000D03*
X297500Y1360000D03*
X677500Y1360000D03*
X667500Y1360000D03*
X417500Y1360000D03*
X407500Y1360000D03*
X162500Y1362500D03*
X152500Y1362500D03*
D15*
X129000Y77500D03*
X116000Y77500D03*
D11*
X747500Y827500D03*
X737500Y827500D03*
X692500Y762500D03*
X702500Y762500D03*
X747500Y762500D03*
X737500Y762500D03*
X692500Y827500D03*
X702500Y827500D03*
X280000Y1457500D03*
X290000Y1457500D03*
X290000Y1447500D03*
X280000Y1447500D03*
X82500Y1577500D03*
X92500Y1577500D03*
X82500Y1602500D03*
X92500Y1602500D03*
D75*
X37250Y1098504D03*
X30750Y1098504D03*
X24250Y1098504D03*
X17750Y1098504D03*
X17750Y1141496D03*
X24250Y1141496D03*
X30750Y1141496D03*
X37250Y1141496D03*
D34*
X317500Y997500D03*
X317500Y977500D03*
X317500Y957500D03*
X362500Y997500D03*
X362500Y977500D03*
X362500Y957500D03*
D76*
X586496Y889750D03*
X586496Y883250D03*
X586496Y876750D03*
X586496Y870250D03*
X543504Y870250D03*
X543504Y876750D03*
X543504Y883250D03*
X543504Y889750D03*
D54*
X571595Y833705D02*
X578805Y833705D01*
X578805Y831295D01*
X571595Y831295D01*
X571595Y833705D01*
X571595Y833407D02*
X578805Y833407D01*
X578805Y828705D02*
X571595Y828705D01*
X578805Y828705D02*
X578805Y826295D01*
X571595Y826295D01*
X571595Y828705D01*
X571595Y828407D02*
X578805Y828407D01*
X578805Y823705D02*
X571595Y823705D01*
X578805Y823705D02*
X578805Y821295D01*
X571595Y821295D01*
X571595Y823705D01*
X571595Y823407D02*
X578805Y823407D01*
X578805Y818705D02*
X571595Y818705D01*
X578805Y818705D02*
X578805Y816295D01*
X571595Y816295D01*
X571595Y818705D01*
X571595Y818407D02*
X578805Y818407D01*
X558405Y816295D02*
X551195Y816295D01*
X551195Y818705D01*
X558405Y818705D01*
X558405Y816295D01*
X558405Y818407D02*
X551195Y818407D01*
X551195Y821295D02*
X558405Y821295D01*
X551195Y821295D02*
X551195Y823705D01*
X558405Y823705D01*
X558405Y821295D01*
X558405Y823407D02*
X551195Y823407D01*
X551195Y826295D02*
X558405Y826295D01*
X551195Y826295D02*
X551195Y828705D01*
X558405Y828705D01*
X558405Y826295D01*
X558405Y828407D02*
X551195Y828407D01*
X551195Y831295D02*
X558405Y831295D01*
X551195Y831295D02*
X551195Y833705D01*
X558405Y833705D01*
X558405Y831295D01*
X558405Y833407D02*
X551195Y833407D01*
D55*
X565000Y825000D03*
D12*
X590000Y835000D03*
X590000Y825000D03*
X600000Y825000D03*
X600000Y835000D03*
D11*
X560000Y842500D03*
X570000Y842500D03*
D12*
X540000Y830000D03*
X540000Y820000D03*
D54*
X186305Y1441205D02*
X179095Y1441205D01*
X186305Y1441205D02*
X186305Y1438795D01*
X179095Y1438795D01*
X179095Y1441205D01*
X179095Y1440907D02*
X186305Y1440907D01*
X186305Y1436205D02*
X179095Y1436205D01*
X186305Y1436205D02*
X186305Y1433795D01*
X179095Y1433795D01*
X179095Y1436205D01*
X179095Y1435907D02*
X186305Y1435907D01*
X186305Y1431205D02*
X179095Y1431205D01*
X186305Y1431205D02*
X186305Y1428795D01*
X179095Y1428795D01*
X179095Y1431205D01*
X179095Y1430907D02*
X186305Y1430907D01*
X186305Y1426205D02*
X179095Y1426205D01*
X186305Y1426205D02*
X186305Y1423795D01*
X179095Y1423795D01*
X179095Y1426205D01*
X179095Y1425907D02*
X186305Y1425907D01*
X165905Y1423795D02*
X158695Y1423795D01*
X158695Y1426205D01*
X165905Y1426205D01*
X165905Y1423795D01*
X165905Y1425907D02*
X158695Y1425907D01*
X158695Y1428795D02*
X165905Y1428795D01*
X158695Y1428795D02*
X158695Y1431205D01*
X165905Y1431205D01*
X165905Y1428795D01*
X165905Y1430907D02*
X158695Y1430907D01*
X158695Y1433795D02*
X165905Y1433795D01*
X158695Y1433795D02*
X158695Y1436205D01*
X165905Y1436205D01*
X165905Y1433795D01*
X165905Y1435907D02*
X158695Y1435907D01*
X158695Y1438795D02*
X165905Y1438795D01*
X158695Y1438795D02*
X158695Y1441205D01*
X165905Y1441205D01*
X165905Y1438795D01*
X165905Y1440907D02*
X158695Y1440907D01*
D55*
X172500Y1432500D03*
D54*
X436295Y1436595D02*
X436295Y1443805D01*
X438705Y1443805D01*
X438705Y1436595D01*
X436295Y1436595D01*
X436295Y1438707D02*
X438705Y1438707D01*
X438705Y1440819D02*
X436295Y1440819D01*
X436295Y1442931D02*
X438705Y1442931D01*
X441295Y1443805D02*
X441295Y1436595D01*
X441295Y1443805D02*
X443705Y1443805D01*
X443705Y1436595D01*
X441295Y1436595D01*
X441295Y1438707D02*
X443705Y1438707D01*
X443705Y1440819D02*
X441295Y1440819D01*
X441295Y1442931D02*
X443705Y1442931D01*
X446295Y1443805D02*
X446295Y1436595D01*
X446295Y1443805D02*
X448705Y1443805D01*
X448705Y1436595D01*
X446295Y1436595D01*
X446295Y1438707D02*
X448705Y1438707D01*
X448705Y1440819D02*
X446295Y1440819D01*
X446295Y1442931D02*
X448705Y1442931D01*
X451295Y1443805D02*
X451295Y1436595D01*
X451295Y1443805D02*
X453705Y1443805D01*
X453705Y1436595D01*
X451295Y1436595D01*
X451295Y1438707D02*
X453705Y1438707D01*
X453705Y1440819D02*
X451295Y1440819D01*
X451295Y1442931D02*
X453705Y1442931D01*
X453705Y1423405D02*
X453705Y1416195D01*
X451295Y1416195D01*
X451295Y1423405D01*
X453705Y1423405D01*
X453705Y1418307D02*
X451295Y1418307D01*
X451295Y1420419D02*
X453705Y1420419D01*
X453705Y1422531D02*
X451295Y1422531D01*
X448705Y1423405D02*
X448705Y1416195D01*
X446295Y1416195D01*
X446295Y1423405D01*
X448705Y1423405D01*
X448705Y1418307D02*
X446295Y1418307D01*
X446295Y1420419D02*
X448705Y1420419D01*
X448705Y1422531D02*
X446295Y1422531D01*
X443705Y1423405D02*
X443705Y1416195D01*
X441295Y1416195D01*
X441295Y1423405D01*
X443705Y1423405D01*
X443705Y1418307D02*
X441295Y1418307D01*
X441295Y1420419D02*
X443705Y1420419D01*
X443705Y1422531D02*
X441295Y1422531D01*
X438705Y1423405D02*
X438705Y1416195D01*
X436295Y1416195D01*
X436295Y1423405D01*
X438705Y1423405D01*
X438705Y1418307D02*
X436295Y1418307D01*
X436295Y1420419D02*
X438705Y1420419D01*
X438705Y1422531D02*
X436295Y1422531D01*
D74*
X445000Y1430000D03*
D54*
X693795Y1436595D02*
X693795Y1443805D01*
X696205Y1443805D01*
X696205Y1436595D01*
X693795Y1436595D01*
X693795Y1438707D02*
X696205Y1438707D01*
X696205Y1440819D02*
X693795Y1440819D01*
X693795Y1442931D02*
X696205Y1442931D01*
X698795Y1443805D02*
X698795Y1436595D01*
X698795Y1443805D02*
X701205Y1443805D01*
X701205Y1436595D01*
X698795Y1436595D01*
X698795Y1438707D02*
X701205Y1438707D01*
X701205Y1440819D02*
X698795Y1440819D01*
X698795Y1442931D02*
X701205Y1442931D01*
X703795Y1443805D02*
X703795Y1436595D01*
X703795Y1443805D02*
X706205Y1443805D01*
X706205Y1436595D01*
X703795Y1436595D01*
X703795Y1438707D02*
X706205Y1438707D01*
X706205Y1440819D02*
X703795Y1440819D01*
X703795Y1442931D02*
X706205Y1442931D01*
X708795Y1443805D02*
X708795Y1436595D01*
X708795Y1443805D02*
X711205Y1443805D01*
X711205Y1436595D01*
X708795Y1436595D01*
X708795Y1438707D02*
X711205Y1438707D01*
X711205Y1440819D02*
X708795Y1440819D01*
X708795Y1442931D02*
X711205Y1442931D01*
X711205Y1423405D02*
X711205Y1416195D01*
X708795Y1416195D01*
X708795Y1423405D01*
X711205Y1423405D01*
X711205Y1418307D02*
X708795Y1418307D01*
X708795Y1420419D02*
X711205Y1420419D01*
X711205Y1422531D02*
X708795Y1422531D01*
X706205Y1423405D02*
X706205Y1416195D01*
X703795Y1416195D01*
X703795Y1423405D01*
X706205Y1423405D01*
X706205Y1418307D02*
X703795Y1418307D01*
X703795Y1420419D02*
X706205Y1420419D01*
X706205Y1422531D02*
X703795Y1422531D01*
X701205Y1423405D02*
X701205Y1416195D01*
X698795Y1416195D01*
X698795Y1423405D01*
X701205Y1423405D01*
X701205Y1418307D02*
X698795Y1418307D01*
X698795Y1420419D02*
X701205Y1420419D01*
X701205Y1422531D02*
X698795Y1422531D01*
X696205Y1423405D02*
X696205Y1416195D01*
X693795Y1416195D01*
X693795Y1423405D01*
X696205Y1423405D01*
X696205Y1418307D02*
X693795Y1418307D01*
X693795Y1420419D02*
X696205Y1420419D01*
X696205Y1422531D02*
X693795Y1422531D01*
D74*
X702500Y1430000D03*
D12*
X247500Y1272500D03*
X247500Y1282500D03*
X507500Y1272500D03*
X507500Y1282500D03*
X767500Y1272500D03*
X767500Y1282500D03*
D77*
X120000Y1366000D03*
X110500Y1345000D03*
X129500Y1345000D03*
D78*
X353500Y1392500D03*
X332500Y1402000D03*
X332500Y1383000D03*
X613500Y1392500D03*
X592500Y1402000D03*
X592500Y1383000D03*
D11*
X115000Y1332500D03*
X125000Y1332500D03*
D12*
X580000Y1400000D03*
X580000Y1390000D03*
X320000Y1400000D03*
X320000Y1390000D03*
D11*
X562500Y685000D03*
X572500Y685000D03*
X555000Y700000D03*
X565000Y700000D03*
D48*
X555000Y1081000D03*
X555000Y1064000D03*
X525000Y1081000D03*
X525000Y1064000D03*
X495000Y1081000D03*
X495000Y1064000D03*
X465000Y1081000D03*
X465000Y1064000D03*
X435000Y1081000D03*
X435000Y1064000D03*
X405000Y1081000D03*
X405000Y1064000D03*
X375000Y1081000D03*
X375000Y1064000D03*
X345000Y1081000D03*
X345000Y1064000D03*
X312500Y1081000D03*
X312500Y1064000D03*
D11*
X67500Y245000D03*
X57500Y245000D03*
X122500Y340000D03*
X112500Y340000D03*
X177500Y245000D03*
X167500Y245000D03*
D12*
X225000Y330000D03*
X225000Y340000D03*
X277500Y235000D03*
X277500Y245000D03*
D11*
X397500Y245000D03*
X387500Y245000D03*
X452500Y340000D03*
X442500Y340000D03*
X507500Y245000D03*
X497500Y245000D03*
X562500Y340000D03*
X552500Y340000D03*
X617500Y245000D03*
X607500Y245000D03*
X672500Y340000D03*
X662500Y340000D03*
X727500Y245000D03*
X717500Y245000D03*
X67500Y435000D03*
X57500Y435000D03*
X122500Y530000D03*
X112500Y530000D03*
X177500Y435000D03*
X167500Y435000D03*
D12*
X225000Y520000D03*
X225000Y530000D03*
X280000Y425000D03*
X280000Y435000D03*
D11*
X397500Y435000D03*
X387500Y435000D03*
X452500Y530000D03*
X442500Y530000D03*
X507500Y435000D03*
X497500Y435000D03*
X562500Y530000D03*
X552500Y530000D03*
X617500Y435000D03*
X607500Y435000D03*
X672500Y530000D03*
X662500Y530000D03*
X727500Y435000D03*
X717500Y435000D03*
X727500Y147500D03*
X717500Y147500D03*
X617500Y147500D03*
X607500Y147500D03*
X440000Y1032500D03*
X430000Y1032500D03*
X550000Y977500D03*
X540000Y977500D03*
D22*
X734500Y892500D03*
D23*
X702000Y882500D03*
X702000Y902500D03*
D11*
X80000Y660000D03*
X90000Y660000D03*
X90000Y670000D03*
X80000Y670000D03*
X612500Y817500D03*
X622500Y817500D03*
X622500Y827500D03*
X612500Y827500D03*
D79*
X409623Y1466500D03*
X409623Y1460000D03*
X409623Y1453500D03*
X390377Y1453500D03*
X390377Y1460000D03*
X390377Y1466500D03*
X472123Y1201500D03*
X472123Y1195000D03*
X472123Y1188500D03*
X452877Y1188500D03*
X452877Y1195000D03*
X452877Y1201500D03*
X347123Y1201500D03*
X347123Y1195000D03*
X347123Y1188500D03*
X327877Y1188500D03*
X327877Y1195000D03*
X327877Y1201500D03*
X667123Y1466500D03*
X667123Y1460000D03*
X667123Y1453500D03*
X647877Y1453500D03*
X647877Y1460000D03*
X647877Y1466500D03*
X729623Y1201500D03*
X729623Y1195000D03*
X729623Y1188500D03*
X710377Y1188500D03*
X710377Y1195000D03*
X710377Y1201500D03*
X604623Y1201500D03*
X604623Y1195000D03*
X604623Y1188500D03*
X585377Y1188500D03*
X585377Y1195000D03*
X585377Y1201500D03*
D80*
X195000Y23450D03*
X195000Y36150D03*
X195000Y48850D03*
X195000Y61550D03*
X250000Y61550D03*
X250000Y48850D03*
X250000Y36150D03*
X250000Y23450D03*
D81*
X222500Y42500D03*
D12*
X267500Y47500D03*
X267500Y37500D03*
X177500Y50000D03*
X177500Y60000D03*
D11*
X245000Y10000D03*
X235000Y10000D03*
X265000Y10000D03*
X255000Y10000D03*
D15*
X773500Y712500D03*
X786500Y712500D03*
X773500Y725000D03*
X786500Y725000D03*
X606500Y698500D03*
X593500Y698500D03*
D14*
X605000Y781000D03*
X605000Y794000D03*
X590000Y781000D03*
X590000Y794000D03*
D82*
X335950Y780000D03*
X485000Y714500D03*
X320000Y1350000D03*
X542500Y767500D03*
X87500Y1100000D03*
X217500Y777500D03*
X415000Y740266D03*
X542500Y590000D03*
X42500Y822500D03*
X92500Y1025000D03*
X90120Y687500D03*
X50000Y737500D03*
X122500Y665000D03*
X32500Y630000D03*
X445000Y1580000D03*
X507500Y1580000D03*
X715000Y795000D03*
X707500Y845000D03*
X415000Y790000D03*
X597500Y870000D03*
X547500Y832500D03*
X155000Y1440000D03*
X432500Y1420000D03*
X382500Y1437500D03*
X640000Y1437500D03*
X160000Y1462500D03*
X322500Y1417500D03*
X580000Y1350000D03*
X582500Y1417500D03*
X690000Y1420000D03*
X197500Y1385000D03*
X197500Y1410000D03*
X455000Y1385000D03*
X712500Y1385000D03*
X712500Y1407500D03*
X455000Y1407500D03*
D83*
X217500Y132500D03*
X217500Y117500D03*
D82*
X286000Y789000D03*
X77500Y815000D03*
X30000Y1155000D03*
X469000Y740000D03*
X112500Y1072500D03*
X336000Y698000D03*
X430000Y840000D03*
X550000Y1322500D03*
X167500Y765000D03*
X42500Y767500D03*
X517500Y737500D03*
X505000Y750000D03*
X317500Y1505000D03*
X575000Y1502500D03*
X221500Y696500D03*
X657500Y1507500D03*
X290000Y1321500D03*
X192500Y752500D03*
X400000Y1505000D03*
X702500Y795000D03*
X467500Y605000D03*
X302500Y600000D03*
X760000Y592500D03*
X67500Y1005000D03*
X57500Y712500D03*
X102500Y637500D03*
X232500Y1417500D03*
X747500Y1420000D03*
X490000Y1420000D03*
X480000Y1565000D03*
X542500Y1565000D03*
X732500Y865000D03*
X10000Y1097500D03*
X247500Y1342500D03*
X285000Y1342500D03*
X515000Y1342500D03*
X545000Y1342500D03*
X535000Y750000D03*
X525000Y750000D03*
X487500Y737500D03*
X497500Y737500D03*
X200000Y765000D03*
X210000Y765000D03*
X297500Y1335000D03*
X307500Y1335000D03*
X557500Y1335000D03*
X567500Y1335000D03*
D83*
X10000Y195000D03*
X25000Y195000D03*
D82*
X555000Y882500D03*
X572500Y810000D03*
X545000Y802500D03*
X567500Y802500D03*
D84*
X565000Y197500D03*
X625000Y197500D03*
X192500Y1012500D03*
X262500Y1012500D03*
X487500Y1035000D03*
X507500Y1035000D03*
D30*
X85000Y115000D03*
D82*
X52500Y657500D03*
X215000Y1292500D03*
X475000Y1297500D03*
X735000Y1297500D03*
X60000Y1505000D03*
X142500Y1507500D03*
X85000Y720000D03*
X50000Y1152500D03*
X10000Y1160000D03*
X322500Y717500D03*
X495000Y714500D03*
X410000Y850000D03*
X470000Y797500D03*
X762500Y715000D03*
X280000Y702500D03*
X192500Y777500D03*
X492500Y1335000D03*
X502500Y1332500D03*
X377500Y1277500D03*
X355000Y1272500D03*
X417500Y1267500D03*
X475000Y1263500D03*
X452500Y1372500D03*
X582500Y1295000D03*
X615000Y1272500D03*
X187000Y1415000D03*
X712500Y1372000D03*
X677500Y1267500D03*
X735000Y1263500D03*
X77500Y775000D03*
X142500Y745000D03*
X100000Y827500D03*
X115000Y1040000D03*
X280000Y842500D03*
X517500Y762500D03*
X615000Y1285000D03*
X637500Y1277500D03*
X420000Y701000D03*
X78500Y839000D03*
X12500Y785500D03*
X325000Y1297500D03*
X400000Y1530000D03*
X765000Y1332500D03*
X200000Y707500D03*
X215000Y1263500D03*
X151000Y1266500D03*
X172500Y802500D03*
X302500Y703500D03*
X57500Y980000D03*
X408000Y703500D03*
X87500Y1075000D03*
X247500Y1332500D03*
X582500Y87500D03*
X332500Y1505000D03*
X482500Y1502500D03*
X590000Y1502500D03*
D83*
X55000Y87500D03*
D82*
X162500Y205000D03*
X87500Y205000D03*
X118000Y119000D03*
X118000Y111000D03*
X125000Y111000D03*
X125000Y119000D03*
X132000Y111000D03*
X132000Y119000D03*
X347500Y312500D03*
X347500Y502500D03*
X10000Y580000D03*
X77500Y712500D03*
X50000Y722500D03*
X107500Y665000D03*
X47500Y630000D03*
X732500Y845000D03*
X755000Y1430000D03*
X497500Y1430000D03*
X445000Y1565000D03*
X675000Y1350000D03*
X415000Y1350000D03*
X160000Y1352500D03*
X750000Y1335000D03*
X235000Y1332500D03*
X107500Y80000D03*
D83*
X17500Y132500D03*
D82*
X790000Y810000D03*
X290000Y1440000D03*
X25000Y1110000D03*
X17500Y1152500D03*
X342970Y705000D03*
X227500Y795000D03*
X597500Y877500D03*
X547500Y817500D03*
X382500Y1422500D03*
X640000Y1422500D03*
X160000Y1477500D03*
X125000Y1477500D03*
X640000Y1182500D03*
X547500Y1182500D03*
X417500Y1182500D03*
X382500Y1182500D03*
X290000Y1182500D03*
X252500Y1182500D03*
X125000Y1182500D03*
X160000Y1182500D03*
X155000Y1425000D03*
X190000Y1425000D03*
X205000Y1440000D03*
X457500Y1442500D03*
X462500Y1437500D03*
X470000Y1420000D03*
X437500Y1392500D03*
X457500Y1420000D03*
X720020Y1437500D03*
X695000Y1392500D03*
X715000Y1420000D03*
X715000Y1442500D03*
X665000Y1177500D03*
X505000Y1010000D03*
X522500Y827500D03*
X82500Y1190000D03*
X62300Y1190000D03*
X352500Y367500D03*
X357500Y372500D03*
X357500Y562500D03*
X317500Y542500D03*
X455000Y980000D03*
X520000Y1177500D03*
X240000Y1425000D03*
X120000Y1342500D03*
X592500Y1412500D03*
X727500Y1420000D03*
X172500Y630000D03*
X712500Y902500D03*
X97500Y670000D03*
X35000Y827500D03*
X680000Y1380900D03*
X420000Y1380900D03*
X170000Y1382500D03*
X197500Y1372500D03*
X342500Y1402500D03*
X352500Y537500D03*
X345000Y537500D03*
X352500Y530000D03*
X345000Y530000D03*
X352500Y522500D03*
X345000Y522500D03*
X337500Y347500D03*
X337500Y340000D03*
X337500Y332500D03*
X352500Y347500D03*
X352500Y340000D03*
X352500Y332500D03*
X422500Y1460000D03*
X677500Y1460000D03*
X675000Y1420000D03*
X417500Y1420000D03*
X482500Y1195000D03*
X615000Y1195000D03*
X740000Y1195000D03*
X357500Y1195000D03*
X355000Y1285000D03*
D84*
X277424Y47576D03*
X152500Y72500D03*
X87500Y72500D03*
D83*
X217500Y95000D03*
D84*
X527500Y22500D03*
D82*
X215000Y52500D03*
X230000Y52500D03*
X215000Y42500D03*
X230000Y42500D03*
X215000Y32500D03*
X230000Y32500D03*
D84*
X275000Y10000D03*
D83*
X35000Y132500D03*
D82*
X370000Y825000D03*
X197500Y1417500D03*
X737500Y1502500D03*
X224986Y1502486D03*
X50000Y712500D03*
X517500Y727500D03*
X464000Y811000D03*
X75000Y1060000D03*
X52500Y1057500D03*
X122500Y1072500D03*
X550000Y1312500D03*
X290000Y1312500D03*
X417500Y1297500D03*
X392500Y1313020D03*
X162500Y1300000D03*
X190000Y745000D03*
X295000Y767500D03*
X467500Y700000D03*
X677500Y1300000D03*
X652500Y1312500D03*
X597500Y772500D03*
X592500Y690000D03*
D30*
X787500Y702500D03*
D82*
X657500Y755000D03*
X605000Y802500D03*
X677500Y747500D03*
X590000Y802500D03*
X632500Y827500D03*
X622500Y795000D03*
X587500Y772500D03*
X595000Y745000D03*
X585000Y735000D03*
X595000Y735000D03*
X605000Y735000D03*
X595000Y725000D03*
X67500Y1512500D03*
X657500Y1530000D03*
X142500Y1530000D03*
X85000Y727500D03*
X500000Y762500D03*
D84*
X457500Y22500D03*
D82*
X242500Y1492500D03*
X237500Y1265000D03*
X197500Y1445000D03*
X202500Y1340000D03*
X205000Y1430000D03*
X210000Y1450000D03*
X432500Y1442500D03*
X457500Y1340000D03*
X690000Y1440000D03*
X717500Y1340000D03*
X392500Y625000D03*
X387500Y780000D03*
X387500Y632500D03*
X362500Y780000D03*
X330000Y595000D03*
X327500Y825000D03*
X310500Y780000D03*
X322500Y617500D03*
X302500Y814000D03*
X305000Y750000D03*
X722500Y872500D03*
X720000Y655000D03*
X390000Y657500D03*
X722500Y835000D03*
X387500Y720000D03*
X77500Y1032500D03*
X92500Y1005000D03*
X67500Y1022500D03*
X82500Y997500D03*
X75000Y973000D03*
X157440Y1052500D03*
X157500Y982500D03*
X75000Y1075000D03*
X77500Y1110000D03*
X616020Y1365000D03*
X355000Y1342500D03*
X357500Y1307500D03*
X688500Y1376000D03*
X467500Y1502500D03*
X400000Y1497500D03*
X173500Y1376000D03*
X605000Y12500D03*
X630000Y62500D03*
X382500Y27500D03*
X160000Y192500D03*
X90000Y192500D03*
X125000Y140000D03*
X342500Y367500D03*
X342500Y557500D03*
X120000Y575000D03*
X25000Y570000D03*
X75000Y570000D03*
X7500Y922500D03*
D83*
X187500Y195000D03*
X172500Y195000D03*
D82*
X182500Y1497500D03*
X437500Y1497500D03*
X695000Y1497500D03*
X125000Y1197500D03*
X55000Y1210000D03*
X382500Y1197500D03*
X640000Y1197500D03*
X252500Y1197500D03*
X317500Y352500D03*
X352500Y557500D03*
X460000Y973060D03*
X485000Y960000D03*
X520000Y1202500D03*
X107500Y1332500D03*
X572500Y1397500D03*
X584000Y700000D03*
X584000Y685000D03*
D83*
X160000Y1617500D03*
D82*
X130000Y340000D03*
X225000Y322500D03*
X277500Y227500D03*
X185000Y245000D03*
X75000Y245000D03*
X507500Y237500D03*
X625000Y245000D03*
X735000Y245000D03*
X735000Y147500D03*
X680000Y340000D03*
X625000Y147500D03*
X570000Y340000D03*
X460000Y340000D03*
X405000Y435000D03*
X507500Y427500D03*
X625000Y435000D03*
X735000Y435000D03*
X680000Y530000D03*
X570000Y530000D03*
X460000Y530000D03*
X225000Y512500D03*
X130000Y530000D03*
X75000Y435000D03*
X185000Y435000D03*
X280000Y417500D03*
X405000Y245000D03*
X557500Y977500D03*
X625000Y1315000D03*
X467500Y965000D03*
X312500Y1397500D03*
X447500Y1032500D03*
X555000Y872500D03*
X552500Y957500D03*
X380000Y1460000D03*
X637500Y1460000D03*
X575000Y1195000D03*
X700000Y1195000D03*
X442500Y1192500D03*
X317500Y1195000D03*
D83*
X242500Y75000D03*
X257500Y75000D03*
D84*
X312500Y1052500D03*
X345000Y1052500D03*
X375000Y1052500D03*
X405000Y1052500D03*
X435000Y1052500D03*
X465000Y1052500D03*
X492500Y1052500D03*
X525000Y1052500D03*
X555000Y1052500D03*
D82*
X428500Y1376000D03*
X725000Y1502500D03*
X210000Y1502500D03*
X97500Y660000D03*
X615000Y697500D03*
D30*
X772500Y702500D03*
D82*
X677500Y722500D03*
X592500Y767500D03*
X602500Y767500D03*
X365000Y1497500D03*
X657500Y1497500D03*
X622500Y1497500D03*
X142500Y1497500D03*
X477500Y790000D03*
X477500Y755000D03*
X542500Y780000D03*
X520000Y140000D03*
X557500Y137500D03*
X425761Y815239D03*
X427500Y767500D03*
X430000Y830000D03*
X687500Y50000D03*
X327000Y79000D03*
X677500Y67500D03*
X337500Y372500D03*
X527500Y577500D03*
X337500Y562500D03*
X520000Y945000D03*
X555000Y685000D03*
X550000Y727500D03*
X332500Y367500D03*
X330000Y557500D03*
X520000Y585000D03*
X335000Y580000D03*
X542500Y732500D03*
X512500Y950000D03*
X547500Y700000D03*
X292500Y260000D03*
X300000Y337500D03*
X297500Y255000D03*
X305000Y332500D03*
X301940Y245000D03*
X310000Y327500D03*
X357500Y312500D03*
X388500Y255000D03*
X380000Y327500D03*
X580500Y322500D03*
X690000Y327500D03*
X294000Y450000D03*
X300000Y527500D03*
X299000Y445000D03*
X305000Y522500D03*
X304000Y435000D03*
X310000Y517500D03*
X357500Y502500D03*
X388500Y445000D03*
X377500Y517500D03*
X581000Y511500D03*
X605000Y62500D03*
X562500Y742500D03*
X585000Y620000D03*
X615000Y615000D03*
X707500Y710000D03*
X707500Y752500D03*
X748500Y753500D03*
X747500Y820000D03*
X692500Y820000D03*
X705000Y702500D03*
X690000Y517500D03*
X337500Y152500D03*
X337500Y312500D03*
X342500Y165000D03*
X342500Y307500D03*
X557500Y747500D03*
X570000Y60000D03*
X227500Y1265000D03*
X222500Y1600000D03*
X662500Y762500D03*
X547500Y1570000D03*
X542500Y1597500D03*
X222500Y950000D03*
X650000Y945000D03*
X487500Y1265000D03*
X507500Y1565000D03*
X502500Y935000D03*
X657500Y827500D03*
X655000Y937500D03*
X787500Y827500D03*
X730000Y1557500D03*
X787500Y1220000D03*
X750000Y1220000D03*
X747500Y1265000D03*
X347500Y647500D03*
X347500Y695000D03*
X632500Y747500D03*
X627500Y647500D03*
X477500Y910000D03*
X472500Y785000D03*
X690000Y882500D03*
X635000Y717500D03*
X642500Y567500D03*
X647500Y727500D03*
X650000Y703940D03*
X647500Y575000D03*
X642500Y722500D03*
X655073Y708823D03*
X662500Y542500D03*
X565000Y632500D03*
X767500Y630000D03*
X552500Y737500D03*
X432500Y703000D03*
X430000Y755000D03*
X225000Y815000D03*
X152500Y1325000D03*
X152500Y1302500D03*
X170000Y1137500D03*
X162500Y1340000D03*
X90000Y1200000D03*
X207500Y1212500D03*
X482500Y1202500D03*
X477500Y1212500D03*
X410000Y1472500D03*
X410000Y1482500D03*
X665000Y1482500D03*
X667500Y1472500D03*
X398978Y1325000D03*
X397500Y1362500D03*
X417500Y1340000D03*
X437500Y1255000D03*
X483000Y1253000D03*
X462500Y1267500D03*
X462500Y1410000D03*
X442500Y1200000D03*
X452500Y1267500D03*
X307500Y1197500D03*
X312500Y1217500D03*
X442500Y1267500D03*
X440000Y1217500D03*
X657500Y1325000D03*
X652500Y1362500D03*
X680000Y1090000D03*
X677500Y1340000D03*
X722500Y1267500D03*
X722500Y1410000D03*
X700000Y1202500D03*
X712500Y1267500D03*
X547500Y1200000D03*
X550000Y1217500D03*
X702500Y1217500D03*
X702500Y1267500D03*
X765000Y1480000D03*
X757500Y1265000D03*
X345000Y1225000D03*
X497500Y1265000D03*
X488790Y1227500D03*
X310000Y1381020D03*
X315000Y1322500D03*
X327500Y1365000D03*
X330000Y1272500D03*
X347500Y1342500D03*
X357520Y1297500D03*
X319940Y1150000D03*
X320500Y1272500D03*
X575000Y1322500D03*
X567500Y1382500D03*
X587500Y1367500D03*
X590000Y1275000D03*
X617520Y1297500D03*
X607500Y1342500D03*
X582500Y1272500D03*
X377500Y1375000D03*
X382500Y1320000D03*
X637500Y1372500D03*
X642500Y1320000D03*
X273000Y1160000D03*
X283000Y1272000D03*
X530000Y1150000D03*
X542500Y1272500D03*
X257500Y1452500D03*
X260000Y1492500D03*
X770000Y1492500D03*
X772500Y1452500D03*
X515000Y1452500D03*
X515000Y1492500D03*
X259000Y1022500D03*
X167500Y1020000D03*
X372500Y1120000D03*
X405000Y1266000D03*
X380000Y1137500D03*
X372500Y1302500D03*
X677500Y1097500D03*
X665000Y1266000D03*
X632500Y1302500D03*
X647500Y1117500D03*
X727500Y1120000D03*
X730000Y1157500D03*
X147500Y1155000D03*
X122500Y1487500D03*
X390000Y1472500D03*
X390000Y1487500D03*
X647500Y1472500D03*
X645000Y1487500D03*
X595000Y1200000D03*
X607500Y1157500D03*
X720000Y1200000D03*
X337500Y1200000D03*
X350000Y1157500D03*
X462500Y1200000D03*
X475000Y1157500D03*
X417500Y1427500D03*
X415000Y1447500D03*
X202500Y1265000D03*
X175000Y1455000D03*
X192500Y1265000D03*
X190000Y1197500D03*
X182500Y1210000D03*
X182500Y1265000D03*
X40000Y715000D03*
X27500Y785000D03*
X155000Y697500D03*
X127500Y680000D03*
X127500Y637500D03*
X110000Y740000D03*
X152500Y675000D03*
X142500Y727500D03*
X175000Y967500D03*
X12500Y955000D03*
X12500Y797500D03*
X22500Y1077500D03*
X20000Y967500D03*
X27500Y655000D03*
X27500Y615000D03*
X185000Y1522500D03*
X182500Y1540000D03*
X109940Y1525000D03*
X432560Y1522500D03*
X365000Y1525000D03*
X690060Y1522500D03*
X624940Y1522500D03*
X517500Y1310000D03*
X530000Y1530000D03*
X270000Y1292500D03*
X272500Y1530000D03*
X777500Y1310000D03*
X777500Y1530000D03*
X30000Y1550000D03*
X20000Y877500D03*
X225000Y825000D03*
X227500Y872500D03*
X792500Y1272500D03*
X730000Y1602500D03*
X735000Y1585000D03*
X785000Y1582500D03*
X250000Y1617500D03*
X290000Y1465000D03*
X298060Y1569440D03*
X525000Y1550000D03*
X525000Y1452500D03*
X312500Y825000D03*
X322500Y937500D03*
X257500Y1265000D03*
X247500Y1570000D03*
X210000Y1607500D03*
X532500Y1625000D03*
X527500Y1272500D03*
X172500Y1265000D03*
X180000Y1552500D03*
X267500Y1452500D03*
X287500Y1610000D03*
X747500Y1487500D03*
X782500Y1485000D03*
X782500Y1452500D03*
X740210Y1595000D03*
X428500Y1596000D03*
X175000Y1312500D03*
X190000Y1312500D03*
X190000Y1327500D03*
X182500Y1320000D03*
X175000Y1327500D03*
X430000Y1327500D03*
X430000Y1312500D03*
X445000Y1312500D03*
X445000Y1327500D03*
X437500Y1320000D03*
X690000Y1327500D03*
X690000Y1312500D03*
X705000Y1312500D03*
X705000Y1327500D03*
X697500Y1320000D03*
X132500Y140000D03*
X135000Y192500D03*
X115000Y192500D03*
X117500Y140000D03*
X770000Y752500D03*
X137500Y617500D03*
X132500Y720000D03*
X780000Y640000D03*
X85000Y702500D03*
X80000Y682500D03*
X330000Y990000D03*
X367500Y1007500D03*
X390000Y1005000D03*
X420000Y1010000D03*
X467500Y1015000D03*
X480000Y1017500D03*
X495000Y1017500D03*
X495000Y1042500D03*
X540000Y1030000D03*
X555000Y1007500D03*
X512500Y987500D03*
X502500Y927500D03*
X452500Y930000D03*
X540000Y997500D03*
X627500Y742500D03*
X645000Y987500D03*
X642500Y732500D03*
X640000Y1037500D03*
X637500Y737500D03*
X67500Y590000D03*
X67500Y910000D03*
X217500Y915000D03*
X247500Y1265000D03*
X535000Y1352500D03*
X535500Y1265000D03*
X275000Y1352500D03*
X277500Y1265000D03*
X225000Y1457500D03*
X212980Y1321896D03*
X40000Y1577500D03*
X27500Y897500D03*
X575000Y895000D03*
X577500Y772500D03*
X75000Y1602500D03*
X35000Y905000D03*
X582500Y900000D03*
X582500Y767500D03*
X65000Y1090000D03*
X280000Y747500D03*
X270000Y885000D03*
X72500Y887500D03*
X330000Y885000D03*
X602500Y892500D03*
X542500Y907500D03*
X570000Y880000D03*
X570000Y850000D03*
X245000Y907500D03*
X225000Y805000D03*
X540000Y837500D03*
X562500Y887500D03*
X562500Y852500D03*
X540000Y847500D03*
X627500Y1330000D03*
X622500Y1382500D03*
X550000Y1302500D03*
X567500Y1390000D03*
X367500Y1330000D03*
X367500Y1380000D03*
X290000Y1302500D03*
X310000Y1390000D03*
X675000Y1427500D03*
X675000Y1445000D03*
D83*
X187500Y75000D03*
X202500Y75000D03*
D82*
X107500Y785000D03*
X102500Y757500D03*
X272500Y57500D03*
X357500Y27500D03*
X440000Y60000D03*
M02*
