G04 EAGLE Gerber RS-274X export*
G75*
%MOMM*%
%FSLAX34Y34*%
%LPD*%
%INSolderpaste Top*%
%IPPOS*%
%AMOC8*
5,1,8,0,0,1.08239X$1,22.5*%
G01*
%ADD10R,2.800000X2.600000*%
%ADD11R,2.800000X2.200000*%
%ADD12R,2.800000X2.800000*%
%ADD13R,0.520000X1.000000*%
%ADD14R,0.270000X1.000000*%
%ADD15R,1.000000X2.000000*%
%ADD16R,1.400000X1.300000*%
%ADD17R,1.100000X1.000000*%
%ADD18C,0.395000*%


D10*
X502500Y158000D03*
D11*
X473000Y44000D03*
X547000Y24000D03*
D12*
X547000Y118000D03*
D13*
X89000Y61000D03*
X151000Y61000D03*
X96500Y61000D03*
X143500Y61000D03*
D14*
X102500Y61000D03*
X137500Y61000D03*
X107500Y61000D03*
X112500Y61000D03*
X117500Y61000D03*
X122500Y61000D03*
X127500Y61000D03*
X132500Y61000D03*
D15*
X106000Y19000D03*
X134000Y19000D03*
D16*
X594200Y12200D03*
X594200Y37600D03*
X594200Y63000D03*
X594200Y88400D03*
X689600Y12900D03*
X689600Y38300D03*
X689600Y63700D03*
X689600Y89100D03*
D10*
X282500Y158000D03*
D11*
X253000Y44000D03*
X327000Y24000D03*
D12*
X327000Y118000D03*
D10*
X392500Y158000D03*
D11*
X363000Y44000D03*
X437000Y24000D03*
D12*
X437000Y118000D03*
D17*
X96000Y85000D03*
X79000Y85000D03*
X96000Y100000D03*
X79000Y100000D03*
D18*
X84925Y138425D02*
X108575Y138425D01*
X108575Y126575D01*
X84925Y126575D01*
X84925Y138425D01*
X84925Y130327D02*
X108575Y130327D01*
X108575Y134079D02*
X84925Y134079D01*
X84925Y137831D02*
X108575Y137831D01*
X70075Y138425D02*
X46425Y138425D01*
X70075Y138425D02*
X70075Y126575D01*
X46425Y126575D01*
X46425Y138425D01*
X46425Y130327D02*
X70075Y130327D01*
X70075Y134079D02*
X46425Y134079D01*
X46425Y137831D02*
X70075Y137831D01*
M02*
