M48
;GenerationSoftware,Autodesk,EAGLE,9.6.2*%
;CreationDate,2021-04-28T14:06:30Z*%
FMAT,2
ICI,OFF
METRIC,TZ,000.000
T15C0.200
T14C0.350
T13C0.500
T12C0.600
T11C0.630
T10C0.650
T9C0.800
T8C0.900
T7C1.000
T6C1.016
T5C1.100
T4C1.500
T3C1.700
T2C2.100
T1C3.000
%
G90
M71
T1
X76500Y160500
X76500Y3500
X3500Y3500
X3500Y160500
T2
X36500Y67500
X29250Y124000
X38250Y124000
X25000Y140000
X16000Y140000
X41750Y124000
X50750Y124000
X12500Y140000
X45500Y85500
X50750Y140000
X41750Y140000
X36500Y85500
X21000Y67500
X67500Y140000
X38250Y140000
X29250Y140000
X64000Y140000
X30000Y67500
X3500Y140000
X3500Y124000
X12500Y124000
X30000Y85500
X55000Y140000
X16000Y124000
X25000Y124000
X45500Y67500
X61000Y67500
X52000Y67500
X76500Y67500
X67500Y67500
X12500Y101500
X3500Y101500
X21000Y85500
X61000Y85500
X52000Y85500
X76500Y85500
X67500Y85500
X12500Y85500
X3500Y85500
X55000Y124000
X64000Y124000
X67500Y124000
X76500Y124000
X76500Y140000
T3
X51000Y3500
X51000Y10500
X29000Y3500
X40000Y3500
X40000Y10500
X29000Y10500
T4
X69250Y107200
X69250Y95800
T5
X43500Y92500
X10500Y147000
X8000Y147000
X5500Y147000
X23000Y60500
X25500Y60500
X28000Y60500
X38500Y60500
X41000Y60500
X43500Y60500
X62000Y147000
X72000Y92500
X54000Y60500
X56500Y60500
X59000Y60500
X36250Y117000
X33750Y117000
X69500Y60500
X72000Y60500
X74500Y60500
X31250Y117000
X48750Y117000
X5500Y94500
X8000Y94500
X10500Y94500
X46250Y117000
X43750Y117000
X43750Y147000
X23000Y92500
X25500Y92500
X28000Y92500
X46250Y147000
X48750Y147000
X54000Y92500
X56500Y92500
X59000Y92500
X31250Y147000
X33750Y147000
X69500Y92500
X74500Y92500
X36250Y147000
X10500Y117000
X76750Y104000
X76750Y101500
X76750Y99000
X62250Y104000
X62250Y99000
X8000Y117000
X5500Y117000
X5500Y92500
X8000Y92500
X10500Y92500
X23000Y117000
X20500Y117000
X62000Y117000
X59500Y117000
X57000Y117000
X18000Y117000
X74500Y117000
X18000Y147000
X72000Y117000
X69500Y117000
X20500Y147000
X23000Y147000
X69500Y147000
X72000Y147000
X74500Y147000
X38500Y92500
X41000Y92500
X57000Y147000
X59500Y147000
T6
X26000Y156480
X23460Y156480
X20920Y156480
X18380Y156480
X15840Y156480
X13300Y156480
X10760Y156480
X75730Y55540
X78270Y55540
X75730Y53000
X78270Y53000
X75730Y50460
X78270Y50460
X33620Y159020
X10760Y159020
X13300Y159020
X15840Y159020
X18380Y159020
X20920Y159020
X23460Y159020
X26000Y159020
X28540Y159020
X31080Y159020
X36160Y159020
X38700Y159020
X41240Y159020
X41240Y156480
X38700Y156480
X36160Y156480
X33620Y156480
X31080Y156480
X28540Y156480
T7
X25750Y7500
X3500Y13250
X21750Y9500
X17250Y19500
X1000Y19500
X2500Y19500
X1750Y13250
X16000Y161750
X24250Y7500
X21750Y13250
X21750Y11750
X18750Y7500
X20250Y7500
X5500Y8750
X18750Y19500
T8
X8000Y60850
X12000Y60850
X10000Y60850
X1250Y67500
X1250Y69500
X1250Y71500
X9270Y112750
X6730Y112750
T9
X36000Y105230
X33000Y107770
X33000Y105230
X57000Y107770
X57000Y105230
X45500Y101700
X43000Y101700
X40500Y101700
X45500Y96300
X43000Y96300
X40500Y96300
X51500Y96300
X54000Y96300
X56500Y96300
X51500Y101700
X54000Y101700
X56500Y101700
X31750Y99750
X31750Y97750
X31750Y95750
X36250Y99750
X70750Y114750
X36250Y97750
X36250Y95750
X4300Y27000
X4300Y24500
X4300Y22000
X9700Y27000
X9700Y24500
X9700Y22000
X9800Y36500
X9800Y34000
X9800Y31500
X15200Y36500
X15200Y34000
X15200Y31500
X15300Y27000
X15300Y24500
X15300Y22000
X20700Y27000
X20700Y24500
X20700Y22000
X20800Y36500
X20800Y34000
X20800Y31500
X26200Y36500
X26200Y34000
X26200Y31500
X26300Y27000
X26300Y24500
X26300Y22000
X31700Y27000
X31700Y24500
X31700Y22000
X37300Y27000
X37300Y24500
X37300Y22000
X42700Y27000
X42700Y24500
X42700Y22000
X42800Y36500
X42800Y34000
X42800Y31500
X48200Y36500
X48200Y34000
X48200Y31500
X48300Y27000
X48300Y24500
X48300Y22000
X53700Y27000
X53700Y24500
X53700Y22000
X53800Y36500
X53800Y34000
X53800Y31500
X59200Y36500
X59200Y34000
X59200Y31500
X59300Y27000
X59300Y24500
X59300Y22000
X64700Y27000
X64700Y24500
X64700Y22000
X64800Y36500
X64800Y34000
X64800Y31500
X70200Y36500
X70200Y34000
X70200Y31500
X70300Y27000
X70300Y24500
X70300Y22000
X75700Y27000
X75700Y24500
X75700Y22000
X4300Y46000
X4300Y43500
X4300Y41000
X9700Y46000
X9700Y43500
X9700Y41000
X9800Y55500
X9800Y53000
X9800Y50500
X15200Y55500
X15200Y53000
X15200Y50500
X15300Y46000
X15300Y43500
X15300Y41000
X20700Y46000
X20700Y43500
X20700Y41000
X20800Y55500
X20800Y53000
X20800Y50500
X26200Y55500
X26200Y53000
X21250Y105250
X16750Y103250
X16750Y105250
X16750Y107250
X75700Y41000
X75700Y43500
X75700Y46000
X70300Y41000
X70300Y43500
X70300Y46000
X70200Y50500
X70200Y53000
X70200Y55500
X64800Y50500
X64800Y53000
X64800Y55500
X64700Y41000
X64700Y43500
X64700Y46000
X59300Y41000
X59300Y43500
X59300Y46000
X59200Y50500
X59200Y53000
X59200Y55500
X53800Y50500
X53800Y53000
X53800Y55500
X53700Y41000
X53700Y43500
X53700Y46000
X48300Y41000
X48300Y43500
X48200Y50500
X48300Y46000
X48200Y53000
X48200Y55500
X42800Y50500
X42800Y53000
X42800Y55500
X42700Y41000
X21250Y114750
X21250Y112750
X21250Y110750
X25750Y114750
X25750Y112750
X25750Y110750
X21250Y107250
X28750Y112750
X28750Y110750
X33250Y114750
X33250Y112750
X33250Y110750
X51250Y114750
X51250Y112750
X51250Y110750
X55750Y114750
X55750Y112750
X55750Y110750
X58750Y114750
X58750Y112750
X58750Y110750
X63250Y114750
X63250Y112750
X63250Y110750
X36250Y114750
X36250Y112750
X36250Y110750
X40750Y114750
X40750Y112750
X40750Y110750
X66250Y114750
X66250Y112750
X66250Y110750
X70750Y112750
X70750Y110750
X43750Y114750
X43750Y112750
X43750Y110750
X48250Y114750
X48250Y112750
X48250Y110750
X73750Y114750
X73750Y112750
X73750Y110750
X78250Y114750
X78250Y112750
X78250Y110750
X13750Y114750
X13750Y112750
X13750Y110750
X18250Y114750
X18250Y112750
X18250Y110750
X28750Y114750
X42700Y43500
X42700Y46000
X37300Y41000
X37300Y43500
X37300Y46000
X4500Y154250
X4500Y152250
X4500Y150250
X9000Y154250
X9000Y152250
X9000Y150250
X12000Y154250
X12000Y152250
X12000Y150250
X16500Y154250
X16500Y152250
X16500Y150250
X19500Y154250
X19500Y152250
X19500Y150250
X24000Y154250
X24000Y152250
X24000Y150250
X30250Y154250
X30250Y152250
X30250Y150250
X34750Y154250
X34750Y152250
X34750Y150250
X37750Y154250
X37750Y152250
X37750Y150250
X42250Y154250
X42250Y152250
X42250Y150250
X45250Y154250
X45250Y152250
X45250Y150250
X49750Y154250
X49750Y152250
X49750Y150250
X56000Y154250
X56000Y152250
X56000Y150250
X60500Y154250
X60500Y152250
X60500Y150250
X63500Y154250
X63500Y152250
X63500Y150250
X68000Y154250
X68000Y152250
X68000Y150250
X71000Y154250
X71000Y152250
X71000Y150250
X75500Y154250
X75500Y152250
X75500Y150250
X64700Y12250
X64700Y14750
X64700Y17250
X59300Y12250
X59300Y14750
X59300Y17250
X75700Y12250
X75700Y14750
X75700Y17250
X70300Y12250
X70300Y14750
X70300Y17250
X28750Y95750
X28750Y97750
X28750Y99750
X24250Y95750
X24250Y97750
X24250Y99750
X28750Y103250
X28750Y105250
X28750Y107250
X24250Y103250
X24250Y105250
X24250Y107250
X21250Y95750
X21250Y97750
X21250Y99750
X16750Y95750
X16750Y97750
X16750Y99750
X21250Y103250
X31700Y41000
X31700Y43500
X31700Y46000
X26300Y41000
X26300Y43500
X26300Y46000
X26200Y50500
X54000Y107770
X54000Y105230
X51000Y107770
X51000Y105230
X48000Y107770
X48000Y105230
X45000Y107770
X45000Y105230
X42000Y107770
X42000Y105230
X39000Y107770
X39000Y105230
X36000Y107770
T10
X7680Y5725
X16320Y1900
X7680Y1900
X16320Y5725
T11
X15000Y5000
X9000Y5000
T12
X15000Y5000
T13
X31250Y105250
X34500Y105250
X37500Y105250
X45750Y2250
X40500Y105250
X43500Y105250
X46500Y105250
X49250Y105250
X52500Y105250
X56500Y19750
X62500Y19750
X19250Y101250
X26250Y101250
X48750Y103500
X50750Y103500
X27742Y4758
X15250Y7250
X8750Y7250
X52750Y2250
X55500Y105250
X27500Y1000
T14
X78750Y70250
X8500Y11500
X77250Y70250
T15
X65000Y70394
X64750Y57500
X64250Y72250
X65507Y70882
X66250Y54250
X56500Y63250
X76750Y63000
X55250Y73750
X43250Y70300
X43000Y75500
X22500Y81500
X15250Y132500
X15250Y130250
X17000Y113750
X16250Y134000
X9000Y120000
X20750Y121250
X48250Y120250
X47750Y121250
X41000Y147250
X41000Y148250
X66500Y148250
X66750Y147250
X39898Y132500
X39750Y136250
X41750Y134000
X43750Y125500
X48300Y125300
X46250Y126750
X46250Y141000
X44250Y120000
X45250Y126750
X30750Y119750
X31250Y121750
X44250Y126750
X44000Y121750
X65750Y132500
X65250Y136250
X68000Y109000
X67750Y134000
X72250Y126750
X72250Y141000
X70000Y120250
X71250Y126750
X54750Y120000
X55000Y121750
X70250Y121750
X70250Y126750
X76500Y148000
X75750Y126500
X34500Y122500
X49750Y126500
X48879Y122750
X31000Y138102
X31500Y132250
X32750Y136500
X33000Y127250
X34750Y134250
X35752Y129750
X31994Y115000
X32050Y127250
X57500Y132250
X56750Y138250
X58750Y136750
X59000Y127500
X61752Y129750
X60750Y134250
X58250Y127250
X37750Y137500
X38250Y132000
X63750Y137250
X64250Y132000
X27300Y116000
X28300Y127200
X53000Y115000
X54250Y127250
X25750Y145250
X26000Y149250
X77000Y149250
X77250Y145250
X51500Y145250
X51500Y149250
X25900Y102250
X16750Y102000
X37250Y112000
X40500Y126600
X38000Y113750
X37250Y130250
X67750Y109750
X66500Y126600
X63250Y130250
X64750Y111750
X72750Y112000
X73000Y115750
X14750Y115500
X12250Y148750
X39000Y147250
X39000Y148750
X64750Y147250
X64500Y148750
X59500Y120000
X60750Y115750
X72000Y120000
X33750Y120000
X35000Y115750
X46250Y120000
X47500Y115750
X41750Y142750
X41500Y144750
X20250Y126500
X17500Y145500
X19250Y126500
X19000Y119750
X13200Y11900
X18250Y126500
X4000Y71500
X2750Y78500
X15500Y69750
X12750Y68000
X12750Y63750
X11000Y74000
X15250Y67500
X14250Y72750
X17500Y96750
X1250Y95500
X1250Y79750
X2250Y107750
X2000Y96750
X2750Y65500
X2750Y61500
X18500Y152250
X18250Y154000
X10994Y152500
X43256Y152250
X36500Y152500
X69006Y152250
X62494Y152250
X51750Y131000
X53000Y153000
X27000Y129250
X27250Y153000
X77750Y131000
X77750Y153000
X3000Y155000
X2000Y87750
X22500Y82500
X22750Y87250
X79250Y127250
X73000Y160250
X73500Y158500
X78500Y158250
X25000Y161750
X29000Y146500
X29806Y156944
X52500Y155000
X52500Y145250
X31250Y82500
X32250Y93750
X25750Y126500
X24750Y157000
X21000Y160750
X53250Y162500
X52750Y127250
X17250Y126500
X18000Y155250
X26750Y145250
X28750Y161000
X74750Y148750
X78250Y148500
X78250Y145250
X74021Y159500
X42850Y159600
X17500Y131250
X19000Y131250
X19000Y132750
X18250Y132000
X17500Y132750
X43000Y132750
X43000Y131250
X44500Y131250
X44500Y132750
X43750Y132000
X69000Y132750
X69000Y131250
X70500Y131250
X70500Y132750
X69750Y132000
X13250Y14000
X13500Y19250
X11500Y19250
X11750Y14000
X77000Y75250
X13750Y61750
X13250Y72000
X78000Y64000
X8500Y70250
X8000Y68250
X33000Y99000
X36750Y100750
X39000Y100500
X42000Y101000
X46750Y101500
X48000Y101750
X49500Y101750
X49500Y104250
X54000Y103000
X55500Y100750
X51250Y98750
X50250Y92750
X45250Y93000
X54000Y99750
X62750Y74250
X64500Y98750
X64250Y73250
X64000Y103750
X63750Y73750
X6750Y59000
X6750Y91000
X21750Y91500
X24750Y126500
X53500Y135250
X53550Y126500
X27500Y135250
X27750Y126500
X22500Y145750
X21298Y132190
X4000Y157750
X2750Y89750
X57500Y89500
X57750Y77250
X7500Y160250
X3500Y90500
X58250Y90000
X58250Y76750
X6500Y109000
X28000Y74750
X27000Y88500
X7250Y88750
X33000Y88500
X60250Y89250
X54250Y90750
X57000Y88000
X57000Y85000
X24500Y90750
X22500Y80500
X54000Y83750
X56250Y88750
X56250Y85250
X54000Y84750
X62750Y133000
X62250Y138250
X55000Y130250
X56750Y139000
X36750Y133000
X36750Y138000
X29000Y130250
X31000Y139000
X67500Y142750
X67500Y144500
X33595Y78000
X48500Y71450
X10750Y78500
X10250Y75750
X27250Y5750
X35750Y2750
X44000Y6000
X32000Y135000
X54250Y76750
X8750Y110000
X21750Y77750
X41500Y74027
X54250Y59000
X4250Y82250
X9250Y102500
X9012Y68750
X18250Y121000
X5000Y73750
X12250Y66500
X3250Y63000
X44500Y158000
X50750Y158000
X71500Y79500
X70750Y84500
X41500Y79000
X59750Y87000
X54750Y83250
X15500Y144000
X43250Y142000
X38250Y143750
X64000Y143750
X16000Y146250
X32250Y141750
X58000Y135000
X58250Y141750
X69000Y142000
X19750Y138500
X19750Y141000
X45500Y138500
X71250Y138500
X71250Y140750
X45500Y140750
X28600Y78900
X7750Y81500
X3000Y115500
X46900Y74000
X11250Y107250
X33600Y69800
X43000Y84000
X55000Y132250
X16750Y76500
X4250Y76750
X51750Y73750
X50500Y75000
X31750Y150500
X57500Y150250
X22150Y69650
X65750Y150750
X29000Y132150
X19250Y75250
X40000Y150500
X70250Y79500
X46750Y60500
X30250Y60000
X76000Y59250
X6750Y100500
X5750Y71250
X10250Y63750
X23250Y141750
X74750Y142000
X49000Y142000
X48000Y156500
X54250Y156500
X73250Y86500
X1000Y109750
X24750Y134250
X28500Y134250
X51500Y134250
X54500Y134250
X53500Y75000
X52500Y75000
X48750Y73750
X49750Y73750
X20000Y76500
X21000Y76500
X29750Y133500
X30750Y133500
X55750Y133500
X56750Y133500
X55500Y88250
X57250Y81000
X54500Y80250
X56750Y80250
X5250Y65750
X21500Y129250
X47500Y129750
X73500Y129750
X6000Y150500
X14250Y150750
X8500Y72000
X5000Y115250
X1000Y116000
X32250Y71750
X49500Y71450
X41000Y85000
X47000Y79750
X76250Y71500
X28000Y70250
X19250Y77750
X49250Y133500
X50250Y133250
X37750Y127750
X35500Y127250
X41750Y126750
X47500Y126350
X45250Y137250
X58250Y129500
X61500Y127250
X18700Y141500
X71250Y137200
X67750Y126750
X73500Y126350
X7750Y77500
X14250Y74500
X10000Y82750
X11500Y104000
X28000Y84250
X51750Y76250
X61500Y128500
X63750Y127750
X42000Y70100
X7850Y83900
X1250Y78550
X32500Y129750
X40000Y153000
X76500Y133250
X20000Y70750
X21500Y126350
X15100Y126650
X17250Y80250
X30250Y70350
X5750Y98000
X40800Y70350
X8750Y107500
X24750Y133250
X58250Y8750
X33250Y150500
X48250Y150250
X59000Y150250
X16250Y20500
X8750Y20500
X11800Y11900
X11800Y11100
X12500Y11100
X12500Y11900
X13200Y11100
X34750Y31250
X34750Y50250
X1000Y58000
X7750Y71250
X5000Y72250
X10750Y66500
X4750Y63000
X73250Y84500
X75500Y143000
X49750Y143000
X44500Y156500
X67500Y135000
X41500Y135000
X16000Y135250
X75000Y133500
X23500Y133250
X10750Y8000
X79000Y81000
X29000Y144000
X2500Y111000
X1750Y115250
X34297Y70500
X22750Y79500
X59750Y87750
X54750Y81750
X38250Y142250
X64000Y142250
X16000Y147750
X12500Y147750
X64000Y118250
X54750Y118250
X41750Y118250
X38250Y118250
X29000Y118250
X25250Y118250
X12500Y118250
X16000Y118250
X15500Y142500
X19000Y142500
X20500Y144000
X45750Y144250
X46250Y143750
X47000Y142000
X43750Y139250
X45750Y142000
X72002Y143750
X69500Y139250
X71500Y142000
X71500Y144250
X66500Y117750
X50500Y101000
X52250Y82750
X8250Y119000
X6230Y119000
X35250Y36750
X35750Y37250
X35750Y56250
X31750Y54250
X45500Y98000
X52000Y117750
X24000Y142500
X12000Y134250
X59250Y141250
X72750Y142000
X17250Y63000
X71250Y90250
X9750Y67000
X3500Y82750
X68000Y138090
X42000Y138090
X17000Y138250
X19750Y137250
X34250Y140250
X35250Y53750
X34500Y53750
X35250Y53000
X34500Y53000
X35250Y52250
X34500Y52250
X33750Y34750
X33750Y34000
X33750Y33250
X35250Y34750
X35250Y34000
X35250Y33250
X42250Y146000
X67750Y146000
X67500Y142000
X41750Y142000
X48250Y119500
X61500Y119500
X74000Y119500
X35750Y119500
X35500Y128500
X21500Y5250
X23000Y5250
X21500Y4250
X23000Y4250
X21500Y3250
X23000Y3250
X37000Y82500
X19750Y141750
X73750Y150250
X22499Y150249
X5000Y71250
X51750Y72750
X46400Y81100
X7500Y106000
X5250Y105750
X12250Y107250
X55000Y131250
X29000Y131250
X41750Y129750
X39250Y131302
X16250Y130000
X19000Y74500
X29500Y76750
X46750Y70000
X67750Y130000
X65250Y131250
X59750Y77250
X59250Y69000
X65750Y75500
X60500Y80250
X67750Y74750
X59000Y80250
X63250Y82750
X62250Y79500
X58750Y77250
X59500Y74500
X58500Y73500
X59500Y73500
X60500Y73500
X59500Y72500
X6750Y151250
X65750Y153000
X14250Y153000
X8500Y72750
X50000Y76250
X24250Y149250
X23750Y126500
X19750Y144500
X20250Y134000
X20500Y143000
X21000Y145000
X43250Y144250
X45750Y134000
X69000Y144000
X71750Y134000
X39250Y62500
X38750Y78000
X38750Y63250
X36250Y78000
X33000Y59500
X32750Y82500
X31050Y78000
X32250Y61750
X30250Y81400
X30500Y75000
X72250Y87250
X72000Y65500
X39000Y65750
X72250Y83500
X38750Y72000
X7750Y103250
X9250Y100500
X6750Y102250
X8250Y99750
X7500Y97300
X15744Y105250
X15750Y98250
X7500Y107500
X7750Y111000
X61602Y136500
X35500Y134250
X35750Y130750
X68850Y137600
X46750Y150250
X40000Y149750
X17350Y137600
X60500Y1250
X63000Y6250
X38250Y2750
X16000Y19250
X9000Y19250
X12500Y14000
X31000Y51750
X34250Y36750
X34250Y55750
X12000Y57500
X2500Y57000
X7500Y57000
X750Y92250
X18250Y149750
X43750Y149750
X69500Y149750
X12500Y119750
X5500Y121000
X38250Y119750
X64000Y119750
X25250Y119750
X31750Y35250
X35250Y55750
X46000Y97306
X48500Y96000
X52000Y120250
X10750Y133250
X57250Y139750
X58400Y70000
X58400Y68500
X13000Y34000
X22500Y32250
X27750Y22750
X18500Y24500
X7500Y24500
X50750Y23750
X62500Y24500
X73500Y24500
X73500Y14750
X68000Y34000
X62500Y14750
X57000Y34000
X46000Y34000
X40500Y43500
X50750Y42750
X62500Y43500
X73500Y43500
X68000Y53000
X57000Y53000
X46000Y53000
X22500Y51250
X13000Y53000
X7500Y43500
X18500Y43500
X28000Y41750
X40500Y24500
X55750Y97750
X62500Y131500
X46750Y96500
X31250Y139750
X44750Y103250
X55500Y87250
X55250Y95750
X38000Y146000
X63750Y146000
X57500Y119500
X70000Y119500
X44250Y119250
X31750Y119500
X42850Y137600
X72500Y150250
X21000Y150250
X9750Y66000
X61500Y69750
X67750Y72250
X59250Y76750
X60250Y76750
X36500Y149750
X65750Y149750
X62250Y149750
X14250Y149750
X47750Y79000
X47750Y75500
X54250Y78000
X52000Y14000
X55750Y13750
X42576Y81524
X42750Y76750
X43000Y83000
X68750Y5000
X32700Y7900
X67750Y6750
X33750Y37250
X52750Y57750
X33750Y56250
X52000Y94500
X55500Y68500
X55000Y72750
X33250Y36750
X33000Y55750
X52000Y58500
X33500Y58000
X54250Y73250
X51250Y95000
X54750Y70000
X29250Y26000
X30000Y33750
X29750Y25500
X30500Y33250
X30194Y24500
X31000Y32750
X35750Y31250
X38850Y25500
X38000Y32750
X58050Y32250
X69000Y32750
X29400Y45000
X30000Y52750
X29900Y44500
X30500Y52250
X30400Y43500
X35750Y50250
X38850Y44500
X37750Y51750
X58100Y51150
X60500Y6250
X56250Y74250
X58500Y62000
X61500Y61500
X70750Y71000
X70750Y75250
X74850Y75350
X74750Y82000
X69250Y82000
X70500Y70250
X69000Y51750
X33750Y15250
X33750Y31250
X34250Y16500
X34250Y30750
X55750Y74750
X57000Y6000
X22750Y126500
X22250Y160000
X66250Y76250
X54750Y157000
X54250Y159750
X22250Y95000
X65000Y94500
X48750Y126500
X50750Y156500
X50250Y93500
X65750Y82750
X65500Y93750
X78750Y82750
X73000Y155750
X78750Y122000
X75000Y122000
X74750Y126500
X34750Y64750
X34750Y69500
X63250Y74750
X62750Y64750
X47750Y91000
X47250Y78500
X69000Y88250
X63500Y71750
X64250Y56750
X64750Y72750
M30